<?xml version="1.0" encoding="UTF-8"?>
<svg xmlns="http://www.w3.org/2000/svg" xmlns:xlink="http://www.w3.org/1999/xlink" width="200" zoomAndPan="magnify" viewBox="0 0 150 149.999998" height="200" preserveAspectRatio="xMidYMid meet" version="1.0">
  <defs>
    <clipPath id="29d5e7767b">
      <path d="M 23.378906 24.855469 L 126.851562 24.855469 L 126.851562 125.351562 L 23.378906 125.351562 Z M 23.378906 24.855469 " clip-rule="nonzero"></path>
    </clipPath>
  </defs>
  <g clip-path="url(#29d5e7767b)">
    <path fill="#100f0d" d="M 47.625 119.144531 C 46.898438 120.769531 45.371094 122.921875 43.460938 123.402344 C 44.125 124.046875 44.890625 124.46875 45.835938 124.347656 C 46.378906 124.269531 46.519531 125.234375 45.976562 125.3125 C 43.765625 125.636719 42.4375 123.828125 41.351562 122.136719 C 39.964844 119.96875 39 117.878906 38.71875 115.304688 C 38.539062 113.679688 38.515625 112.03125 38.15625 110.421875 C 37.875 109.15625 37.191406 108.011719 36.890625 106.746094 C 36.546875 105.277344 37.050781 103.570312 38.699219 103.289062 C 38.980469 103.246094 39.121094 103.648438 38.820312 103.730469 C 36.066406 104.433594 38.214844 107.929688 38.699219 109.457031 C 39.21875 111.105469 39.28125 112.832031 39.480469 114.523438 C 39.742188 116.652344 40.285156 118.519531 41.390625 120.371094 C 41.832031 121.113281 42.355469 122.078125 43.019531 122.902344 C 43.945312 122.621094 44.707031 122.257812 45.453125 121.515625 C 46.214844 120.75 46.738281 119.808594 47.402344 118.960938 C 47.503906 118.800781 47.703125 119.003906 47.625 119.144531 Z M 62.878906 116.8125 C 65.855469 115.125 68.386719 112.53125 69.835938 109.457031 C 69.957031 109.214844 70.277344 109.398438 70.238281 109.617188 C 69.613281 112.875 65.835938 115.6875 63.0625 117.113281 C 62.859375 117.234375 62.679688 116.933594 62.878906 116.8125 Z M 110.097656 92.71875 C 107.929688 92.132812 105.738281 92.234375 103.527344 92.15625 C 101.859375 92.09375 99.949219 91.992188 98.519531 91.03125 C 98.359375 90.910156 98.460938 90.648438 98.660156 90.707031 C 100.75 91.230469 102.679688 91.574219 104.832031 91.671875 C 106.660156 91.753906 108.449219 91.875 110.199219 92.457031 C 110.339844 92.496094 110.28125 92.757812 110.097656 92.71875 Z M 94.640625 104.152344 C 93.496094 103.789062 92.128906 103.269531 91.304688 102.34375 C 91.203125 102.222656 91.324219 102.042969 91.464844 102.121094 C 91.96875 102.402344 92.429688 102.804688 92.933594 103.085938 C 93.496094 103.410156 94.078125 103.691406 94.699219 103.910156 C 94.839844 103.972656 94.78125 104.191406 94.640625 104.152344 Z M 108.007812 56.804688 C 108.609375 55.882812 109.816406 55.015625 110.984375 55.359375 C 111.164062 55.417969 111.183594 55.679688 110.984375 55.722656 C 110.5 55.820312 110.019531 55.839844 109.535156 56.042969 C 109.054688 56.261719 108.570312 56.566406 108.230469 56.964844 C 108.128906 57.085938 107.929688 56.925781 108.007812 56.804688 Z M 101.796875 68.5625 C 97.855469 72.621094 94.441406 77.40625 88.851562 79.152344 C 88.710938 79.191406 88.652344 78.972656 88.792969 78.933594 C 91.6875 77.867188 94.078125 76 96.167969 73.765625 C 97.917969 71.898438 99.464844 69.746094 101.535156 68.21875 C 101.738281 68.078125 101.957031 68.402344 101.796875 68.5625 Z M 84.429688 55.417969 C 83.644531 56 83.363281 57.992188 83.101562 58.894531 C 82.78125 60.042969 82.460938 61.167969 82.175781 62.3125 C 82.136719 62.453125 81.917969 62.394531 81.957031 62.253906 C 82.339844 60.464844 82.742188 58.695312 83.222656 56.945312 C 83.425781 56.242188 83.484375 55.15625 84.347656 55.136719 C 84.507812 55.117188 84.53125 55.339844 84.429688 55.417969 Z M 91.988281 45.171875 C 93.292969 43.039062 94.480469 40.851562 94.984375 38.378906 C 95.445312 36.027344 95.644531 33.574219 96.269531 31.265625 C 96.328125 31.0625 96.671875 31.101562 96.652344 31.324219 C 96.46875 33.777344 95.925781 36.367188 95.386719 38.78125 C 94.839844 41.230469 93.535156 43.242188 92.1875 45.3125 C 92.109375 45.433594 91.886719 45.3125 91.988281 45.171875 Z M 83.28125 65.789062 C 84.167969 60.582031 85.894531 55.660156 87.804688 50.757812 C 88.730469 48.347656 89.695312 45.933594 90.519531 43.503906 C 91.382812 40.972656 91.988281 38.398438 92.75 35.824219 C 92.8125 35.625 93.152344 35.664062 93.132812 35.886719 C 92.589844 40.972656 90.300781 45.953125 88.449219 50.675781 C 86.5 55.621094 84.46875 60.625 83.523438 65.871094 C 83.484375 66.011719 83.261719 65.949219 83.28125 65.789062 Z M 44.164062 71.476562 C 46.757812 72 49.332031 72.640625 51.882812 73.265625 C 53.957031 73.785156 56.265625 74.210938 58.175781 75.195312 C 58.398438 75.3125 58.238281 75.617188 58.015625 75.574219 C 55.804688 75.195312 53.613281 74.328125 51.421875 73.746094 C 48.96875 73.105469 46.496094 72.460938 44.085938 71.71875 C 43.945312 71.65625 44.003906 71.457031 44.164062 71.476562 Z M 40.546875 62.695312 C 40.304688 62.613281 40.40625 62.273438 40.648438 62.3125 C 42.757812 62.773438 44.667969 63.878906 46.417969 65.105469 C 46.496094 65.164062 46.417969 65.304688 46.335938 65.246094 C 44.546875 64.0625 42.578125 63.355469 40.546875 62.695312 Z M 36.6875 61.828125 C 41.25 63.296875 45.8125 65.40625 49.914062 67.859375 C 50.035156 67.917969 49.957031 68.121094 49.8125 68.078125 C 49.671875 68.039062 49.53125 68 49.390625 67.960938 C 49.332031 67.9375 49.332031 67.839844 49.410156 67.839844 C 48.667969 67.839844 47.363281 66.875 46.660156 66.550781 C 45.613281 66.050781 44.566406 65.566406 43.503906 65.105469 C 41.210938 64.101562 38.878906 63.257812 36.566406 62.332031 C 36.265625 62.191406 36.386719 61.730469 36.6875 61.828125 Z M 54.757812 43.222656 C 54.898438 50.636719 56.289062 57.691406 59.683594 64.363281 C 59.765625 64.542969 59.523438 64.683594 59.421875 64.523438 C 55.90625 58.113281 53.792969 50.597656 54.238281 43.242188 C 54.257812 42.878906 54.738281 42.878906 54.757812 43.222656 Z M 59.203125 32.570312 C 59.683594 34.078125 59.722656 35.726562 59.945312 37.273438 C 60.207031 39.101562 60.609375 40.929688 61.113281 42.71875 C 61.152344 42.898438 60.890625 42.960938 60.851562 42.800781 C 60.265625 41.03125 59.785156 39.261719 59.460938 37.414062 C 59.183594 35.703125 59.082031 33.996094 58.597656 32.328125 C 58.519531 32.027344 58.941406 31.90625 59.0625 32.167969 C 59.121094 32.085938 59.203125 32.046875 59.320312 32.066406 C 61.632812 32.46875 63.421875 34.097656 64.128906 36.328125 C 64.1875 36.488281 63.925781 36.550781 63.886719 36.390625 C 63.160156 34.359375 61.332031 32.910156 59.203125 32.570312 Z M 72.429688 48.707031 C 71.363281 45.671875 70.558594 42.800781 68.609375 40.148438 C 68.527344 40.027344 68.730469 39.867188 68.808594 39.984375 C 70.738281 42.398438 72.589844 45.492188 72.75 48.648438 C 72.769531 48.847656 72.488281 48.867188 72.429688 48.707031 Z M 71.261719 79.152344 C 71.542969 79.332031 71.804688 79.496094 72.085938 79.65625 C 72.207031 79.714844 72.328125 79.757812 72.449219 79.777344 C 72.8125 80.519531 73.132812 81.261719 73.453125 82.007812 C 72.710938 81.0625 71.964844 80.117188 71.261719 79.152344 Z M 75.566406 80.78125 C 75.664062 81.34375 75.746094 81.925781 75.804688 82.488281 C 75.625 82.289062 75.464844 82.085938 75.285156 81.886719 C 74.820312 80.839844 74.359375 79.796875 73.957031 78.75 C 73.171875 76.742188 72.410156 74.730469 71.683594 72.722656 C 71.984375 73.226562 72.367188 73.667969 72.832031 73.96875 C 73.070312 74.128906 73.3125 74.167969 73.515625 74.128906 C 73.59375 74.269531 73.675781 74.390625 73.777344 74.511719 C 73.777344 74.53125 73.796875 74.53125 73.816406 74.550781 C 73.753906 74.652344 73.734375 74.792969 73.777344 74.953125 C 74.238281 76.941406 75.222656 78.730469 75.566406 80.78125 Z M 82.519531 81.082031 C 81.957031 81.707031 81.375 82.269531 80.75 82.832031 C 81.214844 82.148438 81.636719 81.445312 82.015625 80.722656 C 82.199219 80.839844 82.359375 80.960938 82.519531 81.082031 Z M 86.980469 77.003906 L 86.980469 76.984375 L 87 77.003906 C 87 76.984375 87 76.984375 86.980469 77.003906 Z M 73.515625 79.292969 C 73.515625 79.292969 73.535156 79.292969 73.515625 79.292969 C 73.515625 79.292969 73.535156 79.3125 73.535156 79.332031 C 73.535156 79.3125 73.535156 79.3125 73.515625 79.292969 Z M 76.929688 78.328125 C 76.929688 78.167969 76.929688 78.027344 76.910156 77.867188 C 76.992188 78.1875 77.050781 78.488281 77.132812 78.8125 C 77.070312 78.628906 76.992188 78.46875 76.929688 78.328125 Z M 81.152344 75.617188 C 81.234375 75.617188 81.3125 75.597656 81.394531 75.574219 C 81.273438 75.835938 81.132812 76.117188 81.011719 76.378906 C 81.03125 76.117188 81.09375 75.878906 81.152344 75.617188 Z M 71.164062 76.378906 C 71.121094 76.339844 71.140625 76.339844 71.164062 76.378906 Z M 71.042969 36.972656 C 71.0625 34.800781 70.738281 32.632812 70.398438 30.5 C 70.378906 30.320312 70.058594 30.359375 70.078125 30.539062 C 70.296875 32.371094 70.359375 34.199219 70.4375 36.046875 C 70.339844 35.886719 70.238281 35.746094 70.136719 35.605469 C 68.929688 33.9375 67.382812 32.46875 65.613281 31.503906 C 65.632812 31.484375 65.652344 31.464844 65.675781 31.445312 C 65.695312 31.40625 65.734375 31.363281 65.753906 31.324219 C 65.894531 31.125 65.632812 30.921875 65.433594 31.003906 C 66.078125 30.660156 66.417969 29.835938 66.941406 29.214844 C 67.421875 28.652344 67.984375 28.148438 68.550781 27.667969 C 69.152344 27.144531 70.296875 25.898438 71.140625 25.859375 C 71.925781 25.816406 72.167969 26.78125 72.589844 27.34375 C 74.480469 29.917969 77.496094 32.007812 77.171875 35.5625 C 77.152344 35.746094 77.253906 35.886719 77.394531 35.964844 C 75.964844 38.941406 75.445312 42.316406 75.023438 45.613281 C 75 45.53125 74.980469 45.453125 74.941406 45.371094 C 75.402344 43.785156 75.023438 41.835938 74.941406 40.265625 C 74.800781 37.734375 74.71875 35.222656 74.078125 32.75 C 74.015625 32.53125 73.695312 32.632812 73.734375 32.851562 C 74.21875 35.101562 74.257812 37.394531 74.359375 39.683594 C 74.417969 41.070312 74.699219 42.738281 74.558594 44.246094 C 74.199219 43.339844 73.796875 42.457031 73.414062 41.59375 C 72.671875 40.027344 71.925781 38.457031 71.042969 36.972656 Z M 125.457031 61.066406 C 125.4375 61.066406 125.417969 61.085938 125.394531 61.085938 C 125.417969 60.90625 125.417969 60.703125 125.4375 60.523438 C 125.457031 60.324219 125.113281 60.261719 125.074219 60.484375 C 124.832031 61.648438 124.3125 62.695312 123.96875 63.839844 C 123.828125 64.28125 124.511719 64.582031 124.710938 64.160156 C 125.113281 63.355469 125.277344 62.414062 125.355469 61.507812 C 125.394531 61.546875 125.457031 61.570312 125.515625 61.589844 C 126.984375 61.75 125.375 65.046875 125.074219 65.445312 C 125.035156 65.507812 124.992188 65.546875 124.953125 65.609375 C 124.773438 65.527344 124.550781 65.75 124.632812 65.949219 C 124.128906 66.433594 123.527344 66.792969 122.945312 67.175781 C 122.039062 67.777344 121.074219 68.402344 120.933594 69.546875 C 120.894531 69.828125 121.296875 69.929688 121.457031 69.769531 C 122.441406 68.824219 123.367188 68.101562 124.472656 67.316406 C 124.671875 67.175781 124.851562 67.035156 125.015625 66.875 C 125.253906 67.699219 125.234375 68.582031 124.851562 69.367188 C 124.433594 70.25 123.566406 70.730469 123.066406 71.535156 C 122.441406 72.5 122.238281 73.34375 121.195312 74.027344 C 120.332031 74.589844 119.324219 74.933594 118.378906 75.3125 C 116.53125 76.058594 114.683594 76.761719 112.832031 77.425781 C 112.832031 77.425781 112.832031 77.425781 112.851562 77.40625 C 113.957031 76.761719 114.984375 75.9375 116.046875 75.214844 C 117.253906 74.390625 118.519531 73.625 119.6875 72.742188 C 119.828125 72.640625 119.707031 72.441406 119.546875 72.519531 C 118.320312 73.164062 117.015625 73.886719 115.769531 74.671875 C 116.933594 73.503906 118.101562 72.359375 119.425781 71.375 C 119.667969 71.195312 119.464844 70.871094 119.207031 70.992188 C 116.894531 72.039062 115.226562 73.988281 113.355469 75.636719 C 112.25 76.621094 111.0625 77.464844 109.738281 78.128906 C 108.53125 78.75 107.222656 79.070312 106.039062 79.714844 C 106.039062 79.714844 106.039062 79.714844 106.019531 79.714844 C 104.710938 80.136719 103.382812 80.539062 102.078125 80.941406 C 104.167969 78.832031 105.535156 75.617188 108.089844 74.148438 C 108.230469 74.070312 108.109375 73.867188 107.96875 73.949219 C 106.199219 74.914062 104.972656 76.417969 103.746094 77.988281 C 102.722656 79.292969 101.738281 80.4375 100.511719 81.425781 C 100.210938 81.503906 99.90625 81.605469 99.605469 81.683594 C 100.230469 81.101562 100.792969 80.417969 101.273438 79.734375 C 103.484375 76.621094 104.933594 73.265625 108.128906 70.953125 C 108.269531 70.851562 108.128906 70.632812 107.988281 70.730469 C 105.515625 72.402344 103.886719 74.488281 102.359375 77.023438 C 101.152344 79.011719 99.886719 80.902344 98.078125 82.105469 C 96.730469 82.488281 95.363281 82.851562 93.996094 83.210938 C 92.027344 83.714844 90.039062 84.21875 88.046875 84.660156 C 86.960938 84.898438 85.695312 85.183594 84.53125 85.121094 C 84.851562 84.941406 85.171875 84.757812 85.496094 84.578125 C 87.664062 83.273438 89.816406 81.90625 91.96875 80.601562 C 92.128906 80.5 91.988281 80.257812 91.828125 80.339844 C 89.976562 81.402344 88.109375 82.449219 86.257812 83.535156 C 85.375 84.054688 84.488281 84.578125 83.566406 84.980469 C 83.261719 84.898438 82.960938 84.78125 82.699219 84.617188 C 83.464844 83.652344 84.109375 82.628906 84.691406 81.523438 C 84.710938 81.484375 84.730469 81.425781 84.75 81.382812 C 84.871094 81.261719 84.972656 81.140625 85.050781 80.980469 C 85.375 80.902344 85.65625 80.640625 85.496094 80.257812 C 85.496094 80.238281 85.476562 80.21875 85.476562 80.199219 C 86.136719 79.414062 86.839844 78.671875 87.625 78.007812 C 87.886719 77.785156 87.847656 77.464844 87.6875 77.242188 C 87.847656 77.242188 88.007812 77.222656 88.167969 77.144531 C 88.671875 76.902344 89.234375 76.300781 89.675781 75.574219 C 89.957031 75.3125 90.21875 75.035156 90.480469 74.75 C 91.746094 73.40625 92.972656 72.039062 94.21875 70.691406 C 94.359375 70.53125 94.136719 70.3125 93.976562 70.453125 C 92.75 71.695312 91.546875 73.082031 90.21875 74.308594 C 90.601562 73.082031 90.398438 71.898438 88.933594 71.71875 C 87.726562 71.558594 86.78125 72.582031 86.199219 73.503906 C 85.554688 74.511719 85.214844 75.714844 85.414062 76.902344 C 85.496094 77.324219 85.816406 77.503906 86.15625 77.484375 C 85.515625 77.949219 84.933594 78.449219 84.390625 78.992188 C 84.007812 78.769531 83.585938 78.628906 83.144531 78.550781 C 84.429688 75.976562 85.476562 73.285156 86.460938 70.59375 C 86.539062 70.390625 86.21875 70.3125 86.15625 70.511719 C 85.09375 73.203125 83.988281 75.898438 82.621094 78.46875 C 82.480469 78.449219 82.359375 78.429688 82.21875 78.429688 C 81.292969 78.347656 80.851562 79.636719 81.472656 80.21875 C 81.496094 80.238281 81.535156 80.277344 81.554688 80.296875 C 80.871094 81.382812 80.128906 82.429688 79.382812 83.453125 C 79.445312 82.609375 79.605469 81.785156 79.824219 80.980469 C 80.066406 80.078125 80.367188 79.214844 80.589844 78.308594 C 81.234375 77.183594 81.777344 76 82.296875 74.792969 C 83.542969 71.917969 84.710938 69.023438 85.917969 66.128906 C 85.976562 65.96875 85.695312 65.847656 85.617188 66.011719 C 84.46875 68.582031 83.324219 71.132812 82.175781 73.707031 C 82.277344 71.859375 82.480469 68.683594 80.410156 68.621094 C 79.304688 68.582031 79.0625 69.585938 79.0625 70.453125 C 79.0625 71.597656 78.921875 73.324219 79.585938 74.308594 C 79.683594 74.449219 79.824219 74.53125 79.964844 74.570312 C 79.964844 74.8125 80.085938 75.054688 80.25 75.234375 C 79.746094 76.179688 79.082031 77.042969 78.621094 78.007812 C 78.558594 78.148438 78.5 78.289062 78.4375 78.410156 C 78.4375 77.96875 78.417969 77.503906 78.398438 77.042969 C 78.277344 73.625 78.117188 70.210938 78.117188 66.773438 C 78.136719 59.820312 78.761719 52.867188 80.769531 46.214844 C 80.832031 46.015625 80.511719 45.914062 80.449219 46.136719 C 78.519531 52.265625 77.734375 58.65625 77.574219 65.066406 C 77.496094 68.320312 77.554688 71.578125 77.695312 74.832031 C 77.734375 75.9375 77.796875 77.0625 77.816406 78.167969 C 76.992188 74.710938 75.867188 71.253906 75.566406 67.738281 C 75.042969 61.429688 76.007812 55.015625 77.332031 48.847656 C 77.351562 48.726562 77.171875 48.667969 77.152344 48.789062 C 76.027344 53.730469 75.042969 58.695312 74.941406 63.757812 C 74.621094 58.171875 75.121094 52.585938 75.824219 47.058594 C 76.46875 42.015625 76.949219 36.007812 81.03125 32.410156 C 81.976562 31.566406 83.0625 30.921875 84.289062 30.5625 C 85.171875 30.300781 86.097656 30.199219 86.921875 29.757812 C 85.273438 31.625 84.109375 34.117188 83.382812 36.367188 C 83.324219 36.570312 83.625 36.648438 83.707031 36.449219 C 84.289062 34.921875 84.992188 33.453125 85.894531 32.109375 C 86.722656 30.863281 87.765625 29.835938 88.652344 28.652344 C 88.710938 28.570312 88.671875 28.449219 88.589844 28.390625 C 88.769531 28.210938 88.953125 28.050781 89.152344 27.886719 C 90.660156 26.640625 92.429688 26.984375 93.695312 28.351562 L 93.714844 28.371094 C 93.777344 28.671875 94.199219 28.671875 94.238281 28.351562 C 94.21875 27.746094 94.460938 27.34375 94.960938 27.105469 C 95.285156 26.660156 95.6875 26.601562 96.148438 26.945312 C 96.933594 27.164062 97.214844 27.445312 97.675781 28.109375 C 98.199219 28.851562 98.582031 29.695312 98.820312 30.539062 C 99.324219 32.269531 99.34375 34.097656 98.984375 35.847656 C 98.621094 37.65625 97.898438 39.363281 97.03125 40.992188 C 96.230469 42.476562 95.164062 43.882812 94.640625 45.511719 C 94.5 45.972656 95.183594 46.253906 95.425781 45.832031 C 95.464844 45.773438 95.484375 45.714844 95.527344 45.652344 C 95.566406 45.714844 95.667969 45.753906 95.746094 45.691406 C 97.113281 44.769531 98.277344 43.382812 99.746094 42.578125 C 99.0625 44.488281 97.855469 46.035156 96.792969 47.742188 C 95.667969 49.570312 94.722656 51.460938 93.816406 53.410156 C 93.734375 53.570312 93.976562 53.730469 94.078125 53.550781 C 95.183594 51.421875 96.410156 49.332031 97.714844 47.320312 C 98.679688 45.851562 100.1875 44.285156 100.167969 42.417969 C 100.167969 42.398438 100.167969 42.378906 100.148438 42.355469 C 100.410156 42.234375 100.691406 42.136719 100.972656 42.054688 C 103.726562 41.332031 105.617188 43.058594 106.21875 45.59375 C 106.28125 45.875 106.742188 45.894531 106.800781 45.59375 C 107.222656 43.300781 105.09375 41.390625 102.964844 41.152344 C 100.1875 40.851562 97.695312 43.082031 95.886719 45.03125 C 98.398438 40.75 101.273438 35.925781 99.867188 30.78125 C 99.425781 29.171875 98.300781 26.722656 96.550781 26.121094 C 95.324219 25.699219 93.9375 26.601562 93.757812 27.828125 C 93.03125 26.964844 91.945312 26.5 90.78125 26.5625 C 88.851562 26.660156 87.96875 28.492188 86.296875 29.171875 C 84.449219 29.9375 82.699219 30.039062 81.03125 31.304688 C 79.886719 32.1875 78.921875 33.292969 78.15625 34.519531 C 78.078125 32.992188 77.375 31.625 76.429688 30.378906 C 75.804688 29.574219 75.082031 28.832031 74.417969 28.070312 C 73.65625 27.203125 73.152344 26.179688 72.429688 25.316406 C 71.363281 24.070312 69.632812 25.65625 68.75 26.421875 C 67.261719 27.707031 65.574219 29.132812 65.011719 31.101562 C 65.011719 31.125 65.011719 31.144531 65.011719 31.144531 C 63.523438 30.460938 61.894531 30.117188 60.148438 30.320312 C 59.824219 30.359375 59.804688 30.863281 60.148438 30.84375 C 68.851562 30.441406 72.671875 41.613281 74.558594 48.285156 C 74.578125 48.347656 74.621094 48.40625 74.660156 48.445312 C 74.015625 53.429688 73.613281 58.453125 73.855469 63.476562 C 74.058594 67.699219 75.121094 71.835938 75.644531 76 C 75.363281 75.535156 75.101562 75.074219 74.921875 74.570312 C 74.859375 74.371094 74.71875 74.25 74.578125 74.210938 C 75.363281 72.519531 74.5 68.761719 72.488281 68.421875 C 71.242188 68.199219 70.78125 69.246094 70.859375 70.25 C 68.910156 64.664062 67.140625 58.996094 65.613281 53.289062 C 65.554688 53.089844 65.253906 53.167969 65.3125 53.371094 C 66.800781 59.296875 68.46875 65.164062 70.480469 70.953125 C 71.203125 73.042969 71.964844 75.113281 72.75 77.164062 C 72.507812 76.820312 72.226562 76.519531 71.945312 76.21875 C 70.480469 73.285156 69.132812 70.3125 67.90625 67.277344 C 65.453125 61.167969 63.5625 54.855469 61.996094 48.464844 C 61.957031 48.347656 61.773438 48.386719 61.792969 48.527344 C 63.039062 55.277344 65.050781 61.851562 67.625 68.199219 C 68.609375 70.613281 69.675781 73.003906 70.820312 75.335938 C 70.78125 75.3125 70.738281 75.273438 70.71875 75.253906 C 70.296875 74.972656 69.574219 75.132812 69.351562 75.617188 C 69.273438 75.777344 69.234375 75.9375 69.191406 76.097656 C 66.699219 72.300781 64.609375 68.199219 63.421875 63.800781 C 63.363281 63.597656 63.082031 63.679688 63.121094 63.878906 C 64.226562 68.601562 66.339844 72.902344 69.03125 76.921875 C 70.296875 78.8125 71.664062 80.640625 73.09375 82.410156 C 73.375 82.75 73.632812 83.113281 73.917969 83.472656 C 72.910156 83.050781 71.84375 82.691406 70.859375 82.269531 C 70.640625 82.167969 70.4375 82.488281 70.660156 82.609375 C 71.984375 83.234375 73.351562 84.035156 74.738281 84.578125 C 74.78125 84.640625 74.820312 84.699219 74.882812 84.738281 C 75.023438 84.980469 75.183594 85.222656 75.34375 85.464844 C 75.304688 85.464844 75.242188 85.464844 75.183594 85.484375 C 74.941406 85.542969 74.699219 85.625 74.457031 85.703125 C 72.832031 85.140625 71.101562 84.78125 69.472656 84.195312 C 67.140625 83.394531 64.851562 82.449219 62.660156 81.324219 C 62.5 81.242188 62.335938 81.484375 62.519531 81.585938 C 65.734375 83.414062 69.394531 85.160156 73.09375 86.066406 C 71.804688 86.265625 70.621094 86.386719 69.253906 86.167969 C 67.867188 85.925781 66.519531 85.484375 65.191406 85.042969 C 64.949219 84.960938 64.871094 85.324219 65.089844 85.402344 C 66.640625 86.003906 68.570312 86.789062 70.4375 86.949219 C 70.316406 86.992188 70.199219 87.03125 70.078125 87.050781 C 67.984375 87.59375 66.015625 87.59375 63.90625 87.171875 C 60.226562 86.449219 56.949219 85.644531 53.152344 85.964844 C 46.296875 86.566406 37.433594 88.839844 33.109375 81.707031 C 32.988281 81.503906 32.609375 81.625 32.707031 81.886719 C 35.402344 89.320312 45.070312 88.015625 51.160156 87.273438 C 53.25 87.011719 55.34375 86.808594 57.453125 86.992188 C 59.222656 87.132812 60.929688 87.613281 62.660156 87.996094 C 53.773438 89.222656 46.277344 95.191406 39.644531 100.898438 C 39.140625 101.320312 39.863281 102.023438 40.367188 101.621094 C 47.421875 95.710938 54.539062 89.601562 63.964844 88.277344 C 64.027344 88.296875 64.105469 88.296875 64.167969 88.316406 C 65.113281 88.476562 66.015625 88.539062 66.921875 88.515625 C 65.652344 89.019531 64.429688 89.601562 63.242188 90.183594 C 60.828125 91.371094 58.335938 92.679688 56.246094 94.40625 C 55.34375 95.148438 54.597656 95.992188 53.957031 96.957031 C 53.128906 98.222656 52.1875 98.96875 51.039062 99.914062 C 49.210938 101.398438 47.664062 103.488281 46.980469 105.761719 C 46.941406 105.898438 47.140625 105.980469 47.222656 105.859375 C 48.40625 103.289062 49.855469 101.417969 52.125 99.75 C 53.933594 98.425781 54.757812 96.394531 56.46875 94.949219 C 60.308594 91.691406 65.113281 89.984375 69.734375 88.15625 C 71.625 87.773438 73.472656 87.132812 75.34375 86.46875 C 75.425781 86.46875 75.503906 86.449219 75.542969 86.386719 C 75.683594 86.308594 75.785156 86.167969 75.804688 86.027344 C 75.925781 86.167969 76.027344 86.308594 76.167969 86.449219 C 73.351562 87.371094 70.578125 88.496094 68.046875 90.003906 C 64.949219 91.855469 62.679688 94.34375 60.871094 97.441406 C 59.804688 99.269531 58.820312 101.097656 57.492188 102.765625 C 56.167969 104.433594 54.636719 105.941406 53.273438 107.570312 C 51.082031 110.179688 49.191406 113.253906 49.230469 116.773438 C 49.230469 116.933594 49.472656 116.933594 49.472656 116.773438 C 49.671875 112.632812 52.226562 109.496094 54.898438 106.5625 C 57.3125 103.929688 59.320312 101.296875 61.113281 98.203125 C 62.960938 95.007812 65.152344 92.4375 68.347656 90.527344 C 70.78125 89.0625 73.433594 88.074219 76.085938 87.109375 C 75.84375 87.332031 75.605469 87.554688 75.363281 87.753906 C 73.796875 89.140625 72.308594 90.566406 70.859375 92.074219 C 68.007812 95.046875 65.511719 98.246094 63.222656 101.660156 C 63.121094 101.800781 63.34375 101.921875 63.441406 101.78125 C 65.675781 98.746094 68.125 95.8125 70.71875 93.078125 C 71.90625 91.832031 73.132812 90.628906 74.398438 89.460938 C 75.164062 88.757812 75.945312 87.957031 76.8125 87.292969 C 76.1875 89.542969 75.304688 91.691406 74.097656 93.703125 C 73.351562 94.96875 72.488281 96.152344 71.523438 97.257812 C 70.820312 98.082031 69.875 98.808594 69.433594 99.8125 C 68.890625 101.078125 68.832031 102.402344 68.105469 103.648438 C 67.382812 104.894531 66.378906 105.980469 65.3125 106.964844 C 63.222656 108.894531 60.851562 110.480469 58.941406 112.632812 C 58.820312 112.773438 59.019531 112.996094 59.160156 112.855469 C 61.132812 110.664062 63.664062 109.117188 65.835938 107.148438 C 67.804688 105.359375 69.070312 103.367188 69.714844 100.777344 C 70.117188 99.1875 71.542969 98.144531 72.550781 96.917969 C 73.351562 95.933594 74.058594 94.886719 74.699219 93.78125 C 75.84375 91.8125 76.730469 89.703125 77.332031 87.511719 C 77.351562 87.53125 77.394531 87.574219 77.414062 87.59375 C 77.472656 87.671875 77.535156 87.734375 77.613281 87.773438 C 77.796875 87.933594 77.957031 88.097656 78.136719 88.257812 C 78.15625 88.277344 78.175781 88.277344 78.199219 88.277344 C 77.996094 89.984375 77.191406 91.753906 76.671875 93.300781 C 75.988281 95.308594 75.261719 97.300781 74.457031 99.269531 C 74.398438 99.429688 74.679688 99.550781 74.738281 99.390625 C 75.683594 97.238281 76.589844 95.089844 77.375 92.878906 C 77.9375 91.269531 78.800781 89.460938 78.78125 87.714844 C 79.0625 87.613281 79.34375 87.472656 79.625 87.3125 C 79.324219 91.070312 79.144531 94.789062 78.058594 98.445312 C 76.890625 102.324219 74.4375 105.699219 73.855469 109.757812 C 73.796875 110.140625 74.359375 110.300781 74.4375 109.917969 C 75.242188 105.761719 77.898438 102.242188 79.101562 98.183594 C 79.726562 96.09375 80.128906 93.902344 80.390625 91.671875 C 80.488281 92.253906 80.589844 92.839844 80.710938 93.382812 C 81.414062 96.597656 82.238281 99.792969 83.101562 102.96875 C 83.164062 103.207031 83.523438 103.105469 83.484375 102.867188 C 82.960938 99.851562 82.378906 96.855469 81.734375 93.84375 C 81.433594 92.457031 81.191406 91.070312 81.152344 89.644531 C 81.113281 88.417969 81.292969 87.230469 81.394531 86.027344 C 81.433594 86.027344 81.496094 86.003906 81.535156 86.003906 C 81.574219 86.347656 81.617188 86.707031 81.675781 87.050781 C 81.535156 87.632812 81.65625 88.15625 81.894531 88.660156 C 82.199219 90.648438 82.578125 92.636719 83.304688 94.445312 C 84.269531 96.816406 85.9375 98.726562 88.027344 100.171875 C 88.207031 100.292969 88.367188 100.011719 88.207031 99.871094 C 84.730469 97.378906 83.503906 93.722656 82.78125 89.84375 C 83.183594 90.246094 83.625 90.609375 84.046875 90.929688 C 85.171875 91.773438 86.339844 92.558594 87.566406 93.261719 C 88.792969 93.964844 90.5 94.488281 91.183594 95.8125 C 91.265625 95.972656 91.484375 95.832031 91.40625 95.671875 C 90.621094 94.085938 88.710938 93.480469 87.304688 92.578125 C 85.617188 91.492188 83.382812 90.226562 82.539062 88.335938 C 82.4375 87.652344 82.339844 86.949219 82.238281 86.265625 C 83.425781 87.53125 84.671875 88.738281 86.117188 89.683594 C 88.25 91.070312 90.742188 91.671875 93.113281 92.535156 C 98.320312 94.445312 103.304688 97.140625 107.746094 100.453125 C 107.867188 100.535156 107.96875 100.355469 107.867188 100.253906 C 103.808594 97.140625 99.464844 94.546875 94.742188 92.597656 C 92.289062 91.59375 89.613281 90.949219 87.304688 89.683594 C 85.65625 88.777344 84.269531 87.492188 82.960938 86.148438 C 88.691406 88.035156 94.960938 88.617188 100.914062 88.980469 C 104.148438 89.179688 107.6875 89.683594 110.902344 89.28125 C 114.179688 88.859375 116.632812 86.1875 120.089844 87.152344 C 120.550781 87.292969 120.792969 86.648438 120.410156 86.386719 C 117.980469 84.800781 115.183594 86.667969 112.875 87.59375 C 109.695312 88.859375 105.675781 88.117188 102.339844 87.933594 C 96.933594 87.652344 91.667969 87.070312 86.417969 86.066406 C 88.449219 85.824219 90.539062 85.121094 92.109375 84.71875 C 97.476562 83.375 102.800781 81.804688 108.027344 79.996094 C 110.601562 79.113281 113.15625 78.167969 115.6875 77.183594 C 117.757812 76.378906 120.269531 75.714844 122.078125 74.371094 C 122.742188 73.867188 123.125 73.304688 123.507812 72.5625 C 124.050781 71.476562 125.015625 70.773438 125.578125 69.726562 C 126.199219 68.542969 126.140625 67.253906 125.539062 66.171875 C 125.878906 65.789062 126.160156 65.367188 126.359375 64.886719 C 126.761719 64.101562 127.566406 60.582031 125.457031 61.066406 Z M 112.089844 101.179688 C 112.753906 100.375 112.992188 99.691406 113.054688 98.664062 C 113.09375 98.042969 113.113281 97.460938 113.65625 97.078125 C 113.859375 96.9375 114.121094 97.140625 114.121094 97.339844 C 114.140625 97.78125 113.980469 98.203125 113.917969 98.644531 C 113.859375 99.046875 113.816406 99.46875 113.695312 99.871094 C 113.457031 100.554688 113.015625 101.179688 112.390625 101.558594 C 112.128906 101.699219 111.910156 101.378906 112.089844 101.179688 Z M 88.910156 106.886719 C 91.144531 108.210938 93.234375 107.507812 95.625 107.6875 C 96.773438 107.789062 97.757812 108.292969 98.863281 108.59375 C 100.066406 108.914062 101.253906 108.835938 102.421875 108.511719 C 100.75 107.40625 99.265625 106.160156 97.375 105.378906 C 97.253906 105.316406 97.335938 105.117188 97.453125 105.175781 C 99.363281 105.941406 101.515625 106.824219 102.941406 108.371094 C 104.75 107.789062 106.398438 106.964844 107.949219 105.941406 C 107.929688 105.921875 107.90625 105.878906 107.886719 105.839844 C 106.964844 102.847656 104.027344 101.621094 101.515625 100.132812 C 101.355469 100.03125 101.496094 99.8125 101.65625 99.890625 C 104.167969 101.136719 107.746094 102.523438 108.328125 105.660156 C 108.710938 105.398438 109.074219 105.117188 109.457031 104.816406 C 109.738281 104.59375 110.058594 104.855469 109.9375 105.175781 C 108.992188 107.347656 105.976562 108.3125 103.949219 109.097656 C 102.621094 109.597656 101.214844 109.960938 99.765625 109.820312 C 98.277344 109.679688 96.992188 108.855469 95.527344 108.695312 C 94.058594 108.535156 92.589844 108.875 91.121094 108.613281 C 90.039062 108.414062 89.03125 107.949219 88.148438 107.265625 C 86.378906 105.921875 84.953125 103.910156 83.886719 102.003906 C 83.746094 101.761719 84.109375 101.539062 84.269531 101.78125 C 85.617188 103.691406 86.839844 105.660156 88.910156 106.886719 Z M 119.246094 95.589844 C 119.445312 97.117188 118.140625 98.464844 117.234375 99.511719 C 116.894531 99.890625 116.472656 100.273438 116.191406 100.695312 C 115.488281 101.679688 115.769531 102.042969 115.605469 102.988281 C 115.507812 103.589844 115.265625 104.152344 114.882812 104.65625 C 114.441406 105.238281 113.816406 105.738281 113.113281 105.921875 C 112.308594 108.253906 110.039062 109.558594 107.746094 110.179688 C 104.429688 111.066406 100.851562 111.285156 97.453125 111.726562 C 94.601562 112.109375 91.464844 112.59375 88.75 111.328125 C 86.378906 110.222656 84.53125 107.648438 83.785156 105.195312 C 83.644531 104.714844 84.289062 104.535156 84.53125 104.875 C 86.238281 107.167969 87.0625 109.738281 90.058594 110.683594 C 92.511719 111.445312 95.203125 110.984375 97.675781 110.664062 C 100.511719 110.300781 103.40625 110.0625 106.21875 109.578125 C 108.753906 109.136719 111.125 108.191406 112.449219 105.980469 C 112.308594 105.980469 112.1875 105.960938 112.050781 105.941406 C 111.867188 105.898438 111.808594 105.597656 111.988281 105.519531 C 112.671875 105.195312 113.414062 104.976562 113.957031 104.433594 C 114.902344 103.488281 114.621094 102.585938 114.863281 101.4375 C 115.085938 100.414062 115.988281 99.691406 116.652344 98.949219 C 117.015625 98.546875 117.375 98.125 117.675781 97.703125 C 118.160156 97.019531 118.5625 95.914062 118.242188 95.070312 C 118.019531 94.507812 117.253906 94.085938 116.894531 93.601562 C 116.25 92.699219 116.128906 91.652344 116.550781 90.628906 C 116.613281 90.46875 116.933594 90.46875 116.894531 90.667969 C 116.691406 92.335938 117.394531 93.058594 118.441406 94.144531 C 118.84375 94.566406 119.164062 95.007812 119.246094 95.589844 Z M 121.636719 88.917969 C 121.820312 89.582031 121.355469 90.003906 120.851562 90.347656 C 119.886719 90.988281 118.824219 91.753906 117.757812 92.214844 C 117.496094 92.335938 117.15625 91.992188 117.414062 91.773438 C 117.980469 91.3125 118.621094 90.96875 119.246094 90.585938 C 119.605469 90.367188 120.8125 89.863281 121.015625 89.320312 C 120.351562 89.28125 119.789062 88.898438 119.507812 88.277344 C 119.425781 88.117188 119.566406 87.976562 119.707031 87.976562 C 118.640625 87.433594 117.234375 88.398438 116.351562 88.980469 C 115.34375 89.644531 114.5625 90.488281 113.738281 91.351562 C 113.617188 91.472656 113.394531 91.3125 113.496094 91.171875 C 114.339844 89.765625 115.667969 88.636719 117.113281 87.875 C 118.078125 87.371094 119.285156 86.808594 120.210938 87.652344 C 120.429688 87.855469 120.128906 88.257812 119.886719 88.074219 C 119.886719 88.074219 119.867188 88.074219 119.867188 88.054688 C 120.191406 88.515625 120.714844 88.757812 121.273438 88.679688 C 121.417969 88.660156 121.597656 88.738281 121.636719 88.917969 Z M 74.539062 111.085938 C 75.023438 113.476562 74.238281 116.128906 72.953125 118.140625 C 72.589844 118.722656 71.945312 119.90625 71.183594 119.988281 C 70.4375 120.066406 70.15625 118.820312 69.632812 118.761719 C 69.632812 118.84375 69.613281 118.902344 69.574219 118.984375 C 67.785156 121.855469 63.984375 122.882812 60.910156 123.707031 C 58.859375 124.269531 56.730469 124.832031 54.578125 124.832031 C 52.386719 124.851562 50.277344 124.128906 48.085938 124.066406 C 47.84375 124.066406 47.84375 123.707031 48.085938 123.683594 C 49.996094 123.503906 51.824219 123.847656 53.734375 123.886719 C 55.804688 123.925781 57.816406 123.484375 59.804688 122.941406 C 63.261719 122.019531 66.316406 121.054688 68.851562 118.421875 C 69.03125 118.238281 69.253906 118.257812 69.414062 118.359375 C 69.773438 118.199219 69.835938 118.199219 70.257812 118.378906 C 70.699219 118.5625 70.480469 118.761719 70.960938 118.863281 C 71.664062 119.003906 71.886719 118.257812 72.246094 117.699219 C 73.515625 115.628906 73.714844 113.496094 73.835938 111.144531 C 73.855469 110.804688 74.457031 110.683594 74.539062 111.085938 Z M 52.628906 63.117188 C 52.851562 63.117188 53.070312 63.117188 53.3125 63.117188 C 53.53125 63.136719 53.773438 63.097656 53.976562 63.117188 C 53.996094 63.117188 54.035156 63.117188 54.054688 63.117188 C 55.0625 64.664062 56.167969 66.171875 57.414062 67.558594 C 57.511719 67.65625 57.613281 67.71875 57.734375 67.738281 C 58.015625 68.261719 58.316406 68.761719 58.617188 69.265625 C 56.949219 67.800781 55.324219 66.3125 53.734375 64.703125 C 53.230469 64.203125 52.730469 63.679688 52.207031 63.175781 C 52.328125 63.136719 52.46875 63.117188 52.628906 63.117188 Z M 25.167969 65.066406 C 25.671875 63.496094 25.773438 61.828125 26.957031 60.582031 C 28.527344 58.957031 30.878906 58.375 32.585938 56.886719 C 32.667969 56.925781 32.769531 56.945312 32.886719 56.90625 C 35.742188 56 38.417969 55.820312 41.292969 56.726562 C 43.964844 57.570312 46.316406 59.175781 48.425781 60.964844 C 52.105469 64.0625 55.242188 68.160156 59.441406 70.59375 C 59.90625 71.296875 60.386719 71.976562 60.910156 72.660156 C 62.316406 74.53125 63.867188 76.300781 65.574219 77.90625 C 67.261719 79.515625 69.171875 81.324219 71.261719 82.386719 C 71.707031 82.609375 72.246094 82.027344 71.824219 81.644531 C 70.058594 80.058594 68.066406 78.769531 66.359375 77.125 C 64.570312 75.414062 62.902344 73.546875 61.433594 71.535156 C 58.660156 67.738281 56.507812 63.496094 55.101562 58.996094 C 54.257812 56.285156 53.695312 53.488281 53.273438 50.675781 C 52.871094 47.921875 52.265625 44.910156 52.96875 42.15625 C 53.554688 39.886719 54.839844 37.875 55.625 35.683594 C 55.945312 34.800781 56.1875 33.875 56.246094 32.933594 C 56.289062 32.449219 56.085938 31.726562 56.226562 31.265625 C 56.847656 29.132812 58.195312 30.902344 58.679688 31.527344 C 58.859375 31.765625 59.222656 31.464844 59.101562 31.203125 C 58.578125 30.238281 57.332031 28.773438 56.125 29.636719 C 54.941406 30.480469 55.542969 32.953125 55.261719 34.136719 C 54.859375 35.804688 54.054688 37.332031 53.332031 38.902344 C 53.089844 37.976562 52.710938 37.03125 52.449219 36.148438 C 52.386719 35.945312 52.066406 36.027344 52.125 36.226562 C 52.40625 37.332031 52.570312 38.597656 52.988281 39.683594 C 52.929688 39.84375 52.851562 39.984375 52.789062 40.148438 C 52.609375 40.609375 52.449219 41.089844 52.308594 41.554688 C 51.28125 39.484375 49.773438 37.050781 49.753906 34.761719 C 49.753906 34.558594 49.433594 34.558594 49.433594 34.761719 C 49.371094 37.351562 50.839844 40.066406 52.046875 42.316406 C 52.066406 42.355469 52.085938 42.378906 52.105469 42.398438 C 51.824219 43.722656 51.785156 45.089844 51.882812 46.515625 C 52.246094 51.5625 53.152344 56.503906 54.800781 61.167969 C 52.871094 56.382812 50.71875 51.640625 49.632812 46.617188 C 49.59375 46.417969 49.269531 46.496094 49.3125 46.699219 C 49.933594 50.015625 51.039062 53.148438 52.246094 56.304688 C 52.710938 57.53125 53.128906 58.835938 53.59375 60.140625 C 53.089844 59.257812 52.609375 58.375 52.144531 57.46875 C 50.457031 54.214844 48.589844 50.898438 47.90625 47.242188 C 47.242188 43.765625 47 39.765625 47.382812 36.25 C 47.582031 34.398438 48.226562 32.449219 49.671875 31.222656 C 51.222656 29.917969 53.3125 29.957031 54.878906 31.164062 C 55.121094 31.363281 55.382812 30.960938 55.203125 30.761719 C 53.152344 28.351562 49.554688 29.574219 47.925781 31.828125 C 45.53125 35.121094 46.136719 40.066406 46.378906 43.863281 C 46.519531 46.015625 46.820312 48.164062 47.503906 50.214844 C 48.207031 52.265625 49.230469 54.214844 50.195312 56.144531 C 51.28125 58.3125 52.425781 60.484375 53.714844 62.53125 C 53.632812 62.492188 53.574219 62.472656 53.472656 62.453125 C 53.230469 62.414062 52.96875 62.371094 52.710938 62.371094 C 52.367188 62.351562 51.882812 62.3125 51.582031 62.511719 C 50.257812 61.207031 48.890625 59.960938 47.382812 58.835938 C 43.382812 55.839844 37.351562 53.449219 32.546875 56.0625 C 32.40625 56.144531 32.347656 56.261719 32.347656 56.402344 C 30.074219 58.191406 26.738281 58.65625 25.371094 61.449219 C 24.625 62.976562 24.246094 64.765625 23.640625 66.351562 C 23.078125 67.878906 23.480469 69.003906 24.265625 70.371094 C 24.566406 70.894531 25.390625 70.410156 25.070312 69.886719 C 24.445312 68.84375 24.082031 67.898438 24.484375 66.695312 C 24.6875 66.171875 24.96875 65.648438 25.167969 65.066406 Z M 30.839844 80.820312 C 28.527344 80.117188 27.019531 77.746094 26.195312 75.175781 C 26.175781 75.152344 26.136719 75.152344 26.113281 75.132812 C 25.933594 75.035156 25.953125 74.832031 26.054688 74.710938 C 25.550781 72.964844 25.351562 71.132812 25.410156 69.726562 C 25.472656 68.5625 25.773438 67.476562 26.316406 66.433594 C 27.039062 65.085938 27.441406 63.859375 27.804688 62.371094 C 28.226562 60.605469 28.890625 58.914062 30.738281 58.273438 C 31.019531 58.171875 31.121094 58.59375 30.859375 58.714844 C 28.507812 59.679688 28.667969 62.511719 28.125 64.542969 C 27.804688 65.730469 27.199219 66.695312 26.777344 67.757812 C 32.367188 69.769531 37.953125 71.796875 43.542969 73.828125 C 46.378906 74.851562 49.230469 75.898438 52.066406 76.941406 C 54.78125 77.949219 57.453125 79.070312 60.289062 79.714844 C 60.429688 79.734375 60.367188 79.9375 60.226562 79.917969 C 54.476562 78.832031 48.890625 76.359375 43.402344 74.390625 C 37.792969 72.378906 32.183594 70.371094 26.578125 68.339844 C 26.417969 68.84375 26.316406 69.386719 26.296875 69.96875 C 26.277344 71.675781 26.578125 73.464844 27.242188 75.09375 C 29.210938 76.160156 31.28125 77.042969 33.429688 77.6875 C 35.480469 78.308594 37.59375 78.628906 39.683594 79.09375 C 41.691406 79.554688 43.242188 80.4375 44.96875 81.542969 C 46.941406 82.789062 49.109375 83.695312 51.382812 84.195312 C 51.503906 84.21875 51.464844 84.417969 51.320312 84.398438 C 49.230469 83.976562 47.28125 83.332031 45.410156 82.289062 C 43.28125 81.082031 41.472656 79.976562 39.039062 79.496094 C 35.019531 78.691406 31.242188 77.746094 27.621094 75.9375 C 28.445312 77.605469 29.613281 79.070312 31.179688 80.097656 C 31.542969 80.320312 31.300781 80.960938 30.839844 80.820312 Z M 105.175781 51.421875 C 105.335938 51.742188 105.515625 52.183594 105.757812 52.503906 C 104.511719 53.109375 103.34375 53.832031 102.277344 54.757812 C 100.109375 56.644531 98.417969 58.976562 95.886719 60.363281 C 96.53125 59.359375 97.171875 58.375 97.878906 57.410156 C 99.808594 54.777344 102.441406 52.667969 104.550781 50.175781 C 104.710938 50.617188 104.972656 51.019531 105.175781 51.421875 Z M 106.601562 46.355469 C 104.070312 50.433594 100.046875 53.167969 97.152344 56.945312 C 95.605469 58.957031 94.257812 61.125 92.890625 63.257812 C 91.324219 65.667969 89.472656 68.058594 88.207031 70.613281 C 88.007812 71.035156 88.570312 71.535156 88.890625 71.132812 C 89.273438 70.652344 89.65625 70.167969 89.996094 69.648438 C 90.058594 69.707031 90.179688 69.726562 90.277344 69.648438 C 92.449219 67.839844 95.042969 66.550781 97.132812 64.644531 C 99.285156 62.652344 100.390625 59.738281 102.863281 58.09375 C 103.042969 57.972656 102.882812 57.691406 102.679688 57.789062 C 100.25 59.339844 99.105469 61.949219 97.09375 63.941406 C 95.265625 65.769531 92.652344 66.734375 90.78125 68.503906 C 91.746094 67.015625 92.652344 65.46875 93.59375 64 C 94.179688 63.078125 94.761719 62.152344 95.34375 61.226562 C 95.386719 61.226562 95.425781 61.226562 95.464844 61.226562 C 97.695312 60.503906 99.34375 58.875 100.972656 57.289062 C 103.164062 55.136719 105.375 53.550781 108.308594 52.546875 C 109.515625 52.144531 110.78125 51.660156 112.050781 51.441406 C 113.816406 51.140625 114.320312 52.929688 115.445312 53.832031 C 117.113281 55.199219 119.546875 55.480469 120.953125 57.167969 C 120.832031 57.167969 120.734375 57.167969 120.613281 57.167969 C 119.246094 57.105469 117.9375 56.988281 116.570312 57.1875 C 110.761719 58.011719 106.398438 62.3125 102.941406 66.734375 C 102.800781 66.914062 103.042969 67.195312 103.203125 66.996094 C 105.957031 63.699219 109.175781 60.5625 113.253906 59.035156 C 114.683594 58.496094 116.148438 58.191406 117.65625 58.132812 C 116.007812 59.78125 114.402344 61.289062 112.472656 62.675781 C 110.722656 63.941406 108.933594 65.1875 107.425781 66.714844 C 105.695312 68.460938 104.773438 70.570312 103.6875 72.742188 C 102.300781 75.554688 100.210938 77.726562 97.234375 78.832031 C 97.074219 78.890625 97.152344 79.132812 97.292969 79.070312 C 99.464844 78.308594 101.355469 77.042969 102.742188 75.195312 C 104.53125 72.78125 105.253906 69.789062 107.324219 67.539062 C 109.054688 65.648438 111.222656 64.242188 113.296875 62.734375 C 115.0625 61.449219 117.113281 60.019531 118.261719 58.09375 C 118.601562 58.09375 118.945312 58.09375 119.304688 58.132812 C 120.332031 58.210938 121.355469 58.355469 122.378906 58.191406 C 122.78125 58.132812 125.699219 57.46875 125.796875 58.414062 C 125.71875 58.355469 125.597656 58.355469 125.515625 58.453125 C 123.527344 60.765625 121.558594 62.835938 118.945312 64.460938 C 118.761719 64.582031 118.921875 64.84375 119.105469 64.742188 C 121.558594 63.4375 123.929688 61.609375 125.515625 59.296875 C 125.558594 59.640625 126.019531 59.921875 126.300781 59.597656 C 127.265625 58.472656 126.421875 56.964844 125.035156 56.726562 C 124.070312 56.546875 123.066406 56.824219 122.058594 57.027344 C 122.058594 57.027344 122.058594 57.007812 122.039062 57.007812 C 120.773438 54.816406 118.179688 54.574219 116.289062 53.167969 C 115.285156 52.425781 114.902344 50.976562 113.71875 50.476562 C 112.589844 50.015625 111.285156 50.496094 110.179688 50.816406 C 108.953125 51.179688 107.765625 51.582031 106.601562 52.082031 C 106.5 51.660156 106.199219 51.238281 105.957031 50.917969 C 105.65625 50.496094 105.292969 50.054688 104.832031 49.792969 C 105.65625 48.789062 106.378906 47.722656 106.945312 46.515625 C 107.042969 46.335938 106.742188 46.136719 106.601562 46.355469 " fill-opacity="1" fill-rule="nonzero"></path>
  </g>
</svg>
