<?xml version="1.0" encoding="UTF-8"?>
<svg xmlns="http://www.w3.org/2000/svg" xmlns:xlink="http://www.w3.org/1999/xlink" width="200" zoomAndPan="magnify" viewBox="0 0 150 149.999998" height="200" preserveAspectRatio="xMidYMid meet" version="1.0">
  <defs>
    <clipPath id="2d12b28ae3">
      <path d="M 30.328125 29.328125 L 119.578125 29.328125 L 119.578125 120.828125 L 30.328125 120.828125 Z M 30.328125 29.328125 " clip-rule="nonzero"></path>
    </clipPath>
  </defs>
  <g clip-path="url(#2d12b28ae3)">
    <path fill="#000000" d="M 119.554688 53.136719 C 119.539062 52.082031 119.574219 51.019531 119.433594 49.980469 C 119.226562 48.457031 118.859375 46.960938 118.90625 45.402344 C 118.945312 44.152344 118.558594 43.023438 117.890625 41.96875 C 116.953125 40.484375 115.554688 40.085938 113.925781 40.15625 C 112.988281 40.613281 111.921875 40.671875 110.964844 41.097656 C 109.636719 41.6875 108.441406 42.445312 107.445312 43.511719 C 107.144531 43.832031 106.867188 44.195312 106.421875 44.34375 C 106.21875 44.042969 106.304688 43.703125 106.304688 43.378906 C 106.292969 41.328125 106.324219 39.273438 106.277344 37.21875 C 106.230469 35.253906 105.59375 33.4375 104.574219 31.769531 C 103.628906 30.234375 102.1875 29.5 100.433594 29.433594 C 97.601562 29.328125 96.027344 29.464844 93.234375 30.175781 C 90.90625 30.769531 88.519531 31.148438 86.378906 32.398438 C 84.925781 33.242188 82.847656 34.378906 81.839844 36.425781 C 81.367188 35.515625 80.574219 35.054688 79.710938 34.667969 C 79.265625 34.464844 78.878906 34.132812 78.332031 33.773438 C 77.746094 33.773438 76.984375 33.925781 76.324219 33.734375 C 75.519531 33.5 74.804688 33.691406 74.09375 33.882812 C 73.5 34.042969 72.882812 34.03125 72.320312 34.195312 C 70.90625 34.609375 69.507812 34.453125 68.097656 34.292969 C 67.613281 34.234375 67.128906 34.226562 66.648438 34.164062 C 66.070312 34.085938 65.605469 34.472656 65.046875 34.511719 C 64.613281 34.542969 64.195312 34.710938 63.765625 34.78125 C 62.785156 34.929688 61.832031 35.183594 60.910156 35.542969 C 60.300781 35.789062 59.699219 36.066406 59.035156 36.136719 C 58.867188 36.144531 58.710938 36.1875 58.566406 36.273438 C 57.234375 37.183594 55.925781 38.140625 55.375 39.746094 C 55.066406 40.648438 54.609375 41.453125 54.09375 42.234375 C 53.789062 42.695312 53.582031 43.195312 53.335938 43.683594 C 52.796875 44.769531 52.339844 45.894531 51.648438 46.910156 C 51.25 47.496094 51 48.1875 50.648438 48.816406 C 50.53125 49.023438 50.90625 49.269531 50.613281 49.371094 C 50.054688 49.570312 49.949219 50.023438 49.78125 50.511719 C 49.199219 52.222656 48.746094 53.972656 48.421875 55.753906 C 48.199219 56.910156 47.992188 58.023438 48.351562 59.175781 C 48.433594 59.445312 48.222656 59.617188 48.03125 59.652344 C 47.175781 59.816406 46.3125 59.988281 45.441406 60.066406 C 44.289062 60.164062 43.171875 60.492188 42.007812 60.5 C 41.523438 60.5 41.039062 60.761719 40.558594 60.753906 C 40.109375 60.746094 39.726562 61.195312 39.296875 60.949219 C 38.765625 60.644531 38.347656 61.070312 37.863281 61.082031 C 36.40625 61.113281 35.089844 61.683594 33.800781 62.308594 C 33.507812 62.460938 33.234375 62.640625 32.980469 62.855469 C 30.84375 64.613281 30.328125 66.945312 30.644531 69.566406 C 31.035156 70.59375 31.15625 71.707031 31.667969 72.699219 C 31.800781 72.9375 31.882812 73.199219 31.914062 73.472656 C 31.96875 74.378906 32.335938 75.175781 32.71875 75.972656 C 33.621094 77.824219 34.796875 79.480469 36.242188 80.945312 C 36.398438 81.101562 36.566406 81.246094 36.503906 81.433594 C 35.882812 81.984375 35.34375 82.550781 34.71875 82.992188 C 34.066406 83.453125 33.703125 84.152344 33.132812 84.65625 C 32.695312 85.035156 32.476562 85.542969 32.277344 86.054688 C 32 86.777344 32.003906 87.582031 31.765625 88.296875 C 31.507812 89.078125 31.851562 89.714844 31.976562 90.390625 C 32.105469 91.121094 32.628906 91.648438 33.292969 92.003906 C 33.441406 92.082031 33.558594 92.238281 33.707031 92.273438 C 35.039062 92.597656 36.289062 93.179688 37.652344 93.371094 C 38.519531 93.492188 39.386719 93.605469 40.253906 93.734375 C 40.472656 93.769531 40.679688 93.835938 40.875 93.9375 C 42.300781 94.660156 43.800781 95.214844 45.09375 96.179688 C 45.320312 96.347656 45.566406 96.464844 45.832031 96.535156 C 47.574219 97 49.15625 97.925781 50.984375 98.199219 C 52.503906 98.425781 53.988281 98.808594 55.542969 98.710938 C 56.039062 98.679688 56.539062 98.683594 57.035156 98.695312 C 58.253906 98.722656 59.445312 98.472656 60.625 98.257812 C 62.179688 97.96875 63.6875 97.445312 65.214844 97.019531 C 65.480469 96.945312 65.726562 96.804688 65.988281 96.746094 C 67.277344 96.449219 68.511719 96 69.6875 95.402344 C 70.714844 94.890625 71.785156 94.417969 72.886719 94.121094 C 74.285156 93.753906 75.703125 93.613281 77.144531 93.699219 C 78.347656 93.773438 79.5625 93.75 80.730469 93.375 C 81.976562 92.972656 83.261719 92.65625 84.253906 91.699219 C 84.636719 91.3125 85.058594 90.984375 85.527344 90.710938 C 86 90.445312 86.539062 90.300781 87.054688 90.113281 C 87.347656 90.003906 87.648438 89.914062 87.957031 89.8125 C 88.074219 89.957031 88.207031 90.070312 88.273438 90.214844 C 89.109375 92.070312 89.820312 93.980469 90.65625 95.835938 C 91.246094 97.136719 91.730469 98.488281 92.203125 99.835938 C 92.605469 100.972656 92.933594 102.132812 93.28125 103.289062 C 93.625 104.445312 94.066406 105.59375 94.246094 106.78125 C 94.4375 108.03125 94.832031 109.230469 95.03125 110.476562 C 95.234375 111.726562 95.652344 112.921875 95.726562 114.191406 C 96.382812 116.289062 96.660156 118.460938 97.132812 120.585938 C 97.523438 120.832031 97.925781 120.785156 98.222656 120.527344 C 98.738281 120.074219 99.089844 119.46875 98.917969 118.765625 C 98.339844 116.367188 97.875 113.941406 97.105469 111.585938 C 96.644531 110.179688 96.277344 108.75 96.003906 107.292969 C 95.714844 105.726562 95.125 104.234375 94.917969 102.652344 C 94.222656 101.273438 93.96875 99.738281 93.386719 98.308594 C 92.265625 95.558594 91.316406 92.742188 90.175781 90 C 90.007812 89.597656 89.859375 89.183594 89.707031 88.773438 C 89.605469 88.488281 89.773438 88.121094 90.03125 88.132812 C 90.777344 88.171875 91.425781 87.882812 92.078125 87.578125 C 92.730469 87.273438 93.359375 86.910156 94.042969 86.753906 C 94.925781 86.550781 95.675781 86.082031 96.433594 85.660156 C 97.390625 85.128906 98.277344 84.460938 98.855469 83.460938 C 99.128906 82.984375 99.460938 82.507812 99.875 82.164062 C 100.761719 81.429688 101.6875 80.742188 102.652344 80.113281 C 103.804688 79.367188 104.921875 78.566406 106.152344 77.9375 C 106.734375 77.640625 107.242188 77.1875 107.769531 76.78125 C 108.679688 76.070312 109.585938 75.347656 110.476562 74.613281 C 110.734375 74.402344 111.003906 74.175781 111.164062 73.898438 C 111.398438 73.519531 111.679688 73.183594 112.011719 72.886719 C 112.605469 72.300781 113.125 71.660156 113.574219 70.960938 C 114.839844 69.085938 116.113281 67.222656 117.390625 65.363281 C 117.597656 65.039062 117.761719 64.691406 117.878906 64.320312 C 118.214844 63.394531 118.539062 62.460938 118.84375 61.519531 C 119.082031 60.785156 119.257812 60.035156 119.246094 59.25 C 119.234375 58.75 119.148438 58.210938 119.304688 57.761719 C 119.566406 57 119.507812 56.238281 119.53125 55.464844 C 119.554688 54.695312 119.570312 53.910156 119.554688 53.136719 Z M 105.847656 58.070312 C 105.597656 60.167969 105.5625 62.324219 104.75 64.425781 C 104.703125 64.179688 104.632812 64.015625 104.648438 63.859375 C 104.769531 62.769531 104.839844 61.664062 105.078125 60.597656 C 105.179688 60.117188 105.234375 59.628906 105.242188 59.136719 C 105.277344 58.035156 105.117188 56.921875 105.527344 55.847656 C 105.609375 55.628906 105.609375 55.414062 105.527344 55.195312 C 105.242188 54.589844 105.539062 54.015625 105.5625 53.429688 C 105.585938 52.828125 105.621094 52.226562 105.648438 51.621094 C 106.039062 53.761719 106.105469 55.910156 105.847656 58.070312 Z M 82.78125 36.023438 C 82.835938 35.832031 83.042969 35.683594 83.179688 35.515625 L 83.347656 35.671875 C 83.195312 36.128906 83.042969 36.585938 82.894531 37.046875 C 82.828125 37.253906 82.691406 37.46875 82.714844 37.664062 C 82.820312 38.507812 82.351562 39.253906 82.375 40.082031 C 82.402344 40.910156 82.375 41.730469 82.363281 42.558594 C 82.351562 43.152344 82.425781 43.753906 82.285156 44.601562 C 82.15625 44.222656 82.078125 44.097656 82.074219 43.96875 C 82.058594 42.484375 82.054688 41 82.042969 39.515625 C 82.03125 38.296875 82.445312 37.167969 82.78125 36.023438 Z M 54.554688 42.648438 C 55.078125 41.6875 55.734375 40.800781 56.042969 39.730469 C 56.085938 39.566406 56.15625 39.421875 56.261719 39.289062 C 57.066406 38.390625 57.808594 37.417969 58.9375 36.890625 C 59.140625 37.023438 59.09375 37.195312 59 37.320312 C 58.40625 38.109375 57.757812 38.863281 57.210938 39.6875 C 56.574219 40.636719 56.046875 41.664062 55.429688 42.628906 C 54.898438 43.457031 54.300781 44.25 53.734375 45.050781 L 53.488281 44.851562 C 53.84375 44.113281 54.167969 43.363281 54.554688 42.648438 Z M 50.558594 50.886719 C 50.828125 50.019531 51.390625 49.226562 51.964844 48.476562 C 53.269531 46.773438 54.5625 45.058594 55.800781 43.304688 C 56.527344 42.273438 57.128906 41.15625 57.800781 40.082031 C 58.0625 39.664062 58.335938 39.253906 58.628906 38.855469 C 59.882812 37.121094 61.636719 36.140625 63.648438 35.574219 C 64.023438 35.464844 64.402344 35.453125 64.785156 35.542969 C 66.097656 35.890625 67.386719 35.84375 68.6875 35.535156 C 68.886719 35.488281 69.117188 35.578125 69.328125 35.613281 C 69.488281 35.640625 69.671875 35.753906 69.796875 35.710938 C 70.652344 35.386719 71.550781 35.574219 72.417969 35.46875 C 72.90625 35.40625 73.382812 35.226562 73.867188 35.199219 C 74.972656 35.136719 76.078125 35.121094 77.179688 35.121094 C 78.035156 35.121094 78.753906 35.597656 79.5 35.917969 C 80.25 36.234375 80.914062 36.761719 81.632812 37.210938 C 81.214844 39.582031 81.335938 41.945312 81.40625 44.304688 C 81.40625 44.472656 81.378906 44.660156 81.441406 44.800781 C 81.800781 45.585938 81.574219 46.445312 81.78125 47.246094 C 82.03125 48.199219 82.277344 49.15625 82.550781 50.105469 C 83.058594 51.902344 83.464844 53.726562 83.765625 55.570312 C 84.023438 57.078125 84.132812 58.621094 84.636719 60.085938 C 84.722656 60.339844 84.695312 60.636719 84.710938 60.914062 C 84.722656 61.132812 84.65625 61.382812 84.734375 61.574219 C 85.304688 62.96875 85.273438 64.476562 85.5625 65.921875 C 85.648438 66.351562 85.621094 66.800781 85.660156 67.238281 C 85.742188 68.167969 85.605469 69.097656 85.929688 70.03125 C 86.144531 70.660156 85.75 71.316406 85.277344 71.769531 C 85 72.039062 85.089844 72.394531 84.828125 72.699219 C 84.089844 71.867188 84.277344 70.730469 83.847656 69.820312 C 83.277344 70.679688 84.226562 71.496094 83.894531 72.488281 C 83.652344 71.984375 83.480469 71.601562 83.28125 71.234375 C 83.246094 71.167969 83.125 71.148438 83.03125 71.109375 C 82.96875 71.488281 83.0625 71.832031 83.207031 72.195312 C 83.503906 72.960938 83.664062 73.753906 83.695312 74.570312 C 83.757812 75.648438 83.972656 76.722656 84.1875 77.78125 C 84.40625 78.859375 84.359375 79.925781 84.359375 81.082031 C 83.847656 80.78125 84.0625 80.304688 83.78125 80.019531 C 83.558594 79.796875 83.464844 79.453125 83.292969 79.179688 C 83.253906 79.121094 83.148438 79.101562 83.058594 79.074219 C 83.058594 78.925781 83.078125 78.765625 83.027344 78.632812 C 82.753906 77.894531 82.476562 77.152344 82.160156 76.433594 C 82.09375 76.28125 81.886719 76.191406 81.726562 76.085938 C 81.609375 75.347656 81.265625 74.738281 80.691406 74.261719 C 80.773438 75.007812 80.988281 75.683594 81.679688 76.082031 C 81.679688 76.445312 81.714844 76.785156 81.902344 77.125 C 82.234375 77.726562 82.492188 78.363281 82.796875 78.976562 C 82.824219 79.035156 82.921875 79.058594 83.007812 79.089844 C 82.886719 79.636719 83.261719 80.101562 83.355469 80.585938 C 83.070312 80.746094 82.992188 80.566406 82.9375 80.453125 C 82.367188 79.328125 81.6875 78.257812 81.328125 77.023438 C 81.171875 76.5 80.902344 76.007812 80.636719 75.523438 C 80.375 75.070312 80.3125 74.59375 80.445312 74.089844 C 80.371094 74.003906 80.3125 73.914062 80.261719 73.8125 C 80.125 73.394531 79.589844 73.476562 79.40625 73.09375 C 79.105469 72.449219 78.703125 71.839844 78.457031 71.171875 C 77.871094 69.554688 77.011719 68.097656 76.128906 66.636719 C 75.273438 65.222656 74.390625 63.839844 73.453125 62.484375 C 72.800781 61.539062 72.324219 60.472656 71.738281 59.480469 C 71.09375 58.394531 70.417969 57.328125 69.742188 56.265625 C 69.628906 56.085938 69.429688 55.960938 69.28125 55.820312 C 69.074219 55.929688 69.066406 56.105469 69.148438 56.230469 C 70.148438 57.742188 71.058594 59.304688 71.878906 60.921875 C 72.558594 62.234375 73.4375 63.441406 74.21875 64.699219 C 74.511719 65.167969 74.792969 65.636719 75.070312 66.113281 C 75.234375 66.398438 75.328125 66.734375 75.53125 66.984375 C 76.574219 68.292969 77.1875 69.824219 77.875 71.328125 C 78.71875 73.175781 79.640625 74.992188 80.542969 76.8125 C 80.703125 77.101562 80.753906 77.410156 80.699219 77.734375 C 80.375 77.714844 80.402344 77.378906 80.25 77.203125 C 79.996094 76.917969 79.882812 76.453125 79.394531 76.441406 C 79.332031 76.914062 79.660156 77.25 79.847656 77.625 C 80.394531 78.699219 80.980469 79.757812 81.558594 80.820312 C 81.640625 80.972656 81.695312 81.109375 81.609375 81.28125 C 81.242188 81.34375 81.148438 80.910156 80.847656 80.851562 C 80.738281 80.925781 80.699219 81.035156 80.777344 81.144531 C 81.394531 82 81.792969 82.972656 82.25 83.910156 C 82.042969 84.132812 81.824219 84.035156 81.679688 83.867188 C 80.753906 82.785156 79.925781 81.652344 79.304688 80.335938 C 78.304688 78.191406 77.300781 76.039062 75.941406 74.082031 C 75.628906 73.632812 75.398438 73.121094 75.117188 72.648438 C 74.1875 71.082031 73.054688 69.65625 72.003906 68.171875 C 70.042969 65.394531 67.351562 63.738281 64.222656 62.648438 C 63.714844 62.46875 63.210938 62.28125 62.738281 61.976562 C 62.148438 61.59375 61.449219 61.355469 60.765625 61.171875 C 60.386719 61.066406 60.007812 60.933594 59.714844 60.722656 C 58.929688 60.144531 58.015625 60.035156 57.121094 59.804688 C 55.550781 59.402344 53.960938 59.386719 52.363281 59.421875 C 51.859375 59.453125 51.378906 59.371094 50.917969 59.171875 C 50.460938 58.972656 50.203125 58.695312 50.140625 58.207031 C 50.054688 57.5 49.929688 56.796875 49.851562 56.085938 C 49.65625 54.300781 50.03125 52.5625 50.558594 50.886719 Z M 77.957031 83.324219 C 78.402344 83.707031 79.035156 83.867188 79.566406 84.160156 C 79.777344 84.277344 80.03125 84.410156 80.019531 84.71875 C 79.070312 84.621094 78.292969 84.097656 77.519531 83.632812 C 76.476562 82.996094 75.5625 82.207031 74.789062 81.261719 C 74.472656 80.875 74.242188 80.441406 74.09375 79.964844 C 74.011719 79.71875 73.972656 79.425781 74.222656 79.1875 C 74.503906 79.597656 74.792969 79.996094 75.058594 80.410156 C 75.808594 81.597656 76.925781 82.429688 77.957031 83.324219 Z M 76.507812 80.839844 C 76.550781 80.816406 76.601562 80.765625 76.636719 80.773438 C 76.746094 80.789062 76.84375 80.828125 76.929688 80.894531 C 77.6875 81.636719 78.496094 82.3125 79.363281 82.917969 C 78.28125 82.867188 77.695312 82.429688 76.507812 80.839844 Z M 85.414062 87.359375 C 85.488281 87.414062 85.527344 87.523438 85.582031 87.609375 C 85.539062 87.640625 85.480469 87.714844 85.453125 87.703125 C 84.746094 87.417969 83.941406 87.257812 83.367188 86.804688 C 82.441406 86.082031 81.378906 85.640625 80.398438 85.039062 C 80.289062 84.960938 80.195312 84.871094 80.113281 84.769531 C 81.28125 84.769531 82.273438 85.300781 83.238281 85.878906 C 83.984375 86.335938 84.695312 86.859375 85.414062 87.359375 Z M 84.558594 74.691406 C 84.113281 74.113281 83.953125 73.53125 84.179688 72.742188 C 84.246094 72.996094 84.273438 73.136719 84.320312 73.273438 C 84.367188 73.429688 84.421875 73.578125 84.480469 73.730469 C 84.535156 73.878906 84.625 74.027344 84.640625 74.179688 C 84.65625 74.335938 84.59375 74.492188 84.5625 74.695312 Z M 85.324219 74.972656 C 85.308594 74.695312 85.308594 74.421875 85.324219 74.144531 C 85.34375 73.871094 85.332031 73.574219 85.4375 73.328125 C 85.921875 72.171875 86.203125 70.929688 86.859375 69.8125 C 87.144531 70.3125 87.070312 70.800781 86.949219 71.28125 C 86.882812 71.546875 86.78125 71.800781 86.691406 72.058594 C 86.292969 73.191406 85.929688 74.335938 85.617188 75.5 C 85.5625 75.695312 85.367188 75.851562 85.191406 76.085938 C 84.960938 75.546875 85.339844 75.308594 85.324219 74.976562 Z M 81.664062 79.238281 C 80.96875 78.652344 80.925781 78.582031 80.730469 77.765625 C 80.773438 77.757812 80.8125 77.761719 80.851562 77.777344 C 81.382812 78.132812 81.351562 78.769531 81.664062 79.238281 Z M 71.066406 68.410156 C 71.019531 68.410156 70.96875 68.421875 70.941406 68.398438 C 70.550781 68.039062 70.167969 67.667969 69.78125 67.304688 C 69.996094 67.035156 70.1875 67.121094 70.339844 67.273438 C 70.660156 67.597656 71.136719 67.839844 71.066406 68.410156 Z M 71.101562 68.457031 C 71.191406 68.46875 71.273438 68.5 71.351562 68.550781 C 71.914062 69.136719 72.367188 69.792969 72.71875 70.523438 C 72.730469 70.550781 72.667969 70.609375 72.640625 70.65625 C 72.386719 70.699219 72.273438 70.5 72.167969 70.34375 C 71.800781 69.8125 71.453125 69.273438 71.113281 68.722656 C 71.070312 68.660156 71.09375 68.554688 71.101562 68.457031 Z M 48.910156 56.339844 C 49.519531 57.425781 49.375 58.398438 49.710938 59.257812 C 49.71875 59.277344 49.648438 59.359375 49.609375 59.363281 C 49.515625 59.371094 49.351562 59.390625 49.316406 59.339844 C 49.085938 58.976562 48.816406 58.613281 48.824219 58.160156 C 48.832031 57.621094 48.875 57.082031 48.910156 56.339844 Z M 46.570312 60.722656 C 46.59375 60.617188 46.652344 60.546875 46.753906 60.507812 C 49.339844 60.089844 52.117188 59.867188 54.472656 60.167969 C 56.019531 60.367188 57.597656 60.605469 59.039062 61.308594 C 59.070312 61.324219 59.0625 61.414062 59.101562 61.589844 C 58.589844 61.519531 58.082031 61.582031 57.765625 61.367188 C 57.304688 61.054688 56.933594 61.496094 56.507812 61.332031 C 56.125 61.1875 55.679688 61.179688 55.261719 61.148438 C 54.820312 61.117188 54.378906 61.125 53.9375 61.121094 C 53.496094 61.117188 53.054688 61.121094 52.617188 61.121094 C 50.851562 61.121094 49.089844 61.121094 47.324219 61.113281 C 47.105469 61.101562 46.894531 61.058594 46.6875 60.976562 C 46.601562 60.914062 46.5625 60.828125 46.570312 60.722656 Z M 32.027344 70.699219 C 31.988281 70.425781 31.972656 70.152344 31.933594 69.878906 C 31.855469 69.335938 31.84375 68.796875 31.707031 68.246094 C 31.429688 67.152344 31.644531 66.054688 32.09375 65.023438 C 32.226562 64.722656 32.40625 64.449219 32.632812 64.207031 C 33.710938 63.046875 34.996094 62.3125 36.605469 62.058594 C 41.027344 61.359375 41.167969 61.382812 44.308594 61.417969 C 45.128906 61.429688 45.960938 61.351562 46.761719 61.699219 C 47.046875 61.820312 47.414062 61.746094 47.746094 61.75 C 49.570312 61.765625 51.394531 61.753906 53.21875 61.792969 C 54.148438 61.8125 55.097656 61.625 56 62.019531 C 57.167969 61.660156 58.234375 62.210938 59.335938 62.414062 C 60.46875 62.621094 61.589844 62.882812 62.71875 63.089844 C 63.046875 63.132812 63.347656 63.253906 63.621094 63.441406 C 65.085938 64.515625 66.632812 65.492188 68.023438 66.652344 C 69.417969 67.8125 70.644531 69.160156 71.582031 70.761719 C 72.28125 71.945312 73.144531 73.03125 73.929688 74.160156 C 74.128906 74.421875 74.3125 74.695312 74.476562 74.980469 C 75.449219 76.839844 76.523438 78.632812 77.660156 80.390625 C 77.683594 80.425781 77.660156 80.492188 77.660156 80.542969 C 77.460938 80.730469 77.367188 80.511719 77.285156 80.421875 C 75.824219 78.855469 74.40625 77.253906 73.242188 75.441406 C 72.796875 74.746094 72.320312 74.066406 71.847656 73.390625 C 71.632812 73.089844 71.457031 73.085938 70.8125 73.324219 C 71.21875 74.824219 71.71875 76.289062 72.3125 77.722656 C 71.425781 77.78125 70.785156 77.277344 70.058594 77.121094 C 69.332031 76.960938 68.726562 76.3125 67.703125 76.476562 C 68.804688 77.148438 69.769531 77.675781 70.816406 78.035156 C 71.386719 78.226562 71.96875 78.367188 72.535156 78.550781 C 72.601562 78.570312 72.667969 78.734375 72.65625 78.820312 C 72.644531 78.90625 72.535156 79.023438 72.464844 79.023438 C 71.738281 79.046875 71.078125 78.761719 70.390625 78.582031 C 68.527344 78.089844 66.824219 77.207031 65.078125 76.421875 C 64.828125 76.308594 64.585938 76.167969 64.324219 76.097656 C 64.191406 76.0625 64.027344 76.15625 63.738281 76.226562 C 65.09375 76.890625 66.339844 77.476562 67.550781 78.125 C 69.070312 78.9375 70.707031 79.386719 72.375 79.707031 C 72.949219 79.816406 73.273438 80.058594 73.441406 80.578125 C 73.484375 80.710938 73.652344 80.824219 73.472656 81.066406 C 72.394531 81.054688 71.40625 80.175781 69.976562 80.480469 C 71.195312 80.949219 72.171875 81.351562 73.167969 81.691406 C 73.386719 81.765625 73.679688 81.617188 73.972656 81.566406 C 74.425781 82.871094 75.132812 84.015625 76.089844 85.003906 C 75.101562 85.160156 74.234375 85.171875 73.378906 84.914062 C 72.730469 84.726562 72.074219 84.707031 71.414062 84.738281 C 71.316406 84.738281 71.234375 84.84375 71.128906 84.914062 C 72.167969 85.226562 73.222656 85.449219 74.300781 85.582031 C 73.371094 85.8125 72.4375 85.785156 71.523438 85.609375 C 71.144531 85.535156 70.773438 85.425781 70.382812 85.445312 C 68.996094 85.523438 67.628906 85.253906 66.292969 85.011719 C 64.574219 84.703125 62.855469 84.363281 61.15625 83.925781 C 59.238281 83.433594 57.402344 82.722656 55.578125 81.964844 C 54.261719 81.417969 52.933594 80.886719 51.644531 80.277344 C 50.503906 79.738281 49.332031 79.246094 48.3125 78.46875 C 47.476562 77.824219 46.433594 77.582031 45.511719 77.109375 C 45.453125 77.078125 45.328125 77.179688 45.234375 77.222656 C 45.300781 77.308594 45.351562 77.421875 45.4375 77.476562 C 46.996094 78.398438 48.542969 79.351562 50.136719 80.21875 C 52.363281 81.429688 54.738281 82.304688 57.089844 83.234375 C 59.289062 84.101562 61.566406 84.683594 63.847656 85.265625 C 64.59375 85.453125 65.398438 85.304688 66.105469 85.679688 C 67.375 85.671875 68.59375 86.109375 69.867188 86.09375 C 70.46875 86.089844 71.078125 86.035156 71.652344 86.351562 C 71.8125 86.441406 72.105469 86.398438 72.285156 86.308594 C 72.722656 86.09375 72.96875 86.390625 73.375 86.667969 C 71.722656 86.773438 70.179688 86.753906 68.640625 86.707031 C 68.425781 86.699219 68.222656 86.570312 68.007812 86.53125 C 67.738281 86.472656 67.464844 86.449219 67.191406 86.453125 C 65.585938 86.542969 64.128906 86.355469 62.527344 86.152344 C 61.207031 85.984375 59.988281 85.488281 58.707031 85.210938 C 58.328125 85.128906 57.972656 85.011719 57.542969 85.21875 C 59.214844 85.867188 60.921875 86.375 62.671875 86.746094 C 63.476562 86.921875 64.28125 87.09375 65.109375 87.085938 C 65.21875 87.074219 65.332031 87.078125 65.4375 87.101562 C 66.832031 87.546875 68.269531 87.394531 69.695312 87.433594 C 69.792969 87.433594 69.890625 87.511719 70.117188 87.605469 C 68.210938 87.863281 66.410156 87.621094 64.617188 87.746094 C 64.613281 88.136719 64.882812 88.023438 65.027344 88.039062 C 65.46875 88.082031 65.910156 88.070312 66.351562 88.101562 C 66.890625 88.140625 67.417969 88.09375 67.972656 88.285156 C 68.441406 88.449219 69.003906 87.957031 69.554688 88.175781 C 68.269531 89.097656 68.121094 89.167969 66.46875 89.558594 C 66.453125 90.101562 66.808594 90.414062 67.261719 90.394531 C 68.007812 90.371094 68.625 90.707031 69.410156 90.957031 C 67.867188 91.148438 66.429688 91.097656 65.003906 91.023438 C 64.367188 90.988281 63.734375 90.726562 63.109375 90.53125 C 62.78125 90.429688 62.472656 90.351562 62.160156 90.542969 C 61.695312 90.835938 61.167969 90.769531 60.710938 90.640625 C 59.34375 90.257812 57.9375 89.992188 56.652344 89.347656 C 56.347656 89.199219 56.058594 89.070312 55.714844 89.078125 C 55.15625 89.085938 54.636719 88.886719 54.097656 88.777344 C 53.191406 88.589844 52.304688 88.246094 51.34375 88.347656 C 51.144531 88.371094 50.933594 88.195312 50.71875 88.171875 C 49.792969 88.078125 48.925781 87.671875 47.964844 87.710938 C 47.492188 87.730469 46.996094 87.539062 46.527344 87.390625 C 43.816406 86.53125 43.816406 86.53125 41.820312 84.554688 C 41.074219 83.8125 40.386719 83.015625 39.621094 82.292969 C 38.894531 81.609375 38.542969 80.632812 37.761719 80 C 36.882812 78.457031 35.554688 77.257812 34.511719 75.847656 C 33.367188 74.296875 32.316406 72.675781 32.027344 70.699219 Z M 75.488281 87.648438 C 76.390625 87.355469 77.300781 87.398438 78.203125 87.507812 C 78.460938 87.539062 78.703125 87.714844 78.949219 87.835938 C 79.195312 87.960938 79.363281 88.253906 79.253906 88.304688 C 79.105469 88.355469 78.949219 88.382812 78.792969 88.382812 C 78.738281 88.386719 78.683594 88.378906 78.628906 88.359375 C 78.121094 88.171875 77.628906 87.914062 77.105469 87.789062 C 76.582031 87.664062 76.023438 87.691406 75.488281 87.648438 Z M 76.25 88.496094 C 75.679688 88.804688 75.105469 88.675781 74.53125 88.496094 Z M 75.300781 86.027344 C 75.144531 86.023438 74.992188 85.964844 74.707031 85.902344 C 74.992188 85.839844 75.15625 85.765625 75.304688 85.785156 C 75.734375 85.84375 76.179688 85.648438 76.898438 86.03125 C 76.152344 86.03125 75.71875 86.042969 75.289062 86.027344 Z M 34.347656 77.617188 C 34.171875 77.3125 33.851562 77.015625 34.050781 76.324219 C 35.085938 77.863281 36.402344 78.960938 37.199219 80.46875 C 37.214844 80.496094 37.171875 80.5625 37.152344 80.605469 C 36.96875 80.742188 36.867188 80.582031 36.765625 80.484375 C 35.867188 79.609375 34.984375 78.707031 34.347656 77.617188 Z M 50.019531 97.296875 C 48.398438 96.691406 46.730469 96.203125 45.191406 95.382812 C 45.105469 95.320312 45.027344 95.246094 44.957031 95.164062 C 45.832031 94.878906 46.355469 95.71875 47.105469 95.761719 C 47.875 95.804688 48.558594 96.171875 49.265625 96.4375 L 51.484375 97.257812 C 51.003906 97.46875 50.515625 97.480469 50.023438 97.296875 Z M 68.617188 94.9375 C 67.695312 95.285156 66.773438 95.660156 65.84375 95.957031 C 64.335938 96.441406 62.792969 96.816406 61.277344 97.292969 C 60.917969 97.402344 60.511719 97.359375 60.128906 97.40625 C 59.535156 97.480469 58.910156 97.324219 58.335938 97.605469 C 58.242188 97.652344 58.097656 97.695312 58.019531 97.65625 C 57.09375 97.179688 56.066406 97.53125 55.09375 97.253906 C 54.15625 96.984375 53.148438 96.941406 52.195312 96.683594 C 51.722656 96.542969 51.257812 96.378906 50.800781 96.191406 C 49.625 95.738281 48.46875 95.222656 47.207031 95.042969 C 45.148438 94.136719 42.910156 93.785156 40.804688 93.03125 C 38.945312 92.367188 37.023438 91.941406 35.125 91.417969 C 34.582031 91.265625 34.082031 91.074219 33.667969 90.6875 C 33.308594 90.347656 32.96875 89.984375 32.582031 89.59375 C 32.515625 88.675781 32.480469 87.90625 32.675781 87.140625 C 32.882812 86.386719 33.242188 85.714844 33.761719 85.125 C 34.519531 84.25 35.375 83.457031 36.210938 82.648438 C 36.492188 82.371094 36.832031 82.195312 37.222656 82.125 C 37.574219 82.191406 37.753906 82.488281 37.976562 82.726562 C 38.996094 83.816406 40.066406 84.847656 41.332031 85.660156 C 42.347656 86.316406 43.324219 87.027344 44.3125 87.726562 C 45.265625 88.410156 46.328125 88.824219 47.464844 89.085938 C 49.277344 89.507812 51.09375 89.898438 52.941406 90.109375 C 53.207031 90.140625 53.453125 90.308594 53.71875 90.367188 C 54.414062 90.511719 55.085938 90.769531 55.816406 90.761719 C 56.140625 90.753906 56.464844 90.835938 56.789062 90.902344 C 57.804688 91.109375 58.832031 91.296875 59.800781 91.695312 C 60.859375 91.617188 61.859375 92.007812 62.898438 92.101562 C 63.117188 92.121094 63.328125 92.179688 63.527344 92.273438 C 63.695312 92.355469 63.941406 92.359375 64.011719 92.675781 L 62.324219 92.839844 C 63.210938 93.316406 64.003906 92.859375 64.726562 93.207031 C 63.898438 93.457031 63.117188 93.660156 62.359375 93.929688 C 62.082031 94.027344 61.824219 94.007812 61.554688 94.039062 C 60.851562 94.109375 60.136719 93.992188 59.449219 94.339844 C 59.136719 94.496094 58.691406 94.402344 58.304688 94.40625 C 56.8125 94.414062 55.320312 94.414062 53.828125 94.425781 C 53.519531 94.429688 53.222656 94.480469 52.929688 94.578125 C 54.804688 94.722656 56.675781 94.746094 58.550781 94.699219 C 59.148438 94.6875 59.773438 94.824219 60.328125 94.457031 C 61.882812 94.527344 63.363281 94.109375 64.84375 93.722656 C 64.988281 93.6875 65.183594 93.640625 65.335938 93.894531 C 64.652344 94.394531 63.835938 94.582031 63.015625 94.71875 C 62.632812 94.78125 62.242188 94.765625 61.855469 94.777344 C 61.535156 94.789062 61.390625 95.027344 61.152344 95.292969 C 62.101562 95.199219 63.011719 95.203125 63.875 95.007812 C 64.773438 94.804688 65.628906 94.417969 66.480469 94.113281 L 67.160156 94.5625 C 67.636719 94.511719 68.0625 94.453125 68.488281 94.429688 C 68.757812 94.414062 69.042969 94.347656 69.3125 94.542969 C 69.082031 94.6875 68.863281 94.847656 68.621094 94.9375 Z M 77.171875 92.914062 C 76.699219 92.664062 76.210938 92.714844 75.71875 92.710938 C 75.230469 92.710938 74.726562 92.765625 74.234375 92.742188 C 72.738281 92.664062 71.296875 92.941406 69.863281 93.328125 C 69.535156 93.433594 69.214844 93.414062 68.894531 93.277344 C 68.921875 93.039062 69.085938 92.898438 69.277344 92.816406 C 71.035156 92.066406 72.886719 91.996094 74.761719 92.089844 C 75.261719 92.113281 75.65625 92.480469 76.183594 92.429688 C 76.660156 92.386719 77.152344 92.464844 77.652344 92.492188 C 77.558594 92.78125 77.371094 93.011719 77.175781 92.914062 Z M 71.449219 90.503906 C 72.28125 90.347656 73.027344 90.261719 73.730469 90.886719 C 73.269531 91.144531 72.925781 91.03125 72.582031 90.839844 C 72.253906 90.652344 71.820312 90.867188 71.449219 90.503906 Z M 79.683594 91.6875 C 79.421875 91.75 79.132812 91.675781 78.859375 91.707031 C 77.996094 91.816406 77.261719 91.542969 76.539062 91.070312 C 75.132812 90.148438 73.5625 89.714844 71.878906 89.703125 C 71.335938 89.703125 70.792969 89.703125 70.253906 89.703125 C 70.261719 89.625 70.273438 89.546875 70.28125 89.46875 C 70.992188 89.445312 71.707031 89.4375 72.414062 89.390625 C 72.992188 89.351562 73.523438 89.105469 74.160156 89.300781 C 74.71875 89.476562 75.363281 89.367188 75.964844 89.386719 C 76.566406 89.402344 77.199219 89.320312 77.777344 89.457031 C 78.832031 89.707031 79.949219 89.726562 80.914062 90.347656 C 81.316406 90.609375 81.820312 90.707031 82.285156 90.878906 C 81.542969 91.558594 80.566406 91.46875 79.683594 91.6875 Z M 84.546875 88.980469 C 83.523438 88.597656 82.4375 88.398438 81.488281 87.8125 C 80.84375 87.414062 80.015625 87.363281 79.453125 86.789062 C 78.699219 86.738281 78.363281 86.089844 77.871094 85.671875 C 77.410156 85.28125 76.976562 84.851562 76.742188 84.027344 C 77.054688 84.140625 77.207031 84.175781 77.339844 84.25 C 77.8125 84.523438 78.253906 84.890625 78.757812 85.070312 C 80.222656 85.589844 81.488281 86.453125 82.800781 87.238281 C 83.371094 87.570312 83.960938 87.851562 84.578125 88.085938 C 85.007812 88.253906 85.355469 88.472656 85.597656 88.894531 C 85.261719 89.15625 84.875 89.101562 84.546875 88.980469 Z M 86.515625 85.988281 C 86.316406 85.511719 85.847656 85.113281 86.105469 84.507812 C 86.671875 85.324219 86.664062 85.328125 86.515625 85.988281 Z M 88.074219 88.324219 C 88.058594 87.050781 87.609375 85.941406 87.03125 84.867188 C 86.375 83.648438 86.097656 82.296875 85.730469 80.972656 C 85.640625 80.65625 85.589844 80.328125 85.5 80.011719 C 85.257812 79.191406 85.257812 78.390625 85.585938 77.582031 C 85.855469 76.921875 86.0625 76.238281 86.273438 75.558594 C 86.484375 74.878906 86.652344 74.210938 86.839844 73.539062 C 87.105469 73.585938 87.25 73.742188 87.277344 74.011719 C 87.3125 74.453125 87.324219 74.898438 87.3125 75.339844 C 87.269531 77.136719 87.808594 78.808594 88.367188 80.484375 C 88.683594 81.417969 89.015625 82.351562 89.042969 83.359375 C 89.054688 83.855469 89.097656 84.347656 89.175781 84.835938 C 89.261719 85.351562 89.050781 85.90625 89.03125 86.445312 C 89.007812 87.074219 88.800781 87.628906 88.40625 88.113281 C 88.34375 88.191406 88.234375 88.226562 88.074219 88.324219 Z M 88.789062 89.269531 C 89.375 89.597656 89.558594 89.992188 89.578125 91.164062 C 89.296875 90.382812 88.796875 89.945312 88.785156 89.269531 Z M 88.703125 76.984375 C 88.28125 75.625 87.929688 74.222656 87.976562 72.773438 C 88.019531 71.5625 87.953125 70.339844 88.335938 69.160156 C 88.417969 68.90625 88.347656 68.609375 88.347656 68.339844 C 87.378906 68.023438 87.378906 68.023438 86.46875 68.625 C 86.28125 68.195312 86.414062 67.746094 86.375 67.3125 C 86.308594 66.542969 86.460938 65.757812 86.171875 65.007812 C 85.917969 64.335938 86.089844 63.601562 85.8125 62.898438 C 85.53125 62.199219 85.617188 61.386719 85.417969 60.632812 C 85.1875 59.730469 85.246094 58.75 84.960938 57.871094 C 84.664062 56.964844 84.75 56.019531 84.453125 55.113281 C 84.203125 54.351562 84.285156 53.496094 84.113281 52.671875 C 83.855469 51.441406 83.820312 50.160156 83.667969 48.902344 C 83.601562 48.359375 83.46875 47.828125 83.402344 47.285156 C 83.332031 46.742188 83.359375 46.191406 83.164062 45.652344 C 83.035156 45.304688 83.050781 44.890625 83.046875 44.511719 C 83.027344 43.125 83.050781 41.738281 83.007812 40.351562 C 82.972656 39.289062 83.257812 38.277344 83.410156 37.25 C 83.519531 36.535156 83.921875 35.890625 84.355469 35.332031 C 85.210938 34.242188 86.21875 33.269531 87.46875 32.644531 C 88.214844 32.292969 88.992188 32.03125 89.800781 31.863281 C 90.65625 31.671875 91.550781 31.675781 92.402344 31.480469 C 93.808594 31.15625 95.234375 31.15625 96.664062 31.09375 C 97.203125 31.074219 97.742188 30.929688 98.269531 30.792969 C 98.785156 30.664062 99.285156 30.5 99.808594 30.730469 C 100.507812 30.460938 101.191406 30.753906 101.878906 30.796875 C 102.503906 30.835938 102.945312 31.15625 103.378906 31.65625 C 104.199219 32.59375 104.792969 33.597656 105.105469 34.808594 C 105.230469 35.347656 105.289062 35.894531 105.289062 36.449219 C 105.316406 37.835938 105.292969 39.222656 105.320312 40.609375 C 105.332031 41.320312 105.21875 42.035156 105.515625 42.738281 C 105.65625 43.070312 105.621094 43.527344 105.523438 43.886719 C 105.238281 44.972656 105.214844 46.0625 105.453125 47.160156 C 105.476562 47.265625 105.472656 47.367188 105.441406 47.46875 C 105.203125 48.109375 105.3125 48.78125 105.269531 49.441406 C 105.214844 50.265625 105.230469 51.078125 105.03125 51.902344 C 104.839844 52.695312 104.953125 53.558594 104.917969 54.386719 C 104.890625 55.046875 104.921875 55.695312 104.714844 56.355469 C 104.539062 56.917969 104.609375 57.5625 104.589844 58.171875 C 104.5625 59.050781 104.6875 59.941406 104.339844 60.796875 C 104.257812 60.992188 104.28125 61.238281 104.292969 61.457031 C 104.359375 62.628906 104.058594 63.761719 103.886719 64.898438 C 103.722656 66 103.363281 67.03125 102.804688 67.992188 C 102.5 67.800781 102.648438 67.53125 102.710938 67.3125 C 102.871094 66.789062 103.105469 66.285156 103.238281 65.757812 C 103.304688 65.511719 103.210938 65.222656 103.179688 64.953125 C 103.160156 64.898438 103.125 64.867188 103.066406 64.855469 C 102.964844 64.855469 102.804688 64.855469 102.769531 64.910156 C 102.597656 65.1875 102.449219 65.480469 102.324219 65.785156 C 101.828125 67.066406 101.394531 68.375 100.839844 69.628906 C 100.460938 70.480469 99.957031 71.28125 99.445312 72.0625 C 99.0625 72.648438 98.578125 73.167969 98.070312 73.796875 C 98.027344 73.523438 97.957031 73.355469 97.992188 73.214844 C 98.070312 72.894531 98.207031 72.59375 98.316406 72.28125 C 98.742188 71.078125 99.054688 69.863281 98.96875 68.558594 C 98.933594 68.019531 98.9375 67.460938 99.191406 66.933594 C 99.300781 66.699219 99.257812 66.390625 99.265625 66.113281 C 99.28125 65.671875 99.265625 65.226562 99.296875 64.78125 C 99.355469 63.851562 99.191406 62.898438 99.582031 62.003906 C 99.5625 60.566406 99.546875 59.128906 99.527344 57.6875 C 99.527344 57.640625 99.476562 57.59375 99.445312 57.550781 C 99.1875 57.894531 99.296875 58.292969 99.28125 58.671875 C 99.242188 59.605469 99.398438 60.550781 99.035156 61.460938 C 98.960938 61.648438 99.015625 61.898438 99.007812 62.121094 C 98.984375 63.117188 99.066406 64.132812 98.90625 65.109375 C 98.746094 66.085938 98.691406 67.074219 98.597656 68.0625 C 98.519531 68.875 98.265625 69.671875 98.144531 70.484375 C 97.949219 71.816406 97.425781 73.011719 96.660156 74.109375 C 96.527344 74.285156 96.417969 74.476562 96.328125 74.679688 C 96.210938 74.980469 96.296875 75.390625 95.949219 75.558594 C 95.410156 75.820312 95.03125 76.378906 94.375 76.417969 C 94.304688 76.410156 94.234375 76.390625 94.167969 76.367188 C 94.207031 76.019531 94.273438 75.664062 94.285156 75.308594 C 94.296875 74.933594 94.429688 74.535156 94.144531 74.144531 C 94.039062 74.464844 93.945312 74.753906 93.816406 75.148438 C 93.511719 74.535156 93.589844 73.984375 93.765625 73.5 C 93.882812 73.179688 93.691406 73.015625 93.632812 72.789062 C 93.554688 72.789062 93.484375 72.816406 93.429688 72.875 C 93.375 72.933594 93.347656 73 93.347656 73.082031 C 93.382812 73.972656 93.136719 74.800781 92.816406 75.703125 C 92.621094 75.320312 92.710938 74.960938 92.703125 74.625 C 92.691406 74.289062 92.667969 73.949219 92.742188 73.632812 C 93.109375 72.140625 93.105469 70.578125 93.613281 69.113281 C 93.542969 67.839844 93.992188 66.621094 93.953125 65.339844 C 93.890625 63.457031 93.953125 61.570312 94.007812 59.683594 C 94.066406 57.597656 93.613281 55.558594 93.453125 53.492188 C 93.433594 53.234375 93.359375 52.964844 93.332031 52.691406 C 93.257812 51.871094 93.417969 51.039062 93.042969 50.238281 C 92.894531 49.914062 93.003906 49.476562 92.996094 49.085938 C 92.96875 48.148438 92.945312 47.214844 92.917969 46.210938 C 92.582031 46.460938 92.664062 46.738281 92.664062 46.972656 C 92.65625 48.027344 92.667969 49.082031 92.695312 50.136719 C 92.714844 51.011719 93.015625 51.851562 92.992188 52.75 C 92.957031 53.582031 93.035156 54.402344 93.222656 55.210938 C 93.425781 56 93.308594 56.867188 93.363281 57.695312 C 93.445312 58.902344 93.191406 60.121094 93.546875 61.328125 C 93.640625 61.652344 93.390625 62.066406 93.367188 62.441406 C 93.320312 63.273438 93.253906 64.109375 93.3125 64.9375 C 93.414062 66.386719 93.003906 67.785156 92.957031 69.21875 C 92.941406 69.730469 92.503906 70.109375 92.578125 70.644531 C 92.355469 69.992188 92.179688 68.855469 92.410156 68.347656 C 92.6875 67.746094 92.582031 67.148438 92.617188 66.554688 C 92.742188 64.34375 92.664062 62.136719 92.605469 59.898438 C 92.226562 59.984375 92.320312 60.226562 92.320312 60.394531 C 92.300781 62.003906 92.328125 63.609375 92.277344 65.21875 C 92.238281 66.316406 92.015625 67.40625 92.023438 68.503906 C 92.035156 70.167969 91.800781 71.808594 91.597656 73.445312 C 91.476562 74.402344 91.371094 75.378906 91.082031 76.335938 L 90.890625 75.21875 C 90.589844 75.332031 90.640625 75.570312 90.65625 75.75 C 90.75 77.035156 90.394531 78.265625 90.25 79.523438 C 90.222656 79.734375 90.085938 79.933594 89.773438 80.042969 C 89.511719 78.976562 89.019531 78 88.703125 76.980469 Z M 99.164062 79.375 C 98.6875 80.09375 98.207031 80.808594 97.722656 81.519531 C 97.675781 81.582031 97.546875 81.59375 97.453125 81.625 C 97.433594 81.527344 97.355469 81.386719 97.394531 81.332031 C 97.699219 80.898438 97.511719 80.371094 97.691406 79.886719 C 98.238281 79.683594 98.65625 79.257812 99.097656 78.871094 C 99.382812 79.015625 99.273438 79.203125 99.164062 79.371094 Z M 90.316406 85.976562 C 90.277344 86.265625 90.097656 86.464844 89.835938 86.6875 C 89.613281 86.210938 89.988281 85.980469 89.980469 85.652344 C 89.972656 85.386719 90.011719 85.125 90.039062 84.699219 C 90.328125 85.417969 90.363281 85.609375 90.316406 85.96875 Z M 90.734375 81.390625 C 91.152344 80.589844 91.351562 79.644531 92.488281 78.898438 C 91.980469 80.273438 91.253906 81.058594 90.847656 82.050781 C 90.613281 81.804688 90.640625 81.558594 90.734375 81.382812 Z M 95.269531 83.191406 C 95.183594 83.554688 94.933594 83.878906 94.742188 84.214844 C 93.949219 85.617188 92.804688 86.59375 91.253906 87.054688 C 91.050781 87.140625 90.886719 87.09375 90.761719 86.910156 C 91.171875 85.65625 91.523438 84.335938 92.039062 83.085938 C 92.527344 81.855469 93.136719 80.6875 93.871094 79.585938 C 94.109375 79.214844 94.382812 78.878906 94.695312 78.566406 C 95.773438 77.546875 96.808594 76.480469 97.707031 75.289062 C 97.730469 75.253906 97.800781 75.21875 97.824219 75.230469 C 97.871094 75.253906 97.894531 75.3125 97.949219 75.382812 C 97.109375 76.96875 96.546875 78.6875 95.867188 80.359375 C 95.664062 80.859375 95.425781 81.417969 95.46875 81.929688 C 95.503906 82.390625 95.363281 82.78125 95.269531 83.1875 Z M 99.28125 81.027344 C 98.871094 81.914062 98.589844 82.910156 97.871094 83.585938 C 97.296875 84.132812 96.726562 84.75 95.925781 85.011719 C 95.890625 85.019531 95.835938 84.960938 95.761719 84.914062 C 96.988281 83.527344 98.027344 82.003906 99.253906 80.214844 C 99.277344 80.71875 99.339844 80.898438 99.28125 81.023438 Z M 99.761719 74.679688 C 99.722656 74.726562 99.570312 74.675781 99.433594 74.664062 C 100.085938 72.800781 101.207031 71.203125 102.125 69.457031 C 102.191406 69.609375 102.28125 69.714844 102.265625 69.808594 C 101.988281 71.714844 100.984375 73.257812 99.761719 74.675781 Z M 110.230469 73.851562 C 109.34375 74.5 108.574219 75.277344 107.761719 76.007812 C 107.445312 76.292969 107.050781 76.496094 106.679688 76.71875 C 106.613281 76.757812 106.480469 76.695312 106.386719 76.664062 C 106.273438 76.625 106.289062 76.316406 106.421875 76.242188 C 106.910156 75.976562 107.246094 75.527344 107.675781 75.203125 C 108.550781 74.542969 109.359375 73.820312 110.167969 73.089844 C 110.445312 72.839844 110.789062 72.667969 111.351562 72.296875 C 111.105469 73.1875 110.652344 73.542969 110.230469 73.84375 Z M 118.246094 52.285156 C 118.246094 53.78125 118.234375 55.28125 118.167969 56.777344 C 118.109375 58.152344 118.007812 59.53125 117.851562 60.898438 C 117.777344 61.542969 117.535156 62.171875 117.351562 62.804688 C 116.882812 64.460938 116.125 65.984375 115.207031 67.433594 C 115.023438 67.710938 114.8125 67.964844 114.578125 68.195312 C 112.660156 70.105469 110.667969 71.933594 108.582031 73.660156 C 107.519531 74.542969 106.515625 75.492188 105.46875 76.390625 C 105.285156 76.550781 105.101562 76.835938 104.703125 76.613281 C 105.253906 75.996094 105.808594 75.40625 106.328125 74.785156 C 106.75 74.285156 107.148438 73.757812 107.53125 73.222656 C 107.605469 73.121094 107.578125 72.945312 107.582031 72.789062 C 106.871094 73.125 106.484375 73.808594 105.972656 74.351562 C 105.597656 74.746094 105.265625 75.179688 104.902344 75.589844 C 103.941406 76.667969 102.855469 77.59375 101.640625 78.371094 C 101.609375 78.390625 101.546875 78.363281 101.492188 78.355469 C 101.46875 78.316406 101.410156 78.261719 101.421875 78.238281 C 101.753906 77.667969 102.085938 77.097656 102.4375 76.535156 C 102.585938 76.308594 102.804688 76.125 102.980469 75.910156 C 103.191406 75.65625 103.398438 75.398438 103.59375 75.128906 C 103.707031 74.972656 103.636719 74.597656 103.492188 74.535156 C 103.347656 74.472656 103.179688 74.453125 103.039062 74.578125 C 102.625 74.941406 102.210938 75.304688 101.804688 75.660156 C 101.59375 75.507812 101.652344 75.339844 101.753906 75.210938 C 101.917969 74.992188 102.109375 74.789062 102.292969 74.582031 C 102.480469 74.375 102.6875 74.140625 102.640625 73.855469 C 102.550781 73.324219 102.855469 73.023438 103.191406 72.722656 C 103.515625 72.457031 103.65625 72.117188 103.617188 71.699219 C 103.625 71.472656 103.695312 71.273438 103.832031 71.09375 C 104.648438 69.90625 105.132812 68.546875 105.835938 67.300781 C 105.96875 67.058594 106.03125 66.785156 105.792969 66.523438 L 104.488281 69.003906 C 104.175781 68.800781 104.28125 68.527344 104.371094 68.308594 C 105.226562 66.269531 105.761719 64.148438 105.976562 61.945312 C 106.464844 60.804688 106.074219 59.519531 106.558594 58.378906 C 106.585938 57.214844 106.628906 56.050781 106.636719 54.886719 C 106.648438 53.667969 106.628906 52.449219 106.617188 51.226562 C 106.609375 50.394531 106.601562 49.5625 106.566406 48.734375 C 106.546875 48.296875 106.523438 47.84375 106.398438 47.429688 C 106.179688 46.71875 106.417969 46.152344 106.742188 45.546875 C 107.382812 44.367188 108.453125 43.722656 109.59375 43.167969 C 110.035156 42.949219 110.53125 42.832031 110.957031 42.589844 C 112.164062 41.90625 113.484375 41.558594 114.800781 41.183594 C 115.324219 41.035156 115.769531 41.152344 116.152344 41.5625 C 117.328125 42.800781 118.070312 44.277344 118.164062 45.976562 C 118.273438 48.0625 118.242188 50.171875 118.246094 52.28125 Z M 118.246094 52.285156 " fill-opacity="1" fill-rule="nonzero"></path>
  </g>
  <path fill="#000000" d="M 83.027344 71.078125 C 83.027344 71.085938 83.027344 71.09375 83.027344 71.101562 L 83.042969 71.105469 L 83.042969 71.082031 Z M 83.027344 71.078125 " fill-opacity="1" fill-rule="nonzero"></path>
  <path fill="#000000" d="M 82.789062 69.660156 C 82.496094 69.128906 82.277344 68.558594 82.003906 68.015625 C 81.527344 67.070312 81.035156 66.132812 80.550781 65.195312 C 80.296875 65.363281 80.363281 65.558594 80.417969 65.691406 C 81.1875 67.453125 82.101562 69.148438 82.777344 70.953125 C 82.800781 71.019531 82.933594 71.039062 83.027344 71.078125 C 83.113281 70.578125 83.03125 70.105469 82.789062 69.660156 Z M 82.789062 69.660156 " fill-opacity="1" fill-rule="nonzero"></path>
  <path fill="#000000" d="M 78.445312 74.882812 C 78.300781 75.316406 78.746094 75.535156 78.824219 75.898438 C 78.863281 76.078125 79.089844 76.222656 79.238281 76.375 C 79.273438 76.398438 79.3125 76.40625 79.355469 76.402344 C 79.304688 75.433594 79.289062 75.425781 78.445312 74.882812 Z M 78.445312 74.882812 " fill-opacity="1" fill-rule="nonzero"></path>
  <path fill="#000000" d="M 79.355469 76.398438 C 79.355469 76.414062 79.355469 76.425781 79.355469 76.4375 L 79.390625 76.4375 C 79.390625 76.425781 79.390625 76.414062 79.390625 76.402344 C 79.378906 76.402344 79.367188 76.398438 79.355469 76.398438 Z M 79.355469 76.398438 " fill-opacity="1" fill-rule="nonzero"></path>
  <path fill="#000000" d="M 70.007812 84.203125 C 69.488281 84.085938 69.105469 83.535156 68.421875 83.9375 C 69.007812 83.976562 69.351562 84.703125 70.007812 84.203125 Z M 70.007812 84.203125 " fill-opacity="1" fill-rule="nonzero"></path>
  <path fill="#000000" d="M 94.007812 70.71875 C 93.996094 70.726562 93.984375 70.730469 93.972656 70.738281 L 93.972656 70.78125 L 94.015625 70.773438 C 94.007812 70.753906 94.007812 70.738281 94.007812 70.71875 Z M 94.007812 70.71875 " fill-opacity="1" fill-rule="nonzero"></path>
  <path fill="#000000" d="M 94.222656 70.597656 C 94.363281 70.011719 94.351562 69.429688 94.175781 68.851562 C 93.992188 69.464844 93.933594 70.085938 94.007812 70.71875 C 94.089844 70.683594 94.207031 70.652344 94.222656 70.597656 Z M 94.222656 70.597656 " fill-opacity="1" fill-rule="nonzero"></path>
  <path fill="#000000" d="M 93.675781 72.734375 L 93.636719 72.738281 L 93.644531 72.777344 L 93.675781 72.777344 C 93.675781 72.761719 93.675781 72.75 93.675781 72.734375 Z M 93.675781 72.734375 " fill-opacity="1" fill-rule="nonzero"></path>
  <path fill="#000000" d="M 93.945312 72.464844 C 93.964844 71.90625 93.960938 71.34375 93.96875 70.78125 C 93.804688 70.800781 93.71875 70.894531 93.710938 71.0625 C 93.6875 71.617188 93.683594 72.175781 93.675781 72.734375 C 93.847656 72.726562 93.9375 72.636719 93.945312 72.464844 Z M 93.945312 72.464844 " fill-opacity="1" fill-rule="nonzero"></path>
  <path fill="#000000" d="M 108.878906 71.425781 C 108.910156 71.371094 108.820312 71.242188 108.769531 71.09375 C 108.417969 71.460938 108.082031 71.804688 107.753906 72.160156 C 107.601562 72.324219 107.59375 72.523438 107.609375 72.730469 C 108.253906 72.515625 108.550781 71.949219 108.878906 71.425781 Z M 108.878906 71.425781 " fill-opacity="1" fill-rule="nonzero"></path>
  <path fill="#000000" d="M 107.609375 72.730469 L 107.585938 72.742188 C 107.585938 72.753906 107.585938 72.769531 107.585938 72.785156 L 107.617188 72.769531 C 107.613281 72.757812 107.613281 72.746094 107.609375 72.730469 Z M 107.609375 72.730469 " fill-opacity="1" fill-rule="nonzero"></path>
  <path fill="#000000" d="M 111.597656 66.929688 C 110.710938 68.050781 110.71875 68.054688 110.703125 68.664062 C 111.285156 68.070312 111.28125 68.066406 111.597656 66.929688 Z M 111.597656 66.929688 " fill-opacity="1" fill-rule="nonzero"></path>
  <path fill="#000000" d="M 60.132812 92.796875 C 59.375 92.789062 58.804688 92.726562 58.03125 92.875 C 59.308594 93.078125 59.308594 93.074219 60.132812 92.796875 Z M 60.132812 92.796875 " fill-opacity="1" fill-rule="nonzero"></path>
  <path fill="#000000" d="M 61.898438 93.230469 C 61.40625 93.039062 61.121094 92.890625 60.8125 92.824219 C 60.507812 92.757812 60.46875 92.980469 60.519531 93.226562 C 60.875 93.433594 61.242188 93.386719 61.898438 93.230469 Z M 61.898438 93.230469 " fill-opacity="1" fill-rule="nonzero"></path>
</svg>
