<?xml version="1.0" encoding="UTF-8"?>
<svg xmlns="http://www.w3.org/2000/svg" xmlns:xlink="http://www.w3.org/1999/xlink" width="200" zoomAndPan="magnify" viewBox="0 0 150 149.999998" height="200" preserveAspectRatio="xMidYMid meet" version="1.0">
  <defs>
    <clipPath id="579d75f231">
      <path d="M 26.128906 30.386719 L 123.628906 30.386719 L 123.628906 119.550781 L 26.128906 119.550781 Z M 26.128906 30.386719 " clip-rule="nonzero"></path>
    </clipPath>
  </defs>
  <g clip-path="url(#579d75f231)">
    <path fill="#100f0d" d="M 76.019531 73.78125 C 76.039062 73.816406 76.039062 73.832031 76.054688 73.867188 C 76.21875 73.90625 76.378906 73.976562 76.5 74.082031 C 76.464844 74.066406 76.429688 74.03125 76.414062 74.011719 C 76.519531 74.082031 76.625 74.15625 76.714844 74.242188 C 76.699219 74.226562 76.679688 74.207031 76.664062 74.207031 C 76.679688 74.226562 76.714844 74.261719 76.734375 74.277344 C 76.75 74.101562 76.804688 73.941406 76.910156 73.796875 L 76.910156 73.78125 C 76.910156 73.707031 76.910156 73.636719 76.929688 73.582031 C 76.894531 73.511719 76.875 73.441406 76.875 73.351562 C 76.875 73.332031 76.859375 73.316406 76.859375 73.296875 C 76.609375 73.332031 76.378906 73.28125 76.179688 73.121094 C 76.164062 73.101562 76.144531 73.082031 76.128906 73.066406 C 76.074219 73.261719 75.933594 73.421875 75.773438 73.53125 C 75.878906 73.582031 75.949219 73.65625 76.019531 73.78125 Z M 122.902344 72.796875 C 122.777344 72.65625 122.492188 72.796875 122.5625 72.996094 C 122.757812 73.496094 122.882812 74.066406 122.847656 74.601562 C 121.492188 73.566406 119.765625 72.941406 118.234375 72.28125 C 116.417969 71.496094 114.582031 70.816406 112.640625 70.425781 C 112.445312 70.390625 112.355469 70.691406 112.550781 70.730469 C 116.078125 71.621094 119.660156 73.191406 122.757812 75.117188 C 122.582031 75.8125 122.082031 76.367188 121.121094 76.4375 C 119.996094 76.527344 118.984375 75.777344 118.09375 75.226562 C 117.363281 74.777344 116.59375 74.441406 115.8125 74.066406 C 115.082031 73.726562 114.441406 73.207031 113.710938 72.871094 C 113.476562 72.761719 113.140625 72.941406 113.246094 73.226562 C 113.710938 74.546875 115.296875 74.9375 116.433594 75.472656 C 117.769531 76.117188 118.964844 77.152344 120.480469 77.3125 C 123.027344 77.617188 124.644531 74.777344 122.902344 72.796875 Z M 72.941406 75.886719 C 72.796875 75.742188 72.816406 75.457031 72.992188 75.332031 C 72.796875 75.332031 72.621094 75.296875 72.441406 75.207031 C 72.476562 75.277344 72.496094 75.351562 72.476562 75.421875 C 72.476562 75.4375 72.476562 75.457031 72.457031 75.472656 C 72.441406 75.546875 72.386719 75.601562 72.316406 75.617188 C 72.296875 75.617188 72.28125 75.617188 72.261719 75.636719 C 71.976562 75.707031 71.765625 75.351562 71.976562 75.152344 C 72.050781 75.082031 72.136719 75.066406 72.226562 75.082031 C 72.15625 75.027344 72.085938 74.957031 72.03125 74.867188 C 71.925781 75.066406 71.710938 75.207031 71.496094 75.226562 C 71.480469 75.332031 71.425781 75.4375 71.355469 75.511719 C 71.480469 75.492188 71.605469 75.472656 71.710938 75.472656 C 71.890625 75.472656 72.050781 75.617188 72.066406 75.796875 C 72.085938 75.957031 72.011719 76.082031 71.871094 76.152344 C 71.960938 76.367188 71.976562 76.617188 71.90625 76.832031 C 71.890625 76.882812 71.871094 76.957031 71.851562 77.007812 C 72.15625 77.042969 72.371094 77.207031 72.546875 77.457031 C 72.546875 77.472656 72.566406 77.472656 72.566406 77.492188 C 72.601562 77.542969 72.636719 77.617188 72.65625 77.6875 C 72.816406 77.722656 72.941406 77.832031 73.046875 77.9375 C 73.082031 77.867188 73.117188 77.792969 73.152344 77.742188 C 73.027344 77.597656 73.027344 77.347656 73.171875 77.222656 C 72.671875 77.007812 72.582031 76.277344 72.941406 75.886719 Z M 71.90625 74.011719 C 71.960938 73.761719 72.101562 73.53125 72.316406 73.386719 C 72.371094 73.332031 72.441406 73.28125 72.53125 73.226562 C 72.621094 73.171875 72.726562 73.136719 72.832031 73.101562 C 72.726562 73.03125 72.691406 72.886719 72.742188 72.78125 C 72.636719 72.671875 72.546875 72.546875 72.441406 72.441406 C 72.296875 72.28125 72.261719 72.03125 72.421875 71.851562 C 72.351562 71.675781 72.332031 71.460938 72.421875 71.28125 C 72.246094 71.335938 71.996094 71.28125 71.925781 71.101562 C 71.90625 71.066406 71.890625 71.03125 71.890625 70.976562 C 71.851562 71.050781 71.800781 71.101562 71.746094 71.15625 C 71.746094 71.316406 71.605469 71.441406 71.425781 71.425781 C 71.371094 71.621094 71.230469 71.800781 71.070312 71.925781 C 71.015625 72.011719 70.910156 72.066406 70.785156 72.066406 C 70.695312 72.101562 70.605469 72.121094 70.515625 72.121094 C 70.195312 72.121094 69.929688 71.960938 69.769531 71.726562 C 69.75 71.710938 69.734375 71.691406 69.714844 71.691406 C 69.644531 71.621094 69.574219 71.511719 69.539062 71.425781 C 69.503906 71.425781 69.464844 71.40625 69.429688 71.390625 C 69.464844 71.496094 69.484375 71.601562 69.503906 71.710938 C 69.519531 71.960938 69.394531 72.171875 69.234375 72.351562 C 69.304688 72.421875 69.339844 72.511719 69.304688 72.621094 C 69.253906 72.78125 69.179688 72.941406 69.109375 73.082031 C 69.074219 73.171875 69.003906 73.207031 68.914062 73.242188 C 68.933594 73.242188 68.949219 73.242188 68.949219 73.242188 C 69.269531 73.226562 69.609375 73.40625 69.804688 73.671875 C 69.769531 73.566406 69.769531 73.476562 69.839844 73.371094 C 69.910156 73.242188 70.054688 73.171875 70.195312 73.171875 C 70.269531 73.171875 70.339844 73.191406 70.394531 73.226562 C 70.339844 73.15625 70.285156 73.082031 70.25 73.011719 C 70.109375 72.78125 70.195312 72.476562 70.429688 72.335938 C 70.660156 72.191406 70.960938 72.28125 71.105469 72.511719 C 71.160156 72.601562 71.195312 72.691406 71.230469 72.78125 C 71.246094 72.796875 71.285156 72.796875 71.300781 72.816406 L 71.320312 72.835938 C 71.335938 72.816406 71.355469 72.796875 71.371094 72.78125 C 71.496094 72.65625 71.605469 72.546875 71.78125 72.511719 C 71.871094 72.511719 71.960938 72.566406 71.996094 72.636719 C 72.085938 72.796875 72.03125 72.976562 72.011719 73.136719 C 71.996094 73.261719 71.890625 73.351562 71.78125 73.386719 C 71.765625 73.582031 71.605469 73.761719 71.40625 73.726562 C 71.210938 73.707031 71.070312 73.617188 70.910156 73.53125 C 70.910156 73.53125 70.910156 73.53125 70.890625 73.53125 C 70.785156 73.53125 70.675781 73.496094 70.589844 73.421875 C 70.640625 73.546875 70.625 73.671875 70.570312 73.796875 C 70.570312 73.816406 70.570312 73.816406 70.554688 73.832031 C 70.5 73.976562 70.320312 74.03125 70.160156 74.03125 C 70.214844 74.171875 70.160156 74.316406 70.070312 74.441406 C 70.070312 74.726562 69.984375 74.992188 69.785156 75.207031 C 69.839844 75.277344 69.910156 75.332031 69.949219 75.421875 C 69.949219 75.4375 69.964844 75.4375 69.964844 75.457031 C 70 75.527344 70.035156 75.601562 70.054688 75.6875 C 70.109375 75.671875 70.179688 75.671875 70.230469 75.671875 C 70.269531 75.652344 70.285156 75.617188 70.320312 75.601562 C 70.339844 75.601562 70.339844 75.582031 70.355469 75.582031 C 70.25 75.457031 70.195312 75.296875 70.179688 75.136719 C 70.160156 74.777344 70.480469 74.476562 70.820312 74.441406 C 70.890625 74.136719 71.195312 73.886719 71.515625 73.886719 C 71.621094 73.816406 71.78125 73.886719 71.90625 74.011719 Z M 74.113281 72.90625 C 74.238281 72.90625 74.363281 72.941406 74.472656 72.996094 C 74.453125 72.941406 74.4375 72.871094 74.4375 72.796875 C 74.417969 72.335938 74.84375 71.941406 75.289062 71.941406 C 75.308594 71.941406 75.308594 71.941406 75.328125 71.941406 C 75.308594 71.941406 75.289062 71.925781 75.253906 71.925781 C 75.164062 71.871094 75.09375 71.816406 75.003906 71.765625 C 74.882812 71.691406 74.808594 71.550781 74.808594 71.425781 C 74.722656 71.550781 74.597656 71.675781 74.453125 71.765625 C 74.398438 71.996094 74.132812 72.191406 73.882812 72.101562 C 73.867188 72.101562 73.847656 72.085938 73.847656 72.085938 C 73.792969 72.066406 73.742188 72.03125 73.707031 71.996094 C 73.632812 72.085938 73.546875 72.171875 73.4375 72.226562 C 73.457031 72.261719 73.492188 72.28125 73.511719 72.316406 C 73.632812 72.496094 73.546875 72.761719 73.402344 72.886719 C 73.332031 72.941406 73.261719 72.960938 73.1875 72.976562 C 73.171875 73.011719 73.152344 73.046875 73.136719 73.066406 C 73.277344 73.066406 73.421875 73.101562 73.546875 73.15625 C 73.6875 73.011719 73.902344 72.90625 74.113281 72.90625 Z M 100.636719 46.570312 C 99.085938 48.816406 97.359375 50.90625 95.542969 52.921875 C 95.382812 53.101562 95.632812 53.347656 95.808594 53.1875 C 97.695312 51.191406 99.316406 48.976562 100.796875 46.660156 C 100.832031 46.570312 100.691406 46.480469 100.636719 46.570312 Z M 75.84375 79.542969 C 75.773438 79.398438 75.71875 79.257812 75.71875 79.078125 C 75.71875 78.972656 75.734375 78.863281 75.773438 78.773438 C 75.734375 78.8125 75.699219 78.828125 75.648438 78.847656 C 75.46875 78.902344 75.273438 78.792969 75.183594 78.652344 C 75.183594 78.738281 75.183594 78.8125 75.164062 78.902344 C 75.183594 79.027344 75.128906 79.167969 75.023438 79.257812 C 74.988281 79.3125 74.953125 79.363281 74.917969 79.417969 C 74.84375 79.507812 74.738281 79.578125 74.613281 79.632812 C 74.667969 79.863281 74.613281 80.113281 74.4375 80.273438 C 74.523438 80.328125 74.613281 80.382812 74.683594 80.453125 C 74.84375 80.34375 75.058594 80.308594 75.273438 80.363281 C 75.289062 80.363281 75.308594 80.363281 75.308594 80.382812 C 75.449219 80.417969 75.558594 80.488281 75.648438 80.578125 C 75.683594 80.542969 75.71875 80.507812 75.773438 80.488281 C 75.664062 80.308594 75.71875 80.023438 75.949219 79.933594 C 75.894531 79.828125 75.859375 79.722656 75.859375 79.597656 C 75.84375 79.5625 75.84375 79.542969 75.84375 79.542969 Z M 78.976562 101.773438 C 79.351562 103.023438 80.1875 104.21875 80.867188 105.324219 C 80.953125 105.449219 81.152344 105.34375 81.078125 105.199219 C 80.4375 104.058594 79.957031 102.757812 79.226562 101.667969 C 79.136719 101.542969 78.925781 101.613281 78.976562 101.773438 Z M 86.742188 88.804688 C 87.367188 89.390625 88.097656 89.890625 88.792969 90.410156 C 88.898438 90.480469 89.023438 90.320312 88.933594 90.230469 C 88.292969 89.660156 87.652344 89.035156 86.957031 88.535156 C 86.78125 88.429688 86.601562 88.679688 86.742188 88.804688 Z M 43.90625 91.980469 C 44.191406 91.78125 44.476562 91.585938 44.726562 91.355469 C 44.90625 91.195312 44.671875 90.960938 44.476562 91.035156 C 44.15625 91.175781 43.871094 91.355469 43.570312 91.53125 C 43.355469 91.675781 43.035156 91.800781 43.050781 92.105469 C 43.050781 92.15625 43.085938 92.210938 43.125 92.246094 C 43.410156 92.371094 43.675781 92.121094 43.90625 91.980469 Z M 77.570312 75.277344 C 77.570312 75.226562 77.570312 75.171875 77.589844 75.117188 C 77.570312 75.117188 77.554688 75.117188 77.515625 75.117188 C 77.320312 75.117188 77.160156 75.066406 77.035156 74.957031 C 77.035156 75.101562 77 75.226562 76.929688 75.351562 C 76.945312 75.4375 76.964844 75.527344 76.964844 75.617188 C 76.964844 75.6875 76.964844 75.761719 76.945312 75.832031 C 77 76.027344 76.929688 76.261719 76.699219 76.3125 C 76.484375 76.5625 76.164062 76.722656 75.84375 76.722656 C 75.734375 76.722656 75.628906 76.707031 75.523438 76.671875 C 75.378906 76.652344 75.238281 76.582031 75.128906 76.492188 C 74.898438 76.546875 74.597656 76.421875 74.613281 76.117188 C 74.613281 76.082031 74.613281 76.0625 74.613281 76.027344 C 74.613281 75.921875 74.667969 75.8125 74.738281 75.742188 C 74.738281 75.726562 74.738281 75.6875 74.722656 75.671875 C 74.632812 75.6875 74.523438 75.671875 74.453125 75.601562 C 74.398438 75.546875 74.328125 75.492188 74.277344 75.421875 C 74.113281 75.261719 74.152344 74.992188 74.347656 74.886719 C 74.542969 74.761719 74.757812 74.886719 74.84375 75.082031 C 74.828125 74.992188 74.808594 74.902344 74.808594 74.8125 C 74.773438 74.777344 74.738281 74.761719 74.703125 74.726562 C 74.632812 74.636719 74.578125 74.546875 74.542969 74.457031 C 74.398438 74.546875 74.257812 74.601562 74.097656 74.601562 C 74.078125 74.601562 74.0625 74.601562 74.042969 74.601562 C 73.972656 74.777344 73.867188 74.921875 73.707031 75.046875 C 73.667969 75.082031 73.632812 75.101562 73.597656 75.117188 C 73.6875 75.1875 73.6875 75.367188 73.582031 75.421875 C 73.546875 75.4375 73.492188 75.457031 73.457031 75.472656 C 73.472656 75.511719 73.472656 75.5625 73.472656 75.617188 C 73.472656 75.617188 73.472656 75.617188 73.492188 75.617188 C 73.867188 75.617188 74.097656 75.832031 74.222656 76.082031 C 74.238281 76.082031 74.238281 76.082031 74.257812 76.082031 C 74.523438 76.082031 74.703125 76.382812 74.558594 76.617188 L 74.507812 76.722656 C 74.4375 76.832031 74.3125 76.882812 74.203125 76.847656 C 74.113281 77.027344 73.957031 77.1875 73.707031 77.242188 C 73.742188 77.292969 73.757812 77.347656 73.777344 77.402344 C 73.867188 77.382812 73.972656 77.382812 74.078125 77.417969 C 74.3125 77.472656 74.523438 77.632812 74.632812 77.832031 C 74.683594 77.867188 74.738281 77.902344 74.792969 77.9375 C 74.84375 77.832031 74.933594 77.742188 75.09375 77.742188 C 75.21875 77.742188 75.308594 77.792969 75.363281 77.882812 C 75.398438 77.867188 75.449219 77.867188 75.488281 77.882812 C 75.488281 77.777344 75.488281 77.652344 75.503906 77.542969 C 75.558594 77.292969 75.773438 77.027344 76.003906 76.902344 C 76.074219 76.867188 76.164062 76.832031 76.253906 76.8125 C 76.414062 76.742188 76.574219 76.707031 76.75 76.722656 C 76.75 76.402344 77.019531 76.027344 77.339844 75.957031 C 77.355469 75.957031 77.355469 75.957031 77.375 75.957031 C 77.554688 75.921875 77.730469 75.921875 77.890625 75.992188 C 77.910156 75.972656 77.945312 75.972656 77.960938 75.957031 C 77.730469 75.8125 77.570312 75.582031 77.570312 75.277344 Z M 71.566406 45.785156 C 71.53125 44.679688 71.355469 43.574219 71.210938 42.464844 C 71.195312 42.269531 70.875 42.25 70.890625 42.464844 C 70.980469 43.574219 71.015625 44.730469 71.195312 45.839844 C 71.230469 46.050781 71.566406 46 71.566406 45.785156 Z M 83.109375 69.800781 C 83.09375 69.800781 83.074219 69.820312 83.054688 69.820312 L 83.074219 69.835938 C 83.09375 69.820312 83.109375 69.820312 83.109375 69.800781 Z M 82.914062 71.78125 L 82.824219 71.746094 C 82.628906 71.675781 82.433594 71.851562 82.433594 72.03125 C 82.433594 72.210938 82.628906 72.386719 82.824219 72.316406 L 82.914062 72.28125 C 83.179688 72.210938 83.179688 71.871094 82.914062 71.78125 Z M 82.789062 76.0625 C 82.773438 75.886719 82.699219 75.761719 82.628906 75.601562 C 82.449219 75.226562 81.828125 75.582031 82.078125 75.921875 C 82.164062 76.0625 82.253906 76.1875 82.398438 76.277344 C 82.539062 76.402344 82.808594 76.261719 82.789062 76.0625 Z M 82.414062 76.9375 C 82.308594 77.0625 82.203125 77.1875 82.183594 77.367188 C 82.183594 77.472656 82.289062 77.5625 82.398438 77.527344 C 82.558594 77.472656 82.648438 77.332031 82.734375 77.1875 C 82.859375 77.007812 82.558594 76.757812 82.414062 76.9375 Z M 82.078125 74.367188 C 82.148438 74.441406 82.253906 74.441406 82.328125 74.367188 C 82.449219 74.242188 82.433594 74.066406 82.433594 73.90625 C 82.433594 73.601562 81.96875 73.601562 81.96875 73.90625 C 81.96875 74.066406 81.953125 74.242188 82.078125 74.367188 Z M 82.183594 73.191406 C 82.203125 73.171875 82.21875 73.136719 82.238281 73.121094 C 82.289062 73.101562 82.34375 73.082031 82.363281 73.03125 C 82.414062 72.921875 82.398438 72.851562 82.363281 72.726562 C 82.289062 72.511719 82.078125 72.53125 81.953125 72.621094 C 81.84375 72.601562 81.71875 72.65625 81.613281 72.636719 C 81.417969 72.601562 81.222656 72.691406 81.167969 72.886719 C 81.152344 72.941406 81.152344 73.011719 81.167969 73.082031 C 81.0625 72.996094 80.917969 72.941406 80.757812 72.941406 C 80.382812 72.941406 80.011719 73.28125 80.027344 73.671875 C 80.027344 73.726562 80.027344 73.761719 80.046875 73.816406 C 79.957031 73.726562 79.867188 73.636719 79.78125 73.546875 C 79.601562 73.40625 79.335938 73.40625 79.210938 73.617188 C 79.101562 73.816406 79.191406 74.101562 79.421875 74.15625 C 79.601562 74.191406 79.761719 74.242188 79.9375 74.242188 C 80.027344 74.242188 80.136719 74.171875 80.152344 74.066406 C 80.277344 74.261719 80.492188 74.402344 80.757812 74.402344 C 81.132812 74.402344 81.507812 74.066406 81.488281 73.671875 C 81.488281 73.546875 81.453125 73.421875 81.382812 73.316406 C 81.398438 73.316406 81.398438 73.332031 81.417969 73.332031 C 81.683594 73.386719 81.988281 73.40625 82.183594 73.191406 Z M 68.824219 77.847656 C 68.84375 77.847656 68.84375 77.8125 68.824219 77.8125 C 68.808594 77.832031 68.808594 77.847656 68.824219 77.847656 Z M 68.558594 77.742188 C 68.253906 77.742188 68.132812 78.042969 68.238281 78.292969 C 68.238281 78.3125 68.238281 78.3125 68.253906 78.328125 C 68.363281 78.5625 68.773438 78.5625 68.878906 78.328125 C 68.878906 78.3125 68.878906 78.3125 68.894531 78.292969 C 68.984375 78.0625 68.859375 77.742188 68.558594 77.742188 Z M 67.097656 77.992188 C 67.113281 77.992188 67.113281 77.953125 67.097656 77.953125 C 67.078125 77.972656 67.078125 77.992188 67.097656 77.992188 Z M 77.785156 79.597656 C 77.820312 79.597656 77.820312 79.542969 77.785156 79.542969 C 77.75 79.542969 77.75 79.597656 77.785156 79.597656 Z M 81.792969 76.902344 C 81.792969 76.867188 81.792969 76.832031 81.773438 76.796875 C 81.757812 76.652344 81.738281 76.546875 81.667969 76.421875 C 81.597656 76.277344 81.453125 76.171875 81.3125 76.117188 C 81.167969 76.0625 81.007812 76.046875 80.847656 76.082031 C 80.917969 75.957031 80.972656 75.796875 80.972656 75.636719 C 80.953125 75.136719 80.582031 74.726562 80.0625 74.726562 C 80.027344 74.726562 79.992188 74.726562 79.957031 74.742188 C 79.851562 74.566406 79.691406 74.421875 79.476562 74.367188 C 79.457031 74.367188 79.457031 74.367188 79.441406 74.367188 C 79.136719 74.277344 78.851562 74.386719 78.65625 74.582031 L 78.640625 74.582031 C 78.691406 74.53125 78.746094 74.476562 78.800781 74.402344 C 78.941406 74.226562 79.03125 74.011719 79.011719 73.78125 C 79.011719 73.65625 78.976562 73.546875 78.941406 73.441406 C 79.40625 73.226562 79.476562 72.546875 79.136719 72.191406 C 79.226562 72.066406 79.226562 71.886719 79.121094 71.746094 C 79.101562 71.726562 79.085938 71.691406 79.066406 71.675781 C 78.996094 71.585938 78.800781 71.585938 78.710938 71.675781 C 78.691406 71.691406 78.675781 71.726562 78.65625 71.746094 C 78.601562 71.816406 78.585938 71.886719 78.566406 71.976562 C 78.28125 71.996094 78.085938 72.136719 77.980469 72.335938 C 77.875 72.300781 77.765625 72.261719 77.660156 72.261719 L 77.640625 72.261719 C 77.605469 72.03125 77.5 71.816406 77.304688 71.675781 C 77.285156 71.65625 77.285156 71.65625 77.269531 71.636719 C 77.304688 71.585938 77.355469 71.550781 77.390625 71.496094 C 77.410156 71.496094 77.429688 71.511719 77.445312 71.511719 C 77.480469 71.53125 77.5 71.53125 77.535156 71.53125 C 77.554688 71.53125 77.570312 71.53125 77.589844 71.53125 L 77.714844 71.585938 C 77.890625 71.675781 78.121094 71.636719 78.230469 71.441406 C 78.230469 71.425781 78.230469 71.425781 78.246094 71.40625 C 78.515625 71.246094 78.710938 70.960938 78.710938 70.621094 C 78.710938 70.050781 78.121094 69.585938 77.570312 69.746094 C 77.535156 69.746094 77.515625 69.765625 77.480469 69.765625 C 77.390625 69.800781 77.304688 69.835938 77.214844 69.90625 C 77.179688 69.871094 77.160156 69.855469 77.109375 69.820312 C 77.035156 69.730469 76.945312 69.675781 76.859375 69.605469 C 76.910156 69.425781 76.910156 69.246094 76.875 69.070312 C 76.875 69.035156 76.859375 69 76.859375 68.960938 C 76.804688 68.675781 76.5 68.390625 76.234375 68.335938 C 76.003906 68.285156 75.753906 68.300781 75.539062 68.425781 C 75.042969 68.730469 74.953125 69.425781 75.363281 69.835938 C 75.378906 69.855469 75.398438 69.871094 75.414062 69.890625 C 75.238281 70.140625 75.148438 70.460938 75.164062 70.730469 C 75.164062 70.800781 75.183594 70.890625 75.203125 70.960938 C 75.128906 70.976562 75.078125 70.996094 75.023438 71.050781 C 75.09375 70.78125 75.042969 70.496094 74.882812 70.265625 C 74.953125 70.195312 74.988281 70.085938 74.988281 69.980469 C 74.988281 69.78125 74.882812 69.640625 74.703125 69.570312 C 74.472656 69.480469 74.203125 69.585938 74.113281 69.800781 C 73.777344 69.78125 73.4375 69.925781 73.242188 70.195312 C 73.117188 70.355469 73.027344 70.550781 73.027344 70.765625 C 72.941406 70.78125 72.832031 70.816406 72.761719 70.871094 C 72.777344 70.835938 72.777344 70.816406 72.796875 70.78125 C 72.886719 70.496094 72.65625 70.195312 72.351562 70.195312 C 72.261719 70.195312 72.191406 70.230469 72.121094 70.265625 C 72.085938 69.765625 71.746094 69.371094 71.285156 69.265625 C 71.285156 69.175781 71.246094 69.085938 71.210938 68.980469 C 71.195312 68.945312 71.175781 68.925781 71.160156 68.890625 C 71.230469 68.925781 71.300781 68.960938 71.390625 68.960938 C 71.480469 68.960938 71.566406 68.925781 71.621094 68.890625 C 71.640625 69.230469 71.816406 69.550781 72.121094 69.730469 C 72.511719 69.960938 73.011719 69.890625 73.347656 69.570312 L 73.367188 69.550781 C 73.472656 69.460938 73.546875 69.335938 73.582031 69.210938 C 73.652344 69.390625 73.792969 69.535156 74.007812 69.535156 C 74.132812 69.535156 74.238281 69.480469 74.328125 69.390625 C 74.417969 69.425781 74.507812 69.480469 74.613281 69.515625 C 74.738281 69.550781 74.898438 69.496094 74.96875 69.371094 C 75.042969 69.246094 75.003906 69.105469 74.917969 69 C 74.863281 68.945312 74.792969 68.890625 74.738281 68.835938 C 74.722656 68.820312 74.703125 68.820312 74.683594 68.800781 C 74.757812 68.765625 74.828125 68.746094 74.882812 68.675781 C 74.933594 68.605469 74.988281 68.5 74.953125 68.410156 C 74.882812 68.160156 74.578125 68.195312 74.382812 68.230469 C 74.203125 68.25 74.113281 68.480469 74.167969 68.625 C 74.167969 68.640625 74.1875 68.660156 74.1875 68.675781 C 74.152344 68.660156 74.113281 68.640625 74.097656 68.640625 C 74.113281 68.5 74.042969 68.355469 73.867188 68.355469 C 73.617188 68.355469 73.5625 68.640625 73.667969 68.785156 C 73.652344 68.800781 73.632812 68.820312 73.632812 68.835938 C 73.617188 68.605469 73.527344 68.355469 73.347656 68.195312 L 73.332031 68.175781 C 73.277344 68.125 73.207031 68.070312 73.136719 68.035156 C 73.136719 67.800781 72.921875 67.625 72.691406 67.695312 C 72.671875 67.695312 72.65625 67.695312 72.65625 67.710938 C 72.601562 67.730469 72.546875 67.765625 72.496094 67.800781 C 72.496094 67.765625 72.496094 67.730469 72.476562 67.695312 C 72.421875 67.515625 72.210938 67.375 72.011719 67.429688 C 71.78125 67.5 71.460938 67.570312 71.390625 67.839844 C 71.371094 67.925781 71.390625 68.035156 71.445312 68.105469 C 71.40625 68.105469 71.390625 68.085938 71.355469 68.085938 C 71.175781 68.085938 71.050781 68.175781 70.980469 68.300781 C 70.945312 68.285156 70.925781 68.265625 70.875 68.265625 C 70.855469 68.265625 70.855469 68.265625 70.839844 68.265625 C 70.890625 68.160156 70.890625 68.050781 70.839844 67.925781 C 70.765625 67.75 70.605469 67.660156 70.429688 67.589844 C 70.195312 67.5 69.949219 67.710938 69.929688 67.925781 C 69.894531 68.160156 70.070312 68.390625 70.320312 68.390625 C 70.320312 68.390625 70.320312 68.390625 70.339844 68.390625 C 70.445312 68.460938 70.589844 68.480469 70.695312 68.425781 C 70.695312 68.460938 70.695312 68.5 70.695312 68.535156 C 70.375 68.390625 69.964844 68.445312 69.664062 68.710938 C 69.574219 68.800781 69.484375 68.890625 69.429688 69 C 69.304688 69.246094 69.269531 69.496094 69.394531 69.765625 C 69.464844 69.925781 69.554688 70.03125 69.679688 70.121094 C 69.699219 70.15625 69.714844 70.175781 69.734375 70.210938 C 69.625 70.316406 69.554688 70.441406 69.503906 70.585938 C 69.484375 70.585938 69.449219 70.605469 69.429688 70.621094 C 69.304688 70.691406 69.21875 70.835938 69.21875 70.976562 C 69.21875 70.996094 69.21875 71.015625 69.21875 71.015625 C 69.09375 70.890625 68.914062 70.800781 68.734375 70.78125 C 68.84375 70.746094 68.949219 70.675781 68.984375 70.53125 C 69.019531 70.371094 69.019531 70.246094 68.984375 70.105469 C 68.933594 69.855469 68.664062 69.730469 68.449219 69.78125 C 68.328125 69.621094 68.132812 69.496094 67.84375 69.496094 C 67.738281 69.496094 67.648438 69.515625 67.578125 69.550781 C 67.488281 69.515625 67.382812 69.496094 67.277344 69.550781 C 67.203125 69.585938 67.152344 69.640625 67.097656 69.695312 C 67.078125 69.695312 67.042969 69.695312 67.027344 69.710938 C 66.902344 69.765625 66.796875 69.820312 66.707031 69.90625 C 66.527344 70.085938 66.507812 70.425781 66.707031 70.585938 C 66.832031 70.710938 67.027344 70.746094 67.1875 70.710938 C 67.3125 70.941406 67.523438 71.101562 67.863281 71.101562 C 67.898438 71.101562 67.917969 71.101562 67.953125 71.085938 C 67.917969 71.121094 67.882812 71.175781 67.84375 71.226562 C 67.703125 71.425781 67.667969 71.621094 67.667969 71.851562 C 67.648438 72.261719 68.042969 72.636719 68.449219 72.636719 C 68.433594 72.671875 68.414062 72.691406 68.398438 72.726562 C 68.183594 72.78125 68.023438 73.011719 68.09375 73.242188 C 68.09375 73.28125 68.113281 73.296875 68.113281 73.332031 C 68.132812 73.421875 68.183594 73.476562 68.238281 73.511719 C 68.167969 73.582031 68.09375 73.65625 68.042969 73.742188 C 67.96875 73.726562 67.898438 73.691406 67.808594 73.691406 C 67.792969 73.496094 67.648438 73.316406 67.453125 73.28125 C 67.453125 73.261719 67.453125 73.242188 67.4375 73.207031 C 67.417969 73.121094 67.382812 73.011719 67.3125 72.941406 C 67.328125 72.941406 67.347656 72.941406 67.363281 72.941406 C 67.792969 72.941406 67.882812 72.441406 67.667969 72.210938 C 67.703125 72.136719 67.632812 72.03125 67.542969 72.066406 C 67.507812 72.085938 67.488281 72.085938 67.453125 72.101562 C 67.417969 72.101562 67.398438 72.085938 67.363281 72.085938 C 67.042969 72.085938 66.902344 72.371094 66.953125 72.621094 C 66.882812 72.585938 66.8125 72.546875 66.722656 72.53125 C 66.5625 72.476562 66.386719 72.476562 66.222656 72.53125 C 66.207031 72.511719 66.171875 72.511719 66.152344 72.496094 C 66.707031 72.460938 66.6875 71.601562 66.136719 71.601562 C 65.601562 71.601562 65.566406 72.386719 66.046875 72.496094 C 65.816406 72.511719 65.601562 72.707031 65.621094 72.960938 C 65.621094 72.976562 65.621094 72.996094 65.621094 73.011719 C 65.476562 73.242188 65.441406 73.53125 65.511719 73.796875 C 65.582031 74.046875 65.761719 74.296875 66.011719 74.421875 C 66.011719 74.457031 66.027344 74.492188 66.046875 74.511719 C 65.992188 74.492188 65.941406 74.492188 65.886719 74.492188 C 65.460938 74.492188 65.050781 74.867188 65.066406 75.3125 C 65.085938 75.761719 65.421875 76.136719 65.886719 76.136719 C 65.957031 76.136719 66.027344 76.117188 66.101562 76.097656 C 66.136719 76.097656 66.171875 76.082031 66.207031 76.0625 C 66.242188 76.046875 66.277344 76.027344 66.3125 76.007812 C 66.546875 75.867188 66.722656 75.601562 66.707031 75.3125 C 66.6875 75.101562 66.617188 74.921875 66.492188 74.777344 C 66.667969 74.761719 66.777344 74.652344 66.832031 74.53125 C 66.847656 74.53125 66.867188 74.511719 66.902344 74.511719 C 66.847656 74.992188 67.132812 75.546875 67.757812 75.546875 C 67.828125 75.546875 67.882812 75.546875 67.953125 75.527344 C 67.84375 75.761719 67.792969 76.0625 67.898438 76.296875 L 67.917969 76.332031 C 67.933594 76.382812 67.96875 76.4375 67.988281 76.492188 C 67.933594 76.5625 67.917969 76.632812 67.917969 76.722656 C 67.917969 76.742188 67.917969 76.757812 67.917969 76.777344 C 67.84375 76.722656 67.773438 76.6875 67.703125 76.6875 C 67.757812 76.546875 67.6875 76.347656 67.507812 76.3125 C 67.472656 76.3125 67.453125 76.296875 67.417969 76.296875 C 67.382812 76.296875 67.363281 76.277344 67.328125 76.296875 C 67.257812 76.207031 67.152344 76.152344 67.007812 76.152344 C 66.847656 76.152344 66.742188 76.222656 66.667969 76.3125 C 66.277344 76.3125 66.066406 76.582031 66.011719 76.867188 C 65.886719 76.707031 65.691406 76.597656 65.441406 76.597656 C 64.460938 76.597656 64.460938 78.132812 65.441406 78.132812 C 65.867188 78.132812 66.117188 77.832031 66.171875 77.507812 C 66.277344 77.652344 66.457031 77.742188 66.6875 77.742188 C 66.972656 77.742188 67.152344 77.617188 67.257812 77.417969 C 67.257812 77.4375 67.257812 77.4375 67.257812 77.457031 C 67.3125 77.652344 67.488281 77.792969 67.6875 77.777344 C 67.773438 77.777344 67.84375 77.757812 67.917969 77.722656 C 68.09375 77.632812 68.167969 77.402344 68.132812 77.222656 L 68.09375 77.097656 C 68.148438 77.132812 68.21875 77.167969 68.289062 77.167969 C 68.398438 77.207031 68.488281 77.1875 68.558594 77.117188 C 68.773438 77.222656 69.019531 77.242188 69.253906 77.1875 C 69.289062 77.257812 69.304688 77.332031 69.359375 77.402344 C 69.058594 77.542969 69.109375 78.097656 69.519531 78.097656 C 69.734375 78.097656 69.839844 77.953125 69.875 77.792969 C 69.910156 77.8125 69.949219 77.832031 70 77.832031 C 69.859375 77.917969 69.734375 78.0625 69.664062 78.222656 C 69.609375 78.328125 69.589844 78.4375 69.589844 78.542969 C 69.519531 78.5625 69.464844 78.597656 69.414062 78.652344 C 69.269531 78.542969 69.039062 78.578125 68.914062 78.703125 C 68.824219 78.792969 68.789062 78.9375 68.808594 79.078125 C 68.433594 78.847656 67.933594 78.863281 67.613281 79.203125 C 67.597656 79.222656 67.578125 79.238281 67.558594 79.257812 C 67.578125 79.222656 67.578125 79.167969 67.578125 79.132812 C 67.558594 78.882812 67.382812 78.667969 67.113281 78.667969 C 67.0625 78.667969 66.992188 78.6875 66.9375 78.703125 C 66.902344 78.6875 66.882812 78.667969 66.847656 78.632812 C 66.722656 78.542969 66.597656 78.667969 66.597656 78.773438 C 65.777344 78.9375 65.832031 80.292969 66.777344 80.292969 C 67.042969 80.292969 67.222656 80.183594 67.347656 80.023438 C 67.382812 80.222656 67.472656 80.398438 67.613281 80.558594 C 68.042969 81.023438 68.84375 80.878906 69.128906 80.363281 C 69.304688 80.042969 69.304688 79.667969 69.109375 79.363281 C 69.21875 79.398438 69.339844 79.398438 69.429688 79.328125 C 69.429688 79.453125 69.484375 79.578125 69.609375 79.648438 C 69.734375 79.703125 69.824219 79.757812 69.964844 79.773438 C 70.179688 79.773438 70.285156 79.613281 70.285156 79.4375 C 70.429688 79.453125 70.554688 79.453125 70.675781 79.417969 C 70.765625 79.382812 70.839844 79.347656 70.925781 79.3125 C 70.875 79.4375 70.855469 79.542969 70.800781 79.667969 C 70.660156 80.167969 70.925781 80.773438 71.40625 80.988281 C 71.390625 81.003906 71.355469 81.023438 71.335938 81.042969 C 71.121094 81.253906 71.285156 81.628906 71.566406 81.613281 C 71.585938 81.613281 71.621094 81.613281 71.640625 81.613281 C 71.78125 81.613281 71.90625 81.488281 71.90625 81.34375 C 71.90625 81.328125 71.90625 81.292969 71.90625 81.273438 C 71.90625 81.203125 71.890625 81.132812 71.835938 81.078125 C 72.03125 81.078125 72.246094 81.042969 72.421875 80.933594 C 72.496094 80.878906 72.582031 80.828125 72.65625 80.757812 C 72.761719 80.71875 72.832031 80.613281 72.851562 80.507812 C 72.902344 80.433594 72.921875 80.34375 72.941406 80.257812 C 72.976562 80.058594 73.011719 79.863281 72.976562 79.648438 C 73.171875 79.648438 73.367188 79.5625 73.511719 79.417969 C 73.527344 79.453125 73.5625 79.488281 73.597656 79.507812 C 73.511719 79.648438 73.472656 79.828125 73.511719 79.988281 C 73.4375 80.078125 73.386719 80.167969 73.4375 80.273438 C 73.472656 80.34375 73.527344 80.382812 73.597656 80.398438 C 72.976562 80.808594 73.027344 81.914062 73.777344 82.183594 C 73.742188 82.183594 73.707031 82.183594 73.6875 82.203125 C 73.402344 82.253906 73.402344 82.738281 73.6875 82.789062 C 73.742188 82.808594 73.792969 82.808594 73.867188 82.808594 C 74.203125 82.789062 74.257812 82.378906 74.027344 82.238281 C 74.0625 82.238281 74.097656 82.253906 74.152344 82.253906 C 74.507812 82.253906 74.773438 82.09375 74.933594 81.863281 C 75.128906 81.953125 75.378906 81.96875 75.574219 81.863281 C 75.628906 81.953125 75.734375 82.023438 75.878906 82.023438 C 76.304688 82.023438 76.339844 81.433594 76.003906 81.328125 C 76.019531 81.253906 76.019531 81.203125 76.019531 81.132812 C 76.019531 81.132812 76.019531 81.132812 76.039062 81.132812 C 76.289062 81.132812 76.378906 80.898438 76.304688 80.71875 C 76.324219 80.71875 76.324219 80.703125 76.339844 80.703125 C 76.339844 80.828125 76.414062 80.953125 76.539062 81.003906 C 76.539062 81.058594 76.554688 81.113281 76.574219 81.183594 C 76.589844 81.238281 76.609375 81.273438 76.644531 81.328125 C 76.554688 81.46875 76.519531 81.648438 76.539062 81.84375 C 76.359375 81.96875 76.179688 82.09375 76.054688 82.273438 C 75.933594 82.46875 76.144531 82.71875 76.359375 82.664062 C 76.539062 82.613281 76.679688 82.503906 76.824219 82.414062 C 77.089844 82.683594 77.625 82.683594 77.890625 82.398438 C 77.960938 82.398438 78.035156 82.378906 78.105469 82.328125 C 78.210938 82.238281 78.335938 82.128906 78.445312 82.039062 C 78.675781 81.84375 78.371094 81.433594 78.121094 81.59375 C 78.035156 81.238281 77.730469 80.953125 77.339844 80.953125 L 77.320312 80.953125 C 77.320312 80.933594 77.320312 80.917969 77.304688 80.898438 C 77.269531 80.71875 77.109375 80.613281 76.945312 80.613281 C 76.929688 80.558594 76.894531 80.507812 76.839844 80.46875 C 77.160156 80.433594 77.445312 80.203125 77.515625 79.898438 C 77.675781 79.757812 77.785156 79.5625 77.800781 79.347656 C 77.980469 79.417969 78.195312 79.488281 78.390625 79.453125 C 78.371094 79.453125 78.371094 79.472656 78.355469 79.472656 C 78.300781 79.507812 78.265625 79.5625 78.230469 79.597656 C 78.085938 79.722656 78 79.882812 77.925781 80.078125 C 77.785156 80.382812 77.75 80.757812 77.945312 81.058594 C 78.035156 81.203125 78.15625 81.328125 78.320312 81.433594 C 78.566406 81.59375 78.835938 81.578125 79.121094 81.539062 C 79.386719 81.503906 79.65625 81.308594 79.816406 81.078125 C 79.902344 81.023438 79.976562 80.988281 80.046875 80.933594 C 80.222656 80.828125 80.152344 80.597656 80.011719 80.523438 C 80.027344 80.308594 80.011719 80.097656 79.921875 79.898438 C 80.046875 79.847656 80.171875 79.773438 80.296875 79.703125 C 80.667969 79.488281 80.3125 78.902344 79.957031 79.132812 C 79.851562 79.203125 79.726562 79.273438 79.617188 79.363281 C 79.582031 79.382812 79.566406 79.417969 79.53125 79.453125 C 79.492188 79.4375 79.476562 79.417969 79.441406 79.382812 C 79.246094 79.273438 79.011719 79.238281 78.800781 79.257812 C 78.726562 79.273438 78.65625 79.292969 78.585938 79.3125 C 78.765625 79.132812 78.691406 78.882812 78.515625 78.757812 C 78.390625 78.667969 78.265625 78.6875 78.175781 78.652344 C 78.15625 78.652344 78.15625 78.652344 78.140625 78.652344 C 78.15625 78.613281 78.175781 78.578125 78.195312 78.542969 C 78.210938 78.527344 78.246094 78.488281 78.265625 78.453125 C 78.28125 78.4375 78.300781 78.417969 78.300781 78.402344 C 78.320312 78.402344 78.355469 78.417969 78.371094 78.417969 C 78.640625 78.4375 78.890625 78.292969 79.085938 78.132812 C 79.15625 78.292969 79.246094 78.4375 79.386719 78.527344 C 79.40625 78.578125 79.441406 78.632812 79.476562 78.6875 C 79.65625 78.902344 80.082031 79.078125 80.296875 78.792969 C 80.367188 78.6875 80.382812 78.597656 80.332031 78.488281 C 80.332031 78.472656 80.3125 78.472656 80.3125 78.472656 C 80.492188 78.328125 80.617188 78.097656 80.617188 77.867188 C 80.597656 77.4375 80.261719 77.0625 79.816406 77.0625 C 79.707031 77.0625 79.601562 77.082031 79.511719 77.132812 C 79.476562 76.832031 79.351562 76.582031 79.15625 76.347656 C 79.066406 76.261719 78.960938 76.1875 78.851562 76.136719 C 78.90625 76.117188 78.941406 76.082031 78.976562 76.046875 C 79.085938 76.097656 79.210938 76.136719 79.335938 76.136719 C 79.476562 76.472656 79.78125 76.707031 80.171875 76.707031 C 80.277344 76.707031 80.367188 76.6875 80.472656 76.652344 C 80.402344 76.8125 80.367188 76.992188 80.421875 77.167969 C 80.457031 77.332031 80.5625 77.457031 80.6875 77.5625 C 80.828125 77.667969 80.972656 77.703125 81.152344 77.722656 L 81.257812 77.742188 C 81.453125 77.617188 81.84375 77.242188 81.792969 76.902344 Z M 81.597656 78.757812 C 81.523438 78.652344 81.363281 78.578125 81.257812 78.667969 C 81.132812 78.757812 81.042969 78.863281 80.972656 78.988281 C 80.828125 79.273438 81.257812 79.542969 81.398438 79.238281 C 81.417969 79.1875 81.453125 79.132812 81.507812 79.097656 C 81.613281 79.027344 81.667969 78.882812 81.597656 78.757812 Z M 80.847656 79.597656 C 80.6875 79.542969 80.492188 79.648438 80.457031 79.828125 C 80.421875 79.953125 80.402344 80.078125 80.382812 80.203125 C 80.367188 80.363281 80.527344 80.507812 80.667969 80.523438 C 80.828125 80.542969 80.972656 80.453125 81.027344 80.292969 C 81.0625 80.203125 81.0625 80.097656 81.078125 79.988281 C 81.113281 79.828125 81.027344 79.648438 80.847656 79.597656 Z M 79.492188 83.46875 C 79.371094 83.253906 79.28125 83.023438 79.171875 82.808594 C 79.085938 82.84375 78.996094 82.878906 78.890625 82.914062 C 79.101562 83.09375 79.296875 83.273438 79.492188 83.46875 Z M 78.320312 83.039062 C 78.300781 83.039062 78.28125 83.039062 78.28125 83.039062 C 79.65625 84.164062 80.707031 85.894531 81.667969 87.339844 C 83.074219 89.480469 84.410156 91.65625 85.65625 93.886719 C 85.726562 93.996094 85.550781 94.101562 85.480469 93.996094 C 84.214844 91.960938 82.933594 89.945312 81.578125 87.964844 C 81.042969 87.179688 80.457031 86.449219 79.851562 85.714844 C 81.238281 87.589844 82.449219 89.675781 83.554688 91.605469 C 84.480469 93.226562 85.316406 94.90625 86.046875 96.617188 C 86.121094 96.617188 86.171875 96.617188 86.226562 96.691406 C 88.578125 99.5625 91.25 102.308594 94.011719 104.789062 C 95.453125 106.09375 96.949219 107.484375 98.625 108.464844 C 99.605469 109.035156 100.867188 109.554688 101.988281 109.125 C 103.289062 108.625 103.128906 107.734375 103.058594 106.628906 C 103.039062 106.46875 103.183594 106.324219 103.324219 106.269531 C 102.773438 105.984375 102.257812 105.644531 101.867188 105.34375 C 98.945312 103.023438 96.859375 99.8125 94.0625 97.332031 C 91.144531 94.726562 87.9375 92.476562 85.015625 89.875 C 84.714844 89.589844 84.410156 89.320312 84.109375 89.035156 C 84.25 89.214844 84.375 89.375 84.515625 89.550781 C 86.921875 92.601562 89.289062 95.65625 91.660156 98.707031 C 91.714844 98.777344 91.625 98.882812 91.550781 98.8125 C 89.164062 95.902344 86.761719 92.996094 84.390625 90.070312 C 82.449219 87.679688 80.617188 85.109375 78.320312 83.039062 Z M 78.445312 83.984375 C 78.265625 83.753906 78.085938 83.539062 77.925781 83.308594 C 77.910156 83.324219 77.890625 83.34375 77.855469 83.363281 C 78.050781 83.558594 78.246094 83.769531 78.445312 83.984375 Z M 76.199219 82.808594 C 76.179688 82.789062 76.179688 82.773438 76.164062 82.753906 C 76.144531 82.773438 76.109375 82.773438 76.09375 82.789062 C 76.128906 82.808594 76.164062 82.808594 76.199219 82.808594 Z M 74.898438 82.449219 C 74.882812 82.449219 74.882812 82.488281 74.898438 82.488281 C 74.917969 82.488281 74.917969 82.449219 74.898438 82.449219 Z M 72.902344 82.363281 C 73.207031 82.363281 73.207031 81.898438 72.902344 81.898438 C 72.601562 81.898438 72.601562 82.363281 72.902344 82.363281 Z M 72.136719 83.289062 C 72.121094 83.253906 72.101562 83.234375 72.085938 83.199219 C 72.085938 83.21875 72.066406 83.21875 72.066406 83.234375 C 72.066406 83.253906 72.101562 83.273438 72.136719 83.289062 Z M 70.144531 80.328125 C 70.019531 80.328125 69.910156 80.417969 69.894531 80.523438 L 69.875 80.523438 C 69.339844 80.523438 69.339844 81.34375 69.875 81.34375 C 70.179688 81.34375 70.320312 81.058594 70.269531 80.828125 C 70.269531 80.828125 70.285156 80.828125 70.285156 80.808594 C 70.480469 80.683594 70.429688 80.328125 70.144531 80.328125 Z M 70.765625 81.628906 C 70.765625 81.378906 70.535156 81.238281 70.304688 81.273438 C 70.285156 81.273438 70.285156 81.273438 70.269531 81.273438 C 69.929688 81.328125 69.929688 81.898438 70.269531 81.96875 C 70.285156 81.96875 70.285156 81.96875 70.304688 81.96875 C 70.554688 82.023438 70.765625 81.898438 70.765625 81.628906 Z M 71.515625 82.878906 C 71.40625 82.699219 71.210938 82.683594 71.035156 82.753906 C 70.925781 82.808594 70.820312 82.863281 70.714844 82.914062 C 70.304688 83.148438 70.675781 83.789062 71.085938 83.558594 C 71.195312 83.503906 71.300781 83.433594 71.390625 83.363281 C 71.550781 83.253906 71.621094 83.058594 71.515625 82.878906 Z M 71.53125 81.878906 L 71.460938 81.828125 C 71.210938 81.667969 70.910156 81.878906 70.875 82.128906 C 70.800781 82.023438 70.660156 81.96875 70.535156 82.003906 C 70.375 82.039062 70.25 82.238281 70.304688 82.398438 C 70.355469 82.539062 70.394531 82.628906 70.515625 82.71875 C 70.695312 82.824219 70.875 82.71875 70.945312 82.539062 C 70.945312 82.523438 70.945312 82.523438 70.960938 82.503906 C 71.085938 82.664062 71.335938 82.738281 71.53125 82.628906 C 71.835938 82.46875 71.800781 82.058594 71.53125 81.878906 Z M 69.164062 80.46875 C 69.179688 80.46875 69.179688 80.433594 69.164062 80.433594 C 69.144531 80.453125 69.144531 80.46875 69.164062 80.46875 Z M 72.902344 84.519531 C 72.902344 84.484375 72.902344 84.449219 72.902344 84.433594 C 72.761719 84.433594 72.621094 84.414062 72.511719 84.414062 C 72.28125 84.394531 71.996094 84.304688 71.710938 84.199219 C 71.640625 85.128906 71.425781 86.054688 71.210938 86.984375 C 70.800781 88.714844 70.5 90.445312 70.304688 92.210938 C 70.285156 92.40625 69.984375 92.40625 70 92.210938 C 70.054688 90.746094 70.214844 89.300781 70.5 87.859375 C 70.75 86.609375 71.050781 85.394531 71.160156 84.164062 C 70.980469 84.183594 70.785156 84.164062 70.605469 84.128906 C 70.160156 85.199219 69.625 86.234375 69.179688 87.285156 C 68.449219 89 67.757812 90.746094 67.097656 92.476562 C 65.851562 95.761719 64.746094 99.097656 63.640625 102.433594 C 63.605469 102.578125 63.394531 102.507812 63.429688 102.382812 C 64.320312 98.882812 65.441406 95.476562 66.707031 92.105469 C 67.703125 89.464844 68.648438 86.519531 69.984375 83.949219 C 69.910156 83.933594 69.859375 83.898438 69.785156 83.859375 C 69.574219 83.808594 69.359375 83.699219 69.21875 83.539062 C 69.179688 83.523438 69.144531 83.484375 69.109375 83.46875 C 65.90625 88.980469 61.773438 94.101562 60.578125 100.507812 C 59.972656 103.703125 59.917969 106.984375 59.953125 110.230469 C 59.992188 113.085938 60.277344 115.511719 61.949219 117.886719 C 62.019531 117.992188 62.019531 118.117188 61.96875 118.226562 C 65.761719 120.507812 70.945312 105.949219 71.710938 103.613281 C 73.742188 97.351562 74.078125 91.015625 72.902344 84.519531 Z M 59.332031 101.488281 C 59.722656 98.867188 60.488281 96.4375 61.613281 94.121094 C 61.503906 94.296875 61.398438 94.460938 61.289062 94.636719 C 61.289062 94.691406 61.289062 94.726562 61.253906 94.78125 C 60.3125 96.4375 59.5625 98.097656 59.296875 100.027344 C 59.277344 100.167969 59.027344 100.132812 59.046875 99.992188 C 59.101562 99.007812 59.261719 98.007812 59.5625 97.0625 C 59.011719 97.796875 58.460938 98.527344 57.90625 99.277344 C 57.40625 103.417969 56.945312 107.449219 57.816406 111.589844 C 57.835938 111.695312 57.675781 111.75 57.640625 111.640625 C 56.445312 107.929688 56.730469 103.988281 57.246094 100.167969 C 56.910156 100.632812 56.570312 101.097656 56.25 101.5625 C 55.589844 104.21875 55.503906 106.859375 55.519531 109.605469 C 55.539062 111.214844 55.609375 112.835938 56 114.40625 C 56.160156 115.03125 56.320312 116.03125 56.765625 116.511719 C 57.605469 117.40625 58.496094 117.136719 59.171875 116.261719 C 59.277344 116.121094 59.507812 116.085938 59.632812 116.171875 C 59.011719 114.691406 58.90625 112.925781 58.851562 111.410156 C 58.78125 108.089844 58.832031 104.753906 59.332031 101.488281 Z M 63.554688 90.675781 C 65.136719 88.105469 66.832031 85.554688 68.71875 83.199219 C 68.558594 83.058594 68.414062 82.898438 68.273438 82.71875 C 66.402344 85.164062 64.996094 87.945312 63.554688 90.675781 Z M 57.996094 97.472656 C 61.859375 92.765625 63.839844 86.734375 68.042969 82.308594 C 67.933594 82.113281 67.863281 81.898438 67.808594 81.683594 L 67.792969 81.683594 C 67.6875 81.71875 67.578125 81.753906 67.472656 81.773438 C 65.851562 83.84375 64.265625 85.929688 62.714844 88.054688 C 62.609375 88.195312 62.394531 88.070312 62.484375 87.910156 C 63.855469 85.769531 65.351562 83.699219 66.917969 81.703125 C 66.847656 81.683594 66.796875 81.648438 66.722656 81.59375 C 63.054688 86.128906 58.941406 90.371094 54.664062 94.335938 C 54.539062 94.441406 54.378906 94.28125 54.488281 94.15625 C 58.511719 89.945312 62.394531 85.609375 66.296875 81.292969 C 66.136719 81.183594 65.976562 81.058594 65.816406 80.917969 C 65.742188 80.84375 65.691406 80.792969 65.621094 80.71875 C 63.035156 83.484375 59.867188 85.859375 57.015625 88.339844 C 54.167969 90.820312 51.300781 93.265625 48.429688 95.742188 C 47.34375 96.671875 46.1875 97.671875 44.976562 98.597656 C 45.101562 98.6875 45.171875 98.847656 45.066406 98.992188 C 44.175781 100.152344 43.550781 101.398438 43.140625 102.808594 C 42.820312 103.898438 42.125 105.824219 42.589844 106.984375 C 43.140625 106.144531 43.835938 105.378906 44.496094 104.648438 C 45.9375 103.078125 47.378906 101.523438 48.859375 99.992188 C 48.964844 99.867188 49.144531 100.042969 49.035156 100.167969 C 46.953125 102.59375 44.671875 104.84375 42.910156 107.5 C 42.925781 107.519531 42.945312 107.539062 42.945312 107.554688 C 43.175781 107.769531 43.105469 108.074219 42.910156 108.234375 C 43.050781 108.394531 43.195312 108.519531 43.371094 108.609375 C 44.476562 108.269531 45.792969 106.664062 46.527344 105.96875 C 47.503906 105.039062 48.464844 104.078125 49.410156 103.09375 C 51.28125 101.132812 53.007812 99.042969 54.699219 96.921875 C 54.808594 96.777344 55.039062 96.957031 54.933594 97.101562 C 53.117188 99.6875 51.085938 102.097656 48.894531 104.363281 C 47.773438 105.523438 46.613281 106.628906 45.402344 107.699219 C 44.976562 108.074219 44.566406 108.535156 44.085938 108.839844 C 46.578125 109.285156 50.816406 106.164062 52.0625 105.003906 C 54.378906 102.84375 55.964844 99.9375 57.996094 97.472656 Z M 64.585938 75.402344 C 64.605469 75.3125 64.605469 75.226562 64.621094 75.152344 C 64.640625 74.9375 64.425781 74.742188 64.210938 74.742188 C 64 74.742188 63.785156 74.921875 63.800781 75.152344 C 63.800781 75.242188 63.820312 75.332031 63.839844 75.402344 C 63.910156 75.777344 64.515625 75.777344 64.585938 75.402344 Z M 63.925781 73.832031 C 63.945312 73.816406 63.945312 73.816406 63.925781 73.832031 C 63.925781 73.816406 63.925781 73.816406 63.925781 73.816406 C 63.820312 73.636719 63.75 73.421875 63.730469 73.226562 C 61.699219 72.835938 59.757812 71.441406 58.121094 70.28125 C 56.019531 68.800781 53.988281 67.175781 51.707031 65.929688 C 51.566406 65.859375 51.691406 65.660156 51.832031 65.714844 C 54.058594 66.75 56.019531 68.140625 58.015625 69.535156 C 59.867188 70.816406 61.789062 71.710938 63.75 72.726562 C 63.765625 72.585938 63.820312 72.421875 63.875 72.28125 C 63.875 72.261719 63.875 72.261719 63.875 72.246094 C 63.855469 70.925781 60.757812 69.320312 59.757812 68.605469 C 58.546875 67.75 57.355469 66.875 56.144531 66.035156 C 53.648438 64.269531 51.136719 62.519531 48.644531 60.753906 C 48.484375 60.648438 48.628906 60.378906 48.804688 60.488281 C 52.082031 62.574219 55.304688 64.75 58.476562 67 C 60.0625 68.125 61.664062 69.246094 63.214844 70.40625 C 63.679688 70.746094 64.105469 71.085938 64.300781 71.53125 C 64.335938 71.476562 64.390625 71.40625 64.425781 71.351562 C 61.453125 68.585938 58.707031 65.609375 55.609375 62.949219 C 52.242188 60.058594 48.589844 57.402344 44.621094 55.402344 C 44.476562 55.332031 44.601562 55.117188 44.746094 55.1875 C 48.699219 57.042969 52.277344 59.453125 55.625 62.253906 C 58.816406 64.929688 62.003906 67.820312 64.816406 70.925781 C 64.886719 70.851562 64.941406 70.800781 65.015625 70.746094 C 64.996094 70.550781 65.050781 70.335938 65.15625 70.140625 C 65.136719 70.140625 65.121094 70.121094 65.101562 70.105469 C 61.238281 65.769531 57.40625 61.574219 52.882812 57.898438 C 50.515625 55.972656 48.039062 54.1875 45.492188 52.492188 C 42.964844 50.816406 40.058594 48.640625 36.855469 49.105469 C 36.730469 49.121094 36.621094 49.105469 36.515625 49.050781 C 36.125 49.746094 36 50.511719 36.070312 51.332031 C 39.027344 55.242188 42.554688 59.09375 46.507812 61.984375 C 46.613281 62.058594 46.527344 62.253906 46.402344 62.164062 C 44.261719 60.773438 42.375 59.113281 40.59375 57.273438 C 39.132812 55.777344 37.546875 54.207031 36.285156 52.492188 C 36.835938 54.582031 38.296875 56.722656 39.277344 58.167969 C 41.128906 60.933594 43.515625 63.253906 46.277344 65.109375 C 51.726562 68.765625 57.90625 71.210938 63.925781 73.832031 Z M 63.589844 74.777344 C 62.804688 74.582031 62.039062 74.351562 61.253906 74.082031 C 61.398438 74.207031 61.558594 74.351562 61.683594 74.492188 C 62.34375 74.566406 62.964844 74.671875 63.589844 74.777344 Z M 53.347656 70.316406 C 53.1875 70.246094 53.042969 70.15625 52.902344 70.085938 C 52.171875 69.710938 51.441406 69.335938 50.710938 68.960938 C 46.277344 67.640625 41.589844 68.140625 37.03125 68.375 C 36.890625 68.375 36.855469 68.140625 36.996094 68.105469 C 39.472656 67.625 42.074219 67.550781 44.601562 67.589844 C 45.707031 67.605469 47.148438 67.550781 48.464844 67.730469 C 47.59375 67.25 46.757812 66.730469 45.917969 66.195312 C 43.355469 65.484375 40.328125 65.554688 37.78125 65.964844 C 36.320312 66.195312 34.875 66.714844 33.773438 67.730469 C 32.882812 68.550781 32.5625 69.460938 32.3125 70.496094 C 32.933594 70.210938 33.558594 69.980469 34.199219 69.78125 C 37.566406 68.765625 41.148438 68.855469 44.601562 69.140625 C 47.523438 69.390625 50.480469 69.710938 53.347656 70.316406 Z M 64.621094 73.476562 C 64.605469 73.476562 64.605469 73.511719 64.621094 73.511719 C 64.640625 73.511719 64.640625 73.476562 64.621094 73.476562 Z M 64.996094 72.671875 C 65.246094 72.566406 65.261719 72.246094 65.226562 72.011719 C 65.191406 71.816406 64.960938 71.726562 64.800781 71.765625 C 64.605469 71.816406 64.515625 72.011719 64.550781 72.191406 C 64.570312 72.28125 64.53125 72.386719 64.570312 72.476562 C 64.621094 72.691406 64.835938 72.746094 64.996094 72.671875 Z M 65.867188 70.566406 C 65.851562 70.566406 65.851562 70.605469 65.867188 70.605469 C 65.886719 70.605469 65.886719 70.566406 65.867188 70.566406 Z M 67.578125 68.535156 C 67.328125 68.535156 67.097656 68.746094 67.113281 69 C 67.132812 69.246094 67.328125 69.460938 67.578125 69.460938 C 67.828125 69.460938 68.058594 69.246094 68.042969 69 C 68.042969 68.746094 67.84375 68.535156 67.578125 68.535156 Z M 44.066406 50.421875 C 44.28125 50.566406 44.511719 50.710938 44.726562 50.851562 C 46.722656 52.152344 48.664062 53.527344 50.550781 54.972656 C 49.695312 53.722656 48.984375 52.40625 48.449219 51.03125 C 48.378906 50.871094 48.644531 50.761719 48.734375 50.90625 C 49.875 53.027344 51.171875 54.902344 52.707031 56.667969 C 55.394531 58.84375 58.085938 61.21875 60.507812 63.804688 C 59.8125 62.824219 59.117188 61.84375 58.441406 60.878906 C 56.605469 58.273438 54.863281 55.472656 52.4375 53.367188 C 52.3125 53.261719 52.492188 53.082031 52.617188 53.1875 C 55.058594 55.117188 56.785156 57.648438 58.582031 60.148438 C 60.6875 63.074219 62.824219 66 64.886719 68.960938 C 64.960938 69.050781 64.941406 69.140625 64.90625 69.210938 C 65.03125 69.40625 65.175781 69.605469 65.296875 69.800781 C 65.621094 69.28125 66.117188 68.785156 66.402344 68.550781 C 66.742188 68.265625 67.242188 67.910156 67.773438 67.660156 C 67.863281 67.515625 67.953125 67.390625 68.058594 67.285156 C 67.96875 67.304688 67.863281 67.285156 67.757812 67.214844 C 67.773438 67.570312 67.4375 67.945312 67.0625 67.675781 C 64.480469 65.875 62.359375 62.894531 60.5625 60.328125 C 58.601562 57.523438 57.246094 54.332031 55.253906 51.566406 C 54.21875 50.15625 52.972656 48.925781 51.921875 47.515625 C 50.941406 46.210938 50.246094 44.75 49.304688 43.445312 C 48.789062 42.734375 47.949219 41.929688 46.933594 42.164062 C 46.773438 42.199219 46.613281 42.289062 46.453125 42.375 C 46.417969 44.125 46.703125 45.75 47.21875 47.410156 C 47.273438 47.585938 46.988281 47.710938 46.917969 47.535156 C 46.257812 46.050781 45.957031 44.445312 45.9375 42.824219 C 45.832031 42.949219 45.742188 43.074219 45.652344 43.179688 C 45.101562 43.910156 44.746094 44.75 44.496094 45.640625 C 44.066406 47.210938 44.085938 48.816406 44.066406 50.421875 Z M 52.8125 47.035156 C 54.007812 48.515625 55.378906 49.835938 56.464844 51.40625 C 57.640625 53.117188 58.53125 55.007812 59.582031 56.792969 C 60.667969 58.632812 61.898438 60.398438 63.234375 62.058594 C 63.515625 62.414062 63.820312 62.769531 64.140625 63.109375 C 63.304688 61.433594 62.449219 59.773438 61.558594 58.132812 C 60.3125 55.867188 59.011719 53.617188 58.03125 51.207031 C 57.976562 51.066406 58.210938 50.976562 58.261719 51.101562 C 58.851562 52.296875 59.472656 53.476562 60.117188 54.652344 C 59.207031 52.652344 58.40625 50.621094 57.765625 48.53125 C 57.300781 47.035156 56.875 45.179688 57.265625 43.625 C 56.304688 43.074219 54.914062 43.445312 54.167969 44.195312 C 54.539062 46.570312 55.378906 48.800781 56.679688 50.816406 C 56.75 50.941406 56.570312 51.03125 56.5 50.921875 C 55.128906 49.03125 54.21875 46.945312 53.773438 44.679688 C 53.277344 45.355469 53.082031 46.195312 52.8125 47.035156 Z M 57.996094 45.390625 C 58.210938 48.085938 59.527344 50.886719 60.632812 53.332031 C 62.714844 57.972656 64.925781 62.628906 68.328125 66.445312 C 68.449219 66.589844 68.46875 66.785156 68.398438 66.945312 C 68.574219 66.820312 68.773438 66.714844 68.96875 66.625 C 67.007812 64.449219 65.851562 61.398438 64.816406 58.738281 C 63.5 55.292969 62.34375 51.78125 60.4375 48.605469 C 60.347656 48.441406 60.578125 48.316406 60.667969 48.460938 C 62.589844 51.246094 63.75 54.402344 64.941406 57.542969 C 65.582031 59.238281 66.261719 60.949219 67.078125 62.574219 C 67.703125 63.804688 68.46875 64.894531 69.253906 66 C 67.382812 62.539062 65.976562 58.863281 65.050781 55.042969 C 64.976562 55.082031 64.871094 55.0625 64.835938 54.992188 C 64.550781 54.507812 64.425781 53.921875 64.246094 53.386719 C 64.050781 52.777344 63.765625 52.191406 63.625 51.582031 C 63.589844 51.441406 63.785156 51.371094 63.855469 51.476562 C 64.195312 51.976562 64.390625 52.582031 64.621094 53.152344 C 64.640625 53.171875 64.640625 53.207031 64.65625 53.226562 C 64.300781 51.441406 64.050781 49.640625 63.910156 47.835938 C 63.785156 46.339844 63.75 44.839844 63.765625 43.339844 C 63.179688 42.214844 62.058594 41.484375 60.84375 41.539062 C 61.167969 41.878906 61.414062 42.289062 61.648438 42.664062 C 62.234375 43.625 62.679688 44.660156 63.019531 45.75 C 63.089844 45.964844 62.769531 46.050781 62.699219 45.839844 C 62.199219 44.320312 61.46875 42.679688 60.203125 41.644531 C 60.007812 41.699219 59.8125 41.769531 59.617188 41.878906 C 58.296875 42.554688 57.890625 43.980469 57.996094 45.390625 Z M 69.625 67.890625 C 69.519531 67.785156 69.394531 67.75 69.253906 67.75 C 69.019531 67.75 68.808594 67.945312 68.824219 68.175781 C 68.824219 68.265625 68.859375 68.355469 68.914062 68.425781 C 68.773438 68.265625 68.539062 68.265625 68.378906 68.410156 C 68.289062 68.5 68.203125 68.570312 68.132812 68.675781 C 67.988281 68.910156 68.238281 69.246094 68.503906 69.160156 C 68.628906 69.121094 68.71875 69.050781 68.824219 68.980469 C 69.003906 68.871094 69.058594 68.640625 68.949219 68.480469 C 69.019531 68.570312 69.128906 68.625 69.253906 68.625 C 69.394531 68.625 69.519531 68.585938 69.625 68.480469 C 69.769531 68.300781 69.769531 68.050781 69.625 67.890625 Z M 75.414062 68.410156 C 75.449219 68.410156 75.503906 68.390625 75.539062 68.390625 C 75.683594 68.355469 75.683594 68.140625 75.539062 68.105469 C 75.503906 68.105469 75.449219 68.085938 75.414062 68.085938 C 75.148438 68.015625 75.148438 68.460938 75.414062 68.410156 Z M 75.378906 67.5 C 75.398438 67.5 75.398438 67.464844 75.378906 67.464844 C 75.363281 67.464844 75.363281 67.5 75.378906 67.5 Z M 76.625 68.425781 C 76.824219 68.445312 77.070312 68.425781 77.109375 68.195312 C 77.144531 67.945312 76.894531 67.855469 76.714844 67.765625 C 76.519531 67.695312 76.324219 67.875 76.304688 68.050781 C 76.269531 68.265625 76.414062 68.410156 76.625 68.425781 Z M 76.679688 67.320312 C 76.839844 67.320312 76.839844 67.070312 76.679688 67.070312 C 76.519531 67.089844 76.519531 67.320312 76.679688 67.320312 Z M 77.304688 68.535156 C 77.019531 68.535156 76.859375 68.910156 77.070312 69.105469 C 77.089844 69.121094 77.125 69.160156 77.144531 69.175781 C 77.230469 69.265625 77.390625 69.265625 77.480469 69.175781 C 77.5 69.160156 77.535156 69.121094 77.554688 69.105469 C 77.75 68.890625 77.589844 68.535156 77.304688 68.535156 Z M 77.570312 68.550781 C 77.714844 68.625 77.855469 68.695312 77.980469 68.765625 C 78.15625 68.855469 78.355469 68.800781 78.445312 68.605469 C 78.515625 68.425781 78.425781 68.230469 78.230469 68.175781 C 78.085938 68.125 77.925781 68.070312 77.785156 68.035156 C 77.5 67.925781 77.285156 68.410156 77.570312 68.550781 Z M 77.855469 67.875 C 77.835938 67.875 77.835938 67.910156 77.855469 67.910156 C 77.875 67.910156 77.875 67.875 77.855469 67.875 Z M 77.730469 66.320312 C 77.765625 66.339844 77.785156 66.355469 77.800781 66.394531 C 77.910156 66.355469 78.015625 66.320312 78.121094 66.304688 C 78.460938 64.625 79.046875 62.949219 79.511719 61.308594 C 80.027344 59.503906 80.582031 57.703125 81.167969 55.917969 C 82.328125 52.421875 83.714844 49.050781 85.425781 45.785156 C 85.496094 45.660156 85.675781 45.765625 85.621094 45.890625 C 83.964844 49.316406 82.628906 52.921875 81.472656 56.5625 C 80.472656 59.71875 79.832031 63.074219 78.746094 66.214844 C 78.816406 66.214844 78.90625 66.214844 78.976562 66.214844 C 79.691406 64.824219 80.421875 63.449219 80.953125 61.96875 C 81.613281 60.183594 82.128906 58.398438 83.269531 56.847656 C 83.359375 56.738281 83.554688 56.847656 83.464844 56.953125 C 82.238281 58.792969 81.863281 60.933594 81.078125 62.949219 C 80.632812 64.089844 80.117188 65.234375 79.546875 66.339844 C 79.617188 66.375 79.691406 66.410156 79.78125 66.445312 C 79.796875 66.464844 79.816406 66.464844 79.832031 66.480469 C 80.277344 65.394531 81.027344 64.484375 81.738281 63.539062 C 82.683594 62.289062 83.5 60.949219 84.25 59.578125 C 85.746094 56.8125 86.976562 53.902344 88.472656 51.121094 C 90.039062 48.210938 91.871094 45.480469 93.386719 42.539062 C 94.902344 39.59375 96.414062 36.382812 94.867188 33.3125 C 94.527344 35.472656 93.261719 37.683594 92.28125 39.609375 C 92.230469 39.699219 92.105469 39.628906 92.140625 39.539062 C 92.691406 38.363281 93.191406 37.132812 93.636719 35.898438 C 93.992188 34.953125 94.222656 33.9375 94.707031 33.046875 C 94.652344 32.957031 94.597656 32.867188 94.542969 32.777344 C 94.472656 32.917969 94.347656 33.027344 94.136719 33.007812 C 90.574219 32.796875 87.8125 35.722656 85.925781 38.433594 C 84.195312 40.929688 83.019531 43.75 82.09375 46.625 C 80.0625 52.992188 78.941406 59.753906 77.730469 66.320312 Z M 80.527344 68.125 C 80.472656 68.140625 80.421875 68.160156 80.367188 68.195312 C 80.171875 68.335938 80.171875 68.570312 80.367188 68.710938 C 80.421875 68.746094 80.457031 68.765625 80.527344 68.785156 C 80.742188 68.835938 80.953125 68.675781 80.953125 68.460938 C 80.953125 68.210938 80.742188 68.070312 80.527344 68.125 Z M 80.902344 70.390625 C 80.917969 70.390625 80.917969 70.355469 80.902344 70.355469 C 80.867188 70.371094 80.867188 70.390625 80.902344 70.390625 Z M 80.472656 71.53125 C 80.472656 71.601562 80.492188 71.65625 80.546875 71.710938 C 80.617188 71.78125 80.707031 71.800781 80.792969 71.78125 L 80.8125 71.78125 C 80.828125 71.78125 80.847656 71.78125 80.882812 71.78125 C 81.363281 71.78125 81.363281 71.050781 80.882812 71.050781 C 80.667969 71.050781 80.5625 71.191406 80.527344 71.351562 C 80.492188 71.40625 80.457031 71.460938 80.472656 71.53125 Z M 80.492188 70.070312 C 80.546875 69.960938 80.492188 69.800781 80.402344 69.710938 L 80.367188 69.675781 C 80.367188 69.621094 80.367188 69.570312 80.332031 69.515625 C 80.222656 69.371094 80.136719 69.246094 80.011719 69.121094 C 79.742188 68.835938 79.296875 69.28125 79.582031 69.550781 C 79.617188 69.585938 79.65625 69.621094 79.691406 69.65625 C 79.617188 69.78125 79.617188 69.941406 79.742188 70.085938 C 79.796875 70.140625 79.832031 70.175781 79.886719 70.230469 C 80.011719 70.355469 80.171875 70.355469 80.332031 70.28125 C 80.421875 70.246094 80.457031 70.140625 80.492188 70.070312 Z M 79.371094 71.03125 C 79.761719 71.03125 79.761719 70.425781 79.371094 70.425781 C 78.976562 70.425781 78.976562 71.03125 79.371094 71.03125 Z M 78.960938 69.070312 C 79.316406 69.070312 79.316406 68.515625 78.960938 68.515625 C 78.601562 68.515625 78.601562 69.070312 78.960938 69.070312 Z M 78.621094 68.195312 C 78.640625 68.195312 78.640625 68.160156 78.621094 68.160156 C 78.601562 68.160156 78.601562 68.195312 78.621094 68.195312 Z M 78.335938 69.085938 C 77.835938 69.085938 77.835938 69.871094 78.335938 69.871094 C 78.835938 69.871094 78.851562 69.085938 78.335938 69.085938 Z M 80.136719 72.421875 C 80.261719 72.386719 80.367188 72.28125 80.367188 72.136719 C 80.367188 72.011719 80.332031 71.886719 80.3125 71.765625 C 80.277344 71.585938 80.082031 71.496094 79.921875 71.53125 C 79.886719 71.550781 79.867188 71.550781 79.832031 71.566406 C 79.796875 71.476562 79.761719 71.40625 79.726562 71.335938 C 79.566406 70.941406 78.996094 71.28125 79.15625 71.675781 C 79.246094 71.886719 79.335938 72.121094 79.40625 72.335938 C 79.476562 72.546875 79.492188 72.78125 79.671875 72.941406 C 79.832031 73.082031 80.0625 73.03125 80.136719 72.816406 C 80.1875 72.671875 80.171875 72.546875 80.136719 72.421875 Z M 80.867188 70.496094 C 80.742188 70.621094 80.792969 70.835938 80.972656 70.890625 C 80.992188 70.890625 81.007812 70.890625 81.007812 70.90625 C 81.167969 70.960938 81.328125 70.800781 81.273438 70.640625 C 81.273438 70.621094 81.273438 70.605469 81.257812 70.605469 C 81.203125 70.425781 80.992188 70.355469 80.867188 70.496094 Z M 81.667969 72.171875 C 81.738281 72.210938 81.808594 72.246094 81.882812 72.261719 C 81.988281 72.300781 82.113281 72.171875 82.078125 72.066406 C 82.058594 71.996094 82.023438 71.925781 81.988281 71.851562 C 81.917969 71.710938 81.71875 71.710938 81.613281 71.800781 C 81.523438 71.90625 81.523438 72.121094 81.667969 72.171875 Z M 82.414062 71.691406 C 82.773438 71.691406 82.773438 71.140625 82.414062 71.140625 C 82.058594 71.140625 82.058594 71.691406 82.414062 71.691406 Z M 56.054688 76.902344 C 55.75 76.882812 55.449219 76.847656 55.164062 76.832031 C 52.8125 77.0625 50.53125 77.457031 48.289062 78.292969 C 45.742188 79.238281 43.605469 80.632812 41.414062 82.183594 C 41.253906 82.289062 41.074219 82.039062 41.21875 81.914062 C 44.121094 79.148438 48.269531 77.242188 52.386719 76.527344 C 50.675781 76.332031 48.984375 76.117188 47.328125 75.992188 C 44.210938 76.507812 41.289062 79.472656 39.292969 81.648438 C 38.101562 82.949219 37.015625 84.324219 36.035156 85.804688 C 35.519531 86.589844 33.648438 88.910156 34.199219 90.035156 C 35.144531 89.089844 36.140625 88.214844 37.15625 87.359375 C 40.023438 84.949219 43.015625 82.574219 46.238281 80.667969 C 47.699219 79.792969 49.234375 79.042969 50.816406 78.4375 C 52.527344 77.792969 54.308594 77.402344 56.054688 76.902344 Z M 97.074219 58.328125 C 99.140625 56.902344 101.277344 55.542969 103.433594 54.347656 C 105.945312 52.957031 108.757812 52.226562 111.539062 51.601562 C 112.765625 51.316406 114.082031 51.101562 115.367188 51.171875 C 115.472656 49.710938 115.582031 48.070312 114.316406 47.175781 C 112.910156 46.175781 111.109375 46.210938 109.523438 46.660156 C 108.152344 47.050781 106.78125 47.585938 105.570312 48.355469 C 104.519531 49.015625 103.929688 49.960938 103.113281 50.761719 C 102.132812 52.171875 101.097656 53.5625 100.011719 54.902344 C 102.757812 52.957031 105.695312 51.226562 108.5625 49.621094 C 108.6875 49.550781 108.792969 49.726562 108.667969 49.816406 C 106.441406 51.171875 104.253906 52.636719 102.132812 54.136719 C 100.796875 55.082031 99.515625 56.097656 98.214844 57.097656 C 97.824219 57.488281 97.449219 57.917969 97.074219 58.328125 Z M 122.347656 86.644531 C 122.472656 88.679688 121.367188 90.890625 119.320312 91.496094 C 118.785156 91.65625 118.449219 90.855469 118.945312 90.605469 C 119.320312 90.410156 119.640625 90.175781 119.925781 89.925781 C 118.984375 89.390625 118.09375 88.679688 117.199219 88.054688 C 117.039062 87.945312 117.183594 87.679688 117.363281 87.785156 C 118.324219 88.375 119.355469 88.910156 120.230469 89.605469 C 120.621094 89.160156 120.886719 88.640625 121.03125 88.089844 C 118.574219 86.589844 116.222656 85.289062 113.496094 84.253906 C 113.320312 84.183594 113.390625 83.898438 113.585938 83.949219 C 116.203125 84.628906 118.945312 85.824219 121.15625 87.484375 C 121.28125 86.359375 120.976562 85.144531 120.300781 84.074219 C 118.855469 81.808594 116.347656 80.328125 113.960938 79.238281 C 109.027344 76.972656 103.664062 75.777344 98.714844 73.566406 C 98.480469 73.601562 98.25 73.636719 98.035156 73.691406 C 95.828125 74.082031 93.636719 74.582031 91.480469 75.1875 C 89.324219 75.777344 87.207031 76.617188 85.035156 77.132812 C 85.035156 77.1875 85.035156 77.257812 85.015625 77.3125 C 88.097656 76.507812 91.25 76.207031 94.421875 75.972656 C 94.5625 75.957031 94.597656 76.207031 94.457031 76.242188 C 91.339844 76.6875 88.273438 77.082031 85.230469 77.8125 C 88.683594 77.703125 92.160156 77.882812 95.597656 78.152344 C 98.320312 78.367188 101.652344 78.203125 103.96875 79.917969 C 104.074219 79.988281 103.96875 80.167969 103.859375 80.097656 C 101.3125 78.367188 97.414062 78.722656 94.457031 78.5625 C 91.269531 78.382812 88.078125 78.3125 84.890625 78.382812 C 84.925781 78.542969 84.75 78.703125 84.589844 78.613281 C 84.515625 78.578125 84.464844 78.542969 84.390625 78.527344 C 84.285156 78.632812 84.160156 78.722656 84.035156 78.8125 C 83.980469 78.882812 83.929688 78.953125 83.875 79.027344 C 86.492188 79.0625 89.09375 79.238281 91.695312 79.613281 C 94.382812 80.007812 97.539062 80.292969 99.761719 81.988281 C 99.851562 82.058594 99.761719 82.21875 99.675781 82.148438 C 97.269531 80.523438 93.902344 80.34375 91.105469 80.007812 C 88.597656 79.703125 86.085938 79.578125 83.554688 79.5625 C 83.535156 79.597656 83.519531 79.632812 83.5 79.648438 C 86.351562 80.382812 89.273438 80.988281 91.996094 82.09375 C 92.960938 82.488281 93.886719 82.96875 94.757812 83.503906 C 98.765625 83.789062 102.878906 85.019531 106.746094 86.019531 C 108.632812 86.5 110.59375 86.949219 112.390625 87.695312 C 114.441406 88.554688 115.617188 90.285156 117.96875 90.425781 C 118.339844 90.445312 118.589844 91.035156 118.179688 91.210938 C 116.683594 91.871094 115.296875 90.996094 114.101562 90.085938 C 112.179688 88.625 110.078125 88.054688 107.777344 87.394531 C 105.585938 86.785156 103.398438 86.234375 101.171875 85.714844 C 99.605469 85.339844 98 85.054688 96.433594 84.628906 C 97.449219 85.378906 98.390625 86.199219 99.300781 87.070312 C 101.703125 89.445312 103.699219 92.210938 105.550781 95.046875 C 107.136719 97.4375 109.3125 100.097656 109.347656 103.09375 C 109.347656 103.792969 108.332031 103.773438 108.277344 103.09375 C 108.027344 99.953125 105.570312 97.027344 103.878906 94.496094 C 102.148438 91.925781 100.296875 89.445312 98.035156 87.324219 C 95.738281 85.144531 93.066406 83.449219 90.074219 82.398438 C 88.828125 81.953125 87.5625 81.59375 86.296875 81.238281 C 89.398438 82.613281 92.390625 84.304688 95.167969 86.144531 C 95.273438 86.214844 95.1875 86.375 95.0625 86.304688 C 91.054688 83.984375 86.902344 82.128906 82.648438 80.417969 C 82.488281 80.507812 82.308594 80.578125 82.128906 80.613281 C 82.148438 80.613281 82.148438 80.613281 82.164062 80.613281 C 86.652344 82.84375 90.945312 85.554688 94.867188 88.660156 C 98.214844 91.300781 101.222656 94.371094 102.773438 98.402344 C 102.828125 98.527344 102.632812 98.5625 102.578125 98.457031 C 100.832031 94.246094 97.449219 91.105469 93.867188 88.429688 C 90.09375 85.609375 86.085938 83.199219 81.898438 81.042969 C 81.71875 80.953125 81.757812 80.757812 81.863281 80.667969 C 81.773438 80.683594 81.683594 80.683594 81.597656 80.683594 C 81.648438 81.042969 81.417969 81.398438 81.0625 81.703125 C 82.683594 82.558594 84.25 83.71875 85.726562 84.71875 C 87.742188 86.074219 89.648438 87.535156 91.515625 89.070312 C 91.589844 89.140625 91.480469 89.265625 91.410156 89.214844 C 89.488281 87.785156 87.507812 86.410156 85.496094 85.109375 C 83.894531 84.058594 82.09375 83.183594 80.492188 82.128906 C 80.347656 82.21875 80.207031 82.308594 80.082031 82.378906 C 81.453125 84.289062 83.464844 85.929688 85.230469 87.394531 C 85.335938 87.484375 85.195312 87.660156 85.085938 87.570312 C 83.859375 86.644531 82.683594 85.699219 81.558594 84.628906 C 81.113281 84.199219 80.597656 83.753906 80.152344 83.253906 C 81.558594 85.609375 83.859375 87.625 85.835938 89.339844 C 88.152344 91.355469 90.625 93.175781 92.996094 95.121094 C 95.417969 97.117188 97.539062 99.292969 99.605469 101.648438 C 101.136719 103.417969 104.859375 107.253906 107.476562 106.003906 C 105.160156 104.824219 103.128906 103.09375 101.296875 101.292969 C 100.40625 100.417969 99.460938 99.507812 98.695312 98.492188 C 97.910156 97.472656 97.484375 96.15625 96.363281 95.441406 C 96.253906 95.367188 96.34375 95.207031 96.46875 95.261719 C 97.339844 95.742188 97.804688 96.4375 98.320312 97.261719 C 99.03125 98.382812 99.976562 99.3125 100.921875 100.238281 C 103.039062 102.34375 105.304688 104.128906 107.867188 105.664062 C 107.886719 105.683594 107.902344 105.699219 107.921875 105.71875 C 108.207031 105.503906 108.472656 105.21875 108.722656 104.824219 C 108.9375 104.503906 109.453125 104.699219 109.347656 105.09375 C 108.617188 107.804688 105.960938 107.519531 103.824219 106.558594 C 104.769531 107.554688 103.894531 109.359375 102.808594 109.980469 C 100.867188 111.089844 98.585938 109.945312 96.984375 108.769531 C 92.941406 105.769531 89.523438 102.167969 86.582031 98.117188 C 86.921875 98.992188 87.226562 99.882812 87.492188 100.792969 C 88.453125 104.023438 88.96875 107.429688 88.71875 110.800781 C 88.597656 112.570312 88.113281 116.332031 85.425781 115.441406 C 85.015625 115.300781 85.070312 114.601562 85.53125 114.65625 C 85.585938 114.65625 85.65625 114.65625 85.710938 114.65625 C 85.371094 113.050781 84.871094 111.464844 84.125 109.980469 C 84.070312 109.875 84.230469 109.785156 84.285156 109.894531 C 85.160156 111.375 85.800781 112.925781 86.136719 114.601562 C 88.488281 113.996094 87.847656 108.019531 87.671875 106.324219 C 87.367188 103.539062 86.601562 100.792969 85.605469 98.1875 C 84.554688 95.457031 83.179688 92.851562 81.683594 90.355469 C 80.3125 88.070312 78.621094 85.964844 77.25 83.699219 C 77.089844 83.753906 76.929688 83.808594 76.75 83.824219 C 76.714844 83.824219 76.679688 83.84375 76.644531 83.84375 C 81.988281 89.675781 83.464844 98.242188 85.726562 105.59375 C 85.761719 105.71875 85.566406 105.769531 85.53125 105.644531 C 82.878906 98.097656 81.453125 89.785156 75.894531 83.824219 C 75.648438 83.789062 75.398438 83.734375 75.164062 83.644531 C 75.09375 83.753906 75.023438 83.84375 74.917969 83.933594 C 76.128906 85.609375 77.089844 87.570312 78.070312 89.355469 C 78.140625 89.480469 77.960938 89.589844 77.875 89.464844 C 76.75 87.769531 75.433594 86.019531 74.507812 84.183594 C 74.398438 84.234375 74.292969 84.289062 74.1875 84.324219 C 76.644531 90.085938 79.066406 95.851562 81.558594 101.597656 C 81.597656 101.6875 81.472656 101.773438 81.417969 101.6875 C 78.640625 96.03125 76.003906 90.265625 73.667969 84.414062 C 73.652344 84.414062 73.617188 84.414062 73.597656 84.394531 C 73.492188 84.414062 73.386719 84.414062 73.277344 84.433594 C 74.1875 86.949219 74.597656 89.589844 74.613281 92.265625 C 75.308594 94.671875 77.019531 96.671875 77.695312 99.132812 C 77.730469 99.257812 77.554688 99.292969 77.515625 99.1875 C 76.839844 97.207031 75.449219 95.496094 74.613281 93.585938 C 74.578125 94.796875 74.453125 96.011719 74.277344 97.207031 C 75.613281 100.097656 77.160156 102.882812 78.675781 105.683594 C 79.371094 106.964844 80.046875 108.269531 80.847656 109.484375 C 81.71875 110.820312 82.808594 111.855469 83.824219 113.070312 C 84.109375 113.425781 83.75 113.980469 83.324219 113.730469 C 80.867188 112.265625 79.351562 109 78.121094 106.558594 C 76.785156 103.863281 75.128906 101.167969 74.113281 98.3125 C 73.597656 101.273438 72.726562 104.164062 71.65625 106.859375 C 70.304688 110.285156 68.664062 113.65625 66.722656 116.796875 C 65.53125 118.742188 63.179688 120.632812 61.023438 118.8125 C 60.773438 118.601562 60.84375 118.316406 61.023438 118.15625 C 60.472656 117.671875 60.0625 117.082031 59.757812 116.441406 C 59.671875 117.617188 58.421875 118.367188 57.300781 118.136719 C 55.664062 117.78125 55.164062 115.585938 54.878906 114.191406 C 54.417969 111.925781 54.523438 109.570312 54.613281 107.269531 C 54.664062 105.949219 54.734375 104.574219 55.039062 103.253906 C 53.238281 105.59375 51.171875 107.574219 48.414062 108.875 C 46.597656 109.75 43.265625 110.714844 42 108.785156 C 41.894531 108.785156 41.789062 108.679688 41.824219 108.554688 C 41.824219 108.535156 41.839844 108.519531 41.839844 108.519531 C 41.714844 108.269531 41.628906 108 41.574219 107.679688 C 41.554688 107.628906 41.554688 107.574219 41.574219 107.519531 C 41.09375 106.484375 41.554688 105.003906 41.839844 103.933594 C 42.234375 102.398438 42.75 100.847656 43.710938 99.597656 C 40.273438 101.988281 36.390625 103.613281 32.242188 101.96875 C 31.867188 101.828125 32.007812 101.238281 32.402344 101.363281 C 39.3125 103.503906 44.976562 97.597656 49.695312 93.496094 C 52.332031 91.210938 54.96875 88.910156 57.585938 86.609375 C 60.042969 84.449219 62.414062 82.023438 65.050781 80.078125 C 64.800781 79.648438 64.640625 79.203125 64.621094 78.703125 C 64.570312 78.703125 64.53125 78.6875 64.480469 78.667969 C 62.839844 80.808594 60.613281 82.433594 58.210938 83.59375 C 58.050781 83.664062 57.90625 83.433594 58.066406 83.363281 C 60.417969 82.09375 62.289062 80.382812 64.035156 78.417969 C 63.875 78.277344 63.765625 78.078125 63.679688 77.867188 C 62.253906 79.222656 60.242188 80.097656 58.671875 81.183594 C 56.234375 82.878906 53.933594 84.753906 51.78125 86.785156 C 51.636719 86.929688 51.421875 86.714844 51.566406 86.574219 C 53.398438 84.769531 55.34375 83.074219 57.40625 81.523438 C 58.496094 80.703125 59.617188 79.917969 60.757812 79.1875 C 61.71875 78.5625 62.699219 78.007812 63.515625 77.242188 C 63.5 77.082031 63.480469 76.921875 63.464844 76.757812 C 60.328125 78.222656 57.210938 79.4375 54.273438 81.292969 C 51.191406 83.234375 48.464844 85.589844 45.777344 88.035156 C 45.671875 88.125 45.527344 87.980469 45.617188 87.875 C 47.96875 85.199219 50.855469 82.933594 53.828125 81.003906 C 56.234375 79.453125 58.921875 77.867188 61.699219 76.847656 C 60.1875 77.0625 58.636719 77.082031 57.070312 77.007812 C 57.050781 77.042969 57.035156 77.082031 56.980469 77.117188 C 55.589844 77.8125 54.113281 78.203125 52.652344 78.6875 C 51.015625 79.222656 49.464844 79.933594 47.96875 80.773438 C 45.226562 82.308594 42.730469 84.234375 40.292969 86.214844 C 38.476562 87.679688 30.226562 94.351562 29.996094 98.382812 C 30.585938 97.6875 31.402344 97.0625 31.992188 96.511719 C 32.953125 95.617188 33.949219 94.761719 34.984375 93.960938 C 37.175781 92.246094 39.507812 90.785156 41.984375 89.5 C 42.125 89.429688 42.234375 89.625 42.109375 89.714844 C 39.828125 90.960938 37.65625 92.390625 35.625 93.976562 C 34.609375 94.78125 33.628906 95.601562 32.667969 96.492188 C 32.3125 96.8125 30.546875 98.222656 30.050781 99.027344 C 30.085938 99.277344 30.175781 99.492188 30.300781 99.703125 C 31.402344 98.472656 32.632812 97.351562 33.949219 96.351562 C 34.074219 96.261719 34.234375 96.476562 34.109375 96.566406 C 32.828125 97.636719 31.652344 98.8125 30.546875 100.0625 C 30.78125 100.328125 31.082031 100.5625 31.476562 100.757812 C 31.777344 100.898438 31.632812 101.433594 31.296875 101.398438 C 30.671875 101.347656 30.210938 101.132812 29.871094 100.847656 C 29.835938 100.898438 29.78125 100.953125 29.746094 101.007812 C 29.570312 101.222656 29.265625 100.917969 29.445312 100.703125 C 29.496094 100.652344 29.53125 100.597656 29.585938 100.527344 C 28.605469 99.152344 29.410156 96.566406 30.175781 95.171875 C 31.066406 93.585938 32.1875 92.15625 33.433594 90.835938 C 32.613281 90.085938 33.203125 88.679688 33.664062 87.785156 C 34.699219 85.804688 36.015625 83.96875 37.476562 82.289062 C 39.507812 79.953125 42.304688 77.042969 45.472656 75.992188 C 42.640625 75.886719 39.8125 75.832031 36.976562 75.867188 C 35.359375 75.886719 34.003906 76.1875 32.578125 76.957031 C 31.632812 77.457031 30.761719 78.007812 29.710938 78.238281 C 29.425781 78.292969 29.210938 77.882812 29.496094 77.742188 C 31.632812 76.6875 33.46875 75.136719 35.910156 74.9375 C 38.882812 74.691406 41.949219 74.851562 44.921875 74.921875 C 48.019531 74.992188 51.066406 75.261719 54.148438 75.601562 C 57.246094 75.9375 60.3125 76.136719 63.394531 75.511719 C 63.429688 75.511719 63.464844 75.492188 63.480469 75.492188 C 63.480469 75.457031 63.480469 75.402344 63.5 75.351562 C 61.238281 75.136719 58.992188 74.777344 56.75 74.476562 C 54.238281 74.136719 51.636719 73.886719 49.160156 73.296875 C 49.054688 73.28125 49.074219 73.101562 49.195312 73.101562 C 51.746094 73.171875 54.308594 73.617188 56.839844 73.941406 C 58.226562 74.117188 59.617188 74.277344 61.007812 74.457031 C 58.085938 72.460938 54.539062 72.476562 51.101562 72.53125 C 49.074219 72.566406 47.058594 72.601562 45.027344 72.636719 C 43.035156 72.671875 40.933594 72.851562 38.957031 72.601562 C 38.882812 72.585938 38.832031 72.460938 38.9375 72.441406 C 41.09375 72.066406 43.410156 72.191406 45.582031 72.136719 C 47.824219 72.085938 50.070312 72.011719 52.3125 71.976562 C 53.808594 71.960938 55.414062 71.976562 56.945312 72.246094 C 56.179688 71.851562 55.414062 71.460938 54.664062 71.066406 C 49.589844 70.515625 44.511719 69.710938 39.402344 69.980469 C 36.78125 70.121094 34.128906 70.621094 31.8125 71.925781 C 30.851562 72.460938 29.960938 73.121094 29.195312 73.90625 C 28.730469 74.386719 28.320312 74.902344 27.964844 75.457031 C 27.789062 75.742188 26.859375 77.277344 27.34375 77.742188 C 28.359375 75.761719 30.707031 74.402344 32.703125 73.707031 C 32.828125 73.671875 32.898438 73.851562 32.792969 73.90625 C 31.707031 74.367188 30.671875 74.992188 29.765625 75.761719 C 29.015625 76.382812 28.464844 77.167969 27.804688 77.882812 C 28.214844 77.953125 28.25 78.5625 27.839844 78.6875 C 27.039062 78.9375 26.34375 78.507812 26.167969 77.667969 C 25.917969 76.472656 26.898438 75.082031 27.574219 74.191406 C 28.554688 72.90625 29.816406 71.871094 31.226562 71.085938 C 30.726562 68.25 33.914062 65.929688 36.300781 65.320312 C 38.902344 64.664062 41.964844 64.699219 44.671875 65.445312 C 44.210938 65.109375 43.746094 64.769531 43.320312 64.410156 C 40.59375 62.164062 38.347656 59.292969 36.765625 56.152344 C 35.714844 54.0625 33.914062 50.40625 36.175781 48.53125 C 36.195312 48.371094 36.300781 48.230469 36.53125 48.195312 C 39.0625 47.820312 41.304688 48.816406 43.390625 50.085938 C 43.175781 47.28125 43.480469 43.410156 45.867188 41.734375 C 48.664062 39.789062 50.640625 43.859375 52.011719 46.015625 C 52.351562 44.804688 53.0625 43.625 54.128906 43.019531 C 55.21875 42.394531 56.445312 42.449219 57.390625 43.179688 C 57.691406 42.375 58.261719 41.699219 59.207031 41.234375 C 59.332031 41.179688 59.4375 41.128906 59.5625 41.09375 C 59.597656 41.003906 59.671875 40.929688 59.796875 40.96875 C 59.832031 40.96875 59.867188 40.984375 59.902344 41.003906 C 61.414062 40.609375 62.949219 41.269531 63.785156 42.539062 C 63.839844 40.914062 63.980469 39.273438 64.195312 37.667969 C 64.570312 34.972656 65.15625 32.136719 67.488281 30.476562 C 67.808594 30.242188 68.113281 30.511719 68.167969 30.816406 C 68.167969 30.796875 68.183594 30.777344 68.183594 30.761719 C 68.273438 30.527344 68.613281 30.617188 68.558594 30.867188 C 68.09375 33.332031 68.042969 35.613281 68.078125 38.113281 C 68.078125 38.328125 67.792969 38.308594 67.757812 38.113281 C 67.507812 35.9375 67.277344 33.402344 67.988281 31.261719 C 68.023438 31.1875 68.023438 31.207031 68.003906 31.207031 C 65.460938 33.027344 65.15625 36.828125 64.871094 39.683594 C 64.550781 42.714844 64.570312 45.785156 64.851562 48.835938 C 65.441406 54.957031 67.1875 60.933594 69.949219 66.429688 C 70.304688 66.410156 70.675781 66.464844 71.015625 66.589844 C 70.394531 65.429688 70.179688 64.074219 69.910156 62.789062 C 69.539062 61.09375 69.199219 59.378906 68.894531 57.683594 C 68.289062 54.332031 67.863281 50.957031 67.542969 47.570312 C 67.523438 47.355469 67.84375 47.355469 67.882812 47.570312 C 68.308594 50.90625 68.84375 54.222656 69.449219 57.523438 C 69.734375 59.148438 70.054688 60.753906 70.410156 62.359375 C 70.714844 63.769531 70.945312 65.25 71.65625 66.515625 C 71.691406 66.515625 71.710938 66.515625 71.746094 66.5 C 71.90625 66.480469 72.066406 66.464844 72.246094 66.464844 C 72.226562 61.824219 71.941406 57.273438 71.105469 52.671875 C 71.070312 52.457031 71.390625 52.367188 71.425781 52.582031 C 72.457031 57.097656 73.027344 61.824219 72.851562 66.480469 C 72.957031 66.5 73.066406 66.515625 73.171875 66.535156 C 73.667969 60.433594 74.167969 54.3125 74.277344 48.175781 C 74.292969 46.535156 74.3125 44.910156 74.277344 43.269531 C 74.277344 43.25 74.257812 43.234375 74.257812 43.199219 C 74.222656 42.910156 74.222656 42.644531 74.257812 42.375 C 74.222656 41.179688 74.1875 39.96875 74.113281 38.773438 C 73.957031 35.792969 73.296875 32.171875 70.089844 31.027344 C 69.894531 30.957031 69.964844 30.652344 70.179688 30.707031 C 72.601562 31.332031 73.957031 33.347656 74.523438 35.703125 C 74.863281 37.09375 75.042969 38.539062 75.148438 40.003906 C 75.414062 39.574219 75.734375 39.164062 76.054688 38.773438 C 77.070312 37.542969 78.320312 35.988281 79.921875 35.578125 C 81.097656 35.277344 82.378906 35.597656 83.019531 36.667969 C 83.824219 38.003906 83.394531 39.914062 83.144531 41.34375 C 83.109375 41.503906 82.859375 41.46875 82.878906 41.304688 C 82.949219 40.183594 83.09375 38.789062 82.808594 37.683594 C 82.488281 36.433594 81.613281 36.097656 80.707031 36.238281 C 80.722656 36.273438 80.742188 36.308594 80.722656 36.347656 C 80.332031 37.863281 79.671875 39.308594 79.28125 40.84375 C 79.246094 40.984375 79.046875 40.914062 79.066406 40.789062 C 79.351562 39.308594 79.707031 37.613281 80.472656 36.292969 C 79.816406 36.453125 79.171875 36.808594 78.675781 37.238281 C 77.144531 38.613281 75.753906 40.308594 75.238281 42.289062 C 75.253906 43.304688 75.273438 44.304688 75.289062 45.285156 C 75.328125 47.355469 75.289062 49.425781 75.21875 51.476562 C 75.894531 49.300781 76.769531 47.175781 77.640625 45.140625 C 77.714844 44.980469 77.980469 45.105469 77.925781 45.265625 C 76.824219 48.441406 75.773438 51.53125 75.078125 54.757812 C 74.863281 58.808594 74.523438 62.84375 74.203125 66.875 C 74.238281 66.820312 74.292969 66.769531 74.328125 66.714844 C 74.382812 64.125 74.988281 61.378906 75.488281 58.878906 C 76.09375 55.8125 76.910156 52.796875 77.910156 49.835938 C 77.980469 49.640625 78.265625 49.726562 78.210938 49.925781 C 77.355469 52.832031 76.625 55.777344 76.054688 58.757812 C 75.59375 61.199219 75.433594 63.734375 75.042969 66.195312 C 75.488281 65.980469 75.984375 65.859375 76.464844 65.875 C 76.574219 63.429688 77.230469 60.878906 77.910156 58.558594 C 77.945312 58.417969 78.15625 58.472656 78.121094 58.613281 C 77.675781 61.039062 77.464844 63.519531 77.035156 65.929688 C 77.160156 65.964844 77.285156 66 77.410156 66.054688 C 78.445312 58.71875 79.386719 51.082031 81.988281 44.109375 C 83.839844 39.128906 87.867188 31.601562 94.152344 31.976562 C 94.367188 31.992188 94.492188 32.097656 94.5625 32.261719 C 94.632812 32.222656 94.722656 32.242188 94.792969 32.296875 C 97.179688 34.242188 96.378906 37.863281 95.417969 40.308594 C 94.492188 42.679688 93.226562 44.890625 91.945312 47.085938 C 92.121094 46.925781 92.300781 46.785156 92.480469 46.625 C 93.976562 45.339844 95.542969 44.160156 97.09375 42.949219 C 99.371094 41.199219 101.828125 38.84375 104.984375 39.46875 C 105.125 39.503906 105.089844 39.734375 104.945312 39.71875 C 101.632812 39.539062 98.890625 42.484375 96.539062 44.445312 C 95.328125 45.464844 94.082031 46.425781 92.886719 47.480469 C 91.835938 48.40625 91.019531 49.511719 90.039062 50.511719 C 90.019531 50.53125 89.984375 50.546875 89.949219 50.566406 C 88.523438 53.1875 87.277344 55.902344 85.941406 58.558594 C 85.160156 60.113281 84.339844 61.628906 83.359375 63.074219 C 82.414062 64.464844 81.238281 65.679688 80.632812 67.285156 C 80.617188 67.339844 80.582031 67.390625 80.546875 67.429688 L 80.546875 67.445312 C 86.011719 61.484375 91.410156 55.492188 95.3125 48.355469 C 95.382812 48.230469 95.558594 48.335938 95.507812 48.460938 C 91.996094 55.757812 86.566406 61.914062 81.042969 67.765625 C 81.273438 67.964844 81.453125 68.195312 81.597656 68.425781 C 83.839844 66.980469 85.585938 64.875 87.402344 62.929688 C 89.574219 60.613281 91.765625 58.328125 93.976562 56.0625 C 94.082031 55.9375 94.261719 56.113281 94.152344 56.242188 C 91.910156 58.738281 89.628906 61.21875 87.347656 63.679688 C 85.640625 65.519531 83.964844 67.550781 81.808594 68.890625 C 81.84375 69.015625 81.898438 69.140625 81.917969 69.265625 C 82.113281 69.265625 82.328125 69.320312 82.503906 69.40625 C 84.125 68.710938 85.53125 67.464844 86.902344 66.375 C 88.152344 65.394531 89.363281 64.375 90.554688 63.304688 C 92.871094 61.238281 95.042969 59.023438 97.074219 56.6875 C 99.195312 54.277344 101.152344 51.707031 102.917969 49.03125 C 103.789062 47.710938 104.679688 46.375 105.429688 44.980469 C 106.335938 43.269531 106.566406 41.839844 105.925781 40.019531 C 105.785156 39.609375 106.371094 39.273438 106.65625 39.59375 C 108.617188 41.824219 106.800781 44.980469 105.410156 47.210938 C 105.464844 47.175781 105.535156 47.140625 105.585938 47.105469 C 107.207031 46.210938 109.1875 45.429688 111.039062 45.355469 C 112.570312 45.304688 114.476562 45.855469 115.4375 47.121094 C 116.273438 48.210938 116.167969 49.835938 115.882812 51.191406 C 116.878906 51.316406 117.84375 51.636719 118.699219 52.296875 C 120.105469 53.367188 121.082031 55.507812 119.980469 57.078125 C 119.820312 57.3125 119.375 57.257812 119.410156 56.917969 C 119.464844 56.3125 119.445312 55.777344 119.375 55.3125 C 114.101562 55.777344 109.417969 58.132812 104.75 60.449219 C 104.625 60.503906 104.539062 60.34375 104.644531 60.273438 C 109.203125 57.738281 113.996094 55.277344 119.285156 54.902344 C 118.164062 50.835938 111.625 52.40625 108.257812 53.296875 C 103.46875 54.582031 99.65625 57.738281 95.363281 60.09375 L 95.347656 60.09375 C 93.867188 61.609375 92.316406 63.054688 90.699219 64.410156 C 90.339844 64.714844 89.96875 65.019531 89.609375 65.320312 C 90.304688 64.949219 91 64.589844 91.640625 64.234375 C 95.007812 62.394531 98.445312 60.898438 102.222656 60.183594 C 102.3125 60.167969 102.363281 60.308594 102.257812 60.328125 C 98.570312 61.128906 95.132812 62.769531 91.855469 64.589844 C 89.183594 66.089844 86.511719 67.550781 84.144531 69.496094 C 85.460938 68.625 87.011719 68 88.273438 67.375 C 91 66.019531 93.796875 64.859375 96.628906 63.789062 C 96.753906 63.734375 96.789062 63.929688 96.683594 63.984375 C 93.976562 65.074219 91.320312 66.304688 88.71875 67.625 C 86.886719 68.550781 85.035156 69.445312 83.464844 70.746094 C 83.484375 70.851562 83.519531 70.960938 83.519531 71.066406 C 83.574219 71.15625 83.644531 71.265625 83.664062 71.371094 C 83.699219 71.460938 83.699219 71.550781 83.714844 71.65625 C 83.910156 71.886719 84.019531 72.15625 84.070312 72.460938 C 90.019531 70.300781 95.988281 68.160156 101.953125 66.019531 C 104.910156 64.964844 107.851562 63.875 110.71875 62.574219 C 113.40625 61.34375 115.722656 59.703125 118.253906 58.222656 C 118.449219 58.113281 118.644531 58.363281 118.484375 58.523438 C 116.507812 60.664062 113.515625 62.183594 110.929688 63.429688 C 109.097656 64.324219 107.207031 65.109375 105.320312 65.839844 C 107.8125 65.734375 110.398438 66.25 112.710938 66.980469 C 114.367188 67.515625 115.988281 68.195312 117.539062 68.960938 C 119.070312 69.710938 120.710938 70.496094 121.9375 71.710938 C 122.1875 71.960938 121.9375 72.460938 121.582031 72.335938 C 120.105469 71.816406 118.804688 70.90625 117.433594 70.195312 C 115.902344 69.40625 114.296875 68.710938 112.660156 68.160156 C 109.453125 67.054688 106.28125 66.769531 102.933594 66.75 C 96.648438 69.070312 90.339844 71.335938 84.035156 73.601562 C 84.089844 73.636719 84.144531 73.65625 84.195312 73.691406 C 88.472656 71.710938 93.261719 70.566406 97.859375 69.855469 C 97.964844 69.835938 98.019531 69.996094 97.910156 70.015625 C 93.28125 70.925781 88.96875 72.460938 84.589844 74.117188 C 84.660156 74.226562 84.714844 74.332031 84.765625 74.457031 C 86.582031 73.707031 88.542969 73.242188 90.429688 72.796875 C 90.539062 72.761719 90.589844 72.941406 90.484375 72.976562 C 88.578125 73.496094 86.742188 74.226562 84.890625 74.867188 C 84.980469 75.242188 84.980469 75.652344 84.910156 76.007812 C 86.902344 75.152344 89.078125 74.617188 91.144531 74.046875 C 93.566406 73.386719 96.003906 72.816406 98.5 72.421875 C 102.988281 71.726562 107.902344 71.28125 112.265625 72.796875 C 112.535156 72.886719 112.429688 73.296875 112.144531 73.226562 C 108.332031 72.40625 104.054688 72.707031 100.121094 73.296875 C 103.164062 74.15625 106.175781 75.332031 109.167969 76.332031 C 112.179688 77.347656 115.277344 78.367188 117.914062 80.183594 C 120.070312 81.71875 122.1875 83.914062 122.347656 86.644531 Z M 88.027344 47.535156 C 88.398438 46.980469 88.597656 46.300781 88.84375 45.675781 C 89.128906 44.980469 89.433594 44.269531 89.753906 43.589844 C 89.824219 43.429688 89.59375 43.285156 89.523438 43.445312 C 88.898438 44.679688 88.007812 46.070312 87.777344 47.425781 C 87.742188 47.570312 87.9375 47.675781 88.027344 47.535156 Z M 69.554688 93.996094 C 69.179688 94.585938 69.253906 94.996094 69.21875 95.707031 C 69.144531 96.761719 68.859375 97.777344 68.648438 98.8125 C 68.203125 100.773438 67.808594 102.757812 67.382812 104.734375 C 67.347656 104.878906 67.558594 104.933594 67.597656 104.789062 C 68.042969 102.917969 68.539062 101.0625 69.003906 99.1875 C 69.414062 97.472656 69.574219 95.832031 69.839844 94.101562 C 69.839844 93.941406 69.644531 93.851562 69.554688 93.996094 Z M 66.332031 110.160156 C 66.011719 110.535156 65.867188 111.054688 65.691406 111.5 C 65.460938 112.089844 65.261719 112.675781 65.085938 113.285156 C 65.050781 113.40625 65.246094 113.496094 65.316406 113.371094 C 65.566406 112.855469 65.796875 112.355469 66.011719 111.820312 C 66.207031 111.320312 66.507812 110.785156 66.527344 110.230469 C 66.507812 110.144531 66.386719 110.089844 66.332031 110.160156 Z M 63.589844 104.648438 C 62.664062 105.824219 62.625 107.929688 62.824219 109.339844 C 62.839844 109.5 63.109375 109.464844 63.109375 109.304688 C 63.109375 108.429688 63.144531 107.574219 63.320312 106.71875 C 63.464844 106.058594 63.75 105.414062 63.820312 104.753906 C 63.839844 104.628906 63.660156 104.558594 63.589844 104.648438 Z M 101.046875 106.34375 C 101.617188 106.914062 102.113281 107.769531 102.808594 108.179688 C 102.917969 108.234375 103.058594 108.144531 103.023438 108.019531 C 102.738281 107.214844 101.867188 106.519531 101.257812 105.933594 C 100.546875 105.234375 99.761719 104.628906 98.960938 104.058594 C 98.800781 103.933594 98.640625 104.21875 98.800781 104.34375 C 99.585938 104.949219 100.332031 105.628906 101.046875 106.34375 Z M 92.976562 100.363281 C 92.886719 100.257812 93.03125 100.097656 93.136719 100.203125 C 93.351562 100.417969 93.601562 100.632812 93.851562 100.8125 C 94.0625 100.972656 94.347656 101.113281 94.507812 101.3125 C 94.597656 101.417969 94.507812 101.597656 94.367188 101.5625 C 94.097656 101.507812 93.851562 101.257812 93.636719 101.078125 C 93.40625 100.863281 93.171875 100.632812 92.976562 100.363281 " fill-opacity="1" fill-rule="nonzero"></path>
  </g>
</svg>
